<?xml version="1.0" encoding="UTF-8" standalone="no"?>
<svg
   width="40.540001mm"
   height="128.5mm"
   viewBox="0 0 40.540002 128.5"
   version="1.1"
   id="svg8"
   inkscape:version="1.2.1 (9c6d41e4, 2022-07-14)"
   sodipodi:docname="DrumMapper.svg"
   xmlns:inkscape="http://www.inkscape.org/namespaces/inkscape"
   xmlns:sodipodi="http://sodipodi.sourceforge.net/DTD/sodipodi-0.dtd"
   xmlns="http://www.w3.org/2000/svg"
   xmlns:svg="http://www.w3.org/2000/svg"
   xmlns:rdf="http://www.w3.org/1999/02/22-rdf-syntax-ns#"
   xmlns:cc="http://creativecommons.org/ns#"
   xmlns:dc="http://purl.org/dc/elements/1.1/">
  <defs
     id="defs2">
    <inkscape:path-effect
       effect="fillet_chamfer"
       id="path-effect942"
       is_visible="true"
       lpeversion="1"
       nodesatellites_param="F,0,0,1,0,3,0,1 @ F,0,0,1,0,3,0,1 @ F,0,0,1,0,3,0,1 @ F,0,0,1,0,3,0,1"
       unit="mm"
       method="auto"
       mode="F"
       radius="3"
       chamfer_steps="1"
       flexible="false"
       use_knot_distance="true"
       apply_no_radius="true"
       apply_with_radius="true"
       only_selected="false"
       hide_knots="false" />
    <inkscape:path-effect
       effect="fillet_chamfer"
       id="path-effect10104"
       is_visible="true"
       lpeversion="1"
       nodesatellites_param="F,0,0,1,0,2,0,1 @ F,0,0,1,0,2,0,1 @ F,0,0,1,0,2,0,1 @ F,0,0,1,0,2,0,1"
       unit="mm"
       method="auto"
       mode="F"
       radius="2"
       chamfer_steps="1"
       flexible="false"
       use_knot_distance="true"
       apply_no_radius="true"
       apply_with_radius="true"
       only_selected="false"
       hide_knots="false" />
    <rect
       x="130.26277"
       y="65.586853"
       width="64.675926"
       height="17.30764"
       id="rect1854" />
    <rect
       x="22.773212"
       y="117.50977"
       width="10.931142"
       height="11.84207"
       id="rect895" />
    <inkscape:path-effect
       effect="fillet_chamfer"
       id="path-effect942-8"
       is_visible="true"
       lpeversion="1"
       nodesatellites_param="F,0,0,1,0,3,0,1 @ F,0,0,1,0,3,0,1 @ F,0,0,1,0,3,0,1 @ F,0,0,1,0,3,0,1"
       unit="mm"
       method="auto"
       mode="F"
       radius="3"
       chamfer_steps="1"
       flexible="false"
       use_knot_distance="true"
       apply_no_radius="true"
       apply_with_radius="true"
       only_selected="false"
       hide_knots="false" />
  </defs>
  <sodipodi:namedview
     id="base"
     pagecolor="#ffffff"
     bordercolor="#666666"
     borderopacity="1.0"
     inkscape:pageopacity="0.0"
     inkscape:pageshadow="2"
     inkscape:zoom="2.195562"
     inkscape:cx="74.696137"
     inkscape:cy="75.379333"
     inkscape:document-units="mm"
     inkscape:current-layer="layer1"
     inkscape:document-rotation="0"
     showgrid="true"
     inkscape:showpageshadow="false"
     inkscape:window-width="1309"
     inkscape:window-height="847"
     inkscape:window-x="50"
     inkscape:window-y="299"
     inkscape:window-maximized="0"
     inkscape:pagecheckerboard="0"
     width="20.32mm"
     inkscape:deskcolor="#d1d1d1">
    <inkscape:grid
       type="xygrid"
       id="grid3456"
       originx="0"
       originy="0" />
  </sodipodi:namedview>
  <metadata
     id="metadata5">
    <rdf:RDF>
      <cc:Work
         rdf:about="">
        <dc:format>image/svg+xml</dc:format>
        <dc:type
           rdf:resource="http://purl.org/dc/dcmitype/StillImage" />
      </cc:Work>
    </rdf:RDF>
  </metadata>
  <g
     inkscape:label="panel"
     inkscape:groupmode="layer"
     id="layer1"
     style="display:inline">
    <path
       id="rect11"
       style="fill:#333333;fill-rule:evenodd;stroke-width:3.26433"
       inkscape:label="background"
       d="M 1.4327244e-8,5.0353368e-8 H 81.314549 V 128.5 H 1.4327244e-8 Z" />
    <g
       aria-label="Chinenual"
       id="text624"
       style="font-size:3.88056px;-inkscape-font-specification:'sans-serif, Normal';fill:#ffd556;stroke-width:0.264583"
       transform="translate(-20.585331,-0.482033)">
      <path
         d="m 33.308488,126.088 q -0.104214,0.0455 -0.189481,0.0853 -0.08337,0.0398 -0.219797,0.0834 -0.115583,0.036 -0.252009,0.0606 -0.134531,0.0265 -0.297484,0.0265 -0.306959,0 -0.558968,-0.0853 -0.250114,-0.0872 -0.435805,-0.27095 -0.181901,-0.18001 -0.28422,-0.45665 -0.10232,-0.27854 -0.10232,-0.64613 0,-0.34864 0.09853,-0.62339 0.09853,-0.27475 0.284221,-0.46423 0.180006,-0.18379 0.43391,-0.28043 0.255799,-0.0966 0.566547,-0.0966 0.227376,0 0.452858,0.055 0.227376,0.0549 0.504018,0.19327 v 0.44528 h -0.02842 q -0.233061,-0.19517 -0.462332,-0.28423 -0.229272,-0.0891 -0.490755,-0.0891 -0.214113,0 -0.38654,0.0701 -0.170532,0.0682 -0.305064,0.21411 -0.130741,0.14211 -0.204638,0.36001 -0.072,0.21601 -0.072,0.50023 0,0.29749 0.07958,0.5116 0.08148,0.21411 0.208428,0.34864 0.132637,0.14022 0.308853,0.20843 0.178112,0.0663 0.375172,0.0663 0.270957,0 0.507807,-0.0928 0.236851,-0.0928 0.443385,-0.27853 h 0.02653 z"
         id="path730" />
      <path
         d="m 35.580359,126.29264 h -0.356224 v -1.2051 q 0,-0.1459 -0.01705,-0.27285 -0.01705,-0.12884 -0.06253,-0.20085 -0.04737,-0.0796 -0.136426,-0.11747 -0.08906,-0.0398 -0.231166,-0.0398 -0.1459,0 -0.305064,0.072 -0.159164,0.072 -0.305064,0.18379 v 1.58027 h -0.356223 v -2.94832 h 0.356223 v 1.06678 q 0.166743,-0.13832 0.344855,-0.21601 0.178111,-0.0777 0.365697,-0.0777 0.34296,0 0.522966,0.20654 0.180007,0.20653 0.180007,0.59497 z"
         id="path732" />
      <path
         d="M 36.649028,123.82182 H 36.24733 v -0.36949 h 0.401698 z m -0.02274,2.47082 h -0.356223 v -2.1165 h 0.356223 z"
         id="path734" />
      <path
         d="m 39.100906,126.29264 h -0.356223 v -1.2051 q 0,-0.1459 -0.01705,-0.27285 -0.01705,-0.12884 -0.06253,-0.20085 -0.04737,-0.0796 -0.136426,-0.11747 -0.08906,-0.0398 -0.231166,-0.0398 -0.1459,0 -0.305064,0.072 -0.159163,0.072 -0.305063,0.18379 v 1.58027 H 37.33116 v -2.1165 h 0.356224 v 0.23496 q 0.166742,-0.13832 0.344854,-0.21601 0.178112,-0.0777 0.365697,-0.0777 0.34296,0 0.522966,0.20654 0.180007,0.20653 0.180007,0.59497 z"
         id="path736" />
      <path
         d="m 41.558467,125.27134 h -1.559424 q 0,0.19517 0.05874,0.34107 0.05874,0.144 0.161058,0.23685 0.09853,0.0909 0.233061,0.13642 0.136426,0.0455 0.299379,0.0455 0.216008,0 0.433911,-0.0853 0.219797,-0.0872 0.312642,-0.17053 h 0.01895 v 0.38843 q -0.180006,0.0758 -0.367592,0.12696 -0.187585,0.0512 -0.394119,0.0512 -0.526756,0 -0.822345,-0.28423 -0.29559,-0.28611 -0.29559,-0.81097 0,-0.51918 0.282326,-0.82424 0.284221,-0.30507 0.746553,-0.30507 0.428226,0 0.659392,0.25012 0.233061,0.25011 0.233061,0.71055 z m -0.346749,-0.27285 q -0.0019,-0.28043 -0.14211,-0.43391 -0.138321,-0.15348 -0.422542,-0.15348 -0.286115,0 -0.456648,0.16864 -0.168637,0.16863 -0.191375,0.41875 z"
         id="path738" />
      <path
         d="m 43.868234,126.29264 h -0.356223 v -1.2051 q 0,-0.1459 -0.01705,-0.27285 -0.01705,-0.12884 -0.06253,-0.20085 -0.04737,-0.0796 -0.136426,-0.11747 -0.08906,-0.0398 -0.231166,-0.0398 -0.1459,0 -0.305064,0.072 -0.159163,0.072 -0.305063,0.18379 v 1.58027 h -0.356223 v -2.1165 h 0.356223 v 0.23496 q 0.166743,-0.13832 0.344854,-0.21601 0.178112,-0.0777 0.365698,-0.0777 0.342959,0 0.522966,0.20654 0.180006,0.20653 0.180006,0.59497 z"
         id="path740" />
      <path
         d="m 46.308742,126.29264 h -0.356223 v -0.23496 q -0.180007,0.14212 -0.344855,0.21791 -0.164848,0.0758 -0.363802,0.0758 -0.333486,0 -0.519176,-0.20274 -0.185691,-0.20464 -0.185691,-0.59876 v -1.37374 h 0.356223 v 1.2051 q 0,0.16106 0.01516,0.27664 0.01516,0.11369 0.06442,0.19517 0.05116,0.0834 0.132636,0.12126 0.08148,0.0379 0.236851,0.0379 0.13832,0 0.301274,-0.072 0.164848,-0.072 0.306958,-0.1838 v -1.58027 h 0.356223 z"
         id="path742" />
      <path
         d="m 48.654511,126.29264 h -0.354328 v -0.22548 q -0.04737,0.0322 -0.128847,0.0909 -0.07958,0.0568 -0.155374,0.091 -0.08906,0.0436 -0.204639,0.072 -0.115583,0.0303 -0.270957,0.0303 -0.286116,0 -0.48507,-0.18948 -0.198955,-0.18948 -0.198955,-0.48318 0,-0.24064 0.10232,-0.38843 0.104214,-0.14969 0.295589,-0.23496 0.19327,-0.0853 0.464228,-0.11558 0.270957,-0.0303 0.581705,-0.0455 v -0.0549 q 0,-0.12127 -0.04358,-0.20085 -0.04169,-0.0796 -0.121267,-0.12506 -0.07579,-0.0436 -0.181902,-0.0587 -0.106109,-0.0152 -0.221692,-0.0152 -0.140215,0 -0.312643,0.0379 -0.172427,0.036 -0.356223,0.10611 h -0.01895 v -0.36191 q 0.104214,-0.0284 0.301274,-0.0625 0.19706,-0.0341 0.388435,-0.0341 0.223587,0 0.388435,0.0379 0.166743,0.036 0.28801,0.12506 0.119373,0.0872 0.181901,0.22548 0.06253,0.13832 0.06253,0.34296 z m -0.354328,-0.52107 v -0.58928 q -0.162954,0.009 -0.384646,0.0284 -0.219797,0.0189 -0.348644,0.0549 -0.153479,0.0436 -0.248219,0.13642 -0.09474,0.091 -0.09474,0.25201 0,0.1819 0.109898,0.27475 0.109899,0.091 0.335381,0.091 0.187585,0 0.342959,-0.072 0.155374,-0.0739 0.288011,-0.17622 z"
         id="path744" />
      <path
         d="M 49.700443,126.29264 H 49.34422 v -2.94832 h 0.356223 z"
         id="path746" />
    </g>
    <g
       transform="scale(0.26458333)"
       id="text893"
       style="font-size:10.6667px;-inkscape-font-specification:'sans-serif, Normal';white-space:pre;shape-inside:url(#rect895);fill:#ffd556" />
    <g
       transform="scale(0.26458333)"
       id="text1852"
       style="font-size:8.00001px;-inkscape-font-specification:'sans-serif, Normal';white-space:pre;shape-inside:url(#rect1854);fill:#af83f8" />
    <g
       aria-label="RUN"
       id="text9484"
       style="font-weight:bold;font-size:2.82222px;-inkscape-font-specification:'sans-serif, Bold';display:none;fill:#ffd456;stroke-width:0.22;paint-order:markers stroke fill"
       transform="translate(1.2050825,-9.8816763)">
      <path
         d="m 5.9701682,35.813537 q 0,-0.07717 -0.031695,-0.132292 -0.031695,-0.05512 -0.108865,-0.08682 -0.053743,-0.02205 -0.1254014,-0.02618 -0.071658,-0.0055 -0.1667425,-0.0055 H 5.3459174 v 0.552593 h 0.1626084 q 0.1267794,0 0.2122177,-0.0124 0.085438,-0.0124 0.1433158,-0.0565 0.055122,-0.04272 0.079926,-0.09371 0.026183,-0.05236 0.026183,-0.139181 z m 0.8254443,1.423512 H 6.149313 L 5.58983,36.484641 H 5.3459174 v 0.752408 H 4.8195072 v -2.051897 h 0.8874559 q 0.1819009,0 0.3128144,0.02067 0.1309136,0.02067 0.2452907,0.08957 0.1157551,0.0689 0.1832789,0.179145 0.068902,0.108865 0.068902,0.274229 0,0.227376 -0.1061089,0.370692 -0.1047308,0.143316 -0.3004121,0.2384 z"
         id="path9518" />
      <path
         d="m 8.8240832,36.494287 q 0,0.380338 -0.2315102,0.58291 -0.2315102,0.202571 -0.6821284,0.202571 -0.4506181,0 -0.6821284,-0.202571 Q 6.998184,36.874625 6.998184,36.495665 v -1.310513 h 0.5319224 v 1.280196 q 0,0.213596 0.089572,0.318327 0.089572,0.104731 0.2907658,0.104731 0.1984374,0 0.2893878,-0.100597 0.092329,-0.100597 0.092329,-0.322461 v -1.280196 h 0.5319223 z"
         id="path9520" />
      <path
         d="M 11.184661,37.237049 H 10.674787 L 9.8038677,35.828695 v 1.408354 H 9.3187986 v -2.051897 h 0.6325191 l 0.7482743,1.175465 v -1.175465 h 0.485069 z"
         id="path9522" />
    </g>
    <path
       style="fill:#222222;fill-opacity:1;stroke-width:0.22;paint-order:markers stroke fill"
       id="path938"
       width="11.448285"
       height="10.845741"
       x="6.2664294"
       y="110.61346"
       inkscape:path-effect="#path-effect942"
       d="m 9.2664294,110.61346 h 5.4482856 a 3,3 45 0 1 3,3 v 4.84574 a 3,3 135 0 1 -3,3 H 9.2664294 a 3,3 45 0 1 -3,-3 v -4.84574 a 3,3 135 0 1 3,-3 z"
       sodipodi:type="rect" />
    <path
       style="display:inline;fill:#222222;fill-opacity:1;stroke-width:0.22;paint-order:markers stroke fill"
       id="path938-4"
       width="11.448285"
       height="10.845741"
       x="21.128304"
       y="110.61346"
       inkscape:path-effect="#path-effect942-8"
       d="m 24.128304,110.61346 h 5.448285 a 3,3 45 0 1 3,3 v 4.84574 a 3,3 135 0 1 -3,3 h -5.448285 a 3,3 45 0 1 -3,-3 v -4.84574 a 3,3 135 0 1 3,-3 z"
       sodipodi:type="rect" />
    <text
       xml:space="preserve"
       style="font-weight:bold;font-size:2.82223px;font-family:sans-serif;-inkscape-font-specification:'sans-serif, Bold';fill:#222222;fill-opacity:1;stroke-width:0.22;paint-order:markers stroke fill"
       x="20.124878"
       y="30.850111"
       id="text2032"><tspan
         sodipodi:role="line"
         id="tspan2030"
         style="stroke-width:0.22"
         x="20.124878"
         y="30.850111" /></text>
    <text
       xml:space="preserve"
       style="font-weight:bold;font-size:3.88056px;font-family:sans-serif;-inkscape-font-specification:'sans-serif, Bold';display:inline;fill:#ffd556;stroke-width:0.22;paint-order:markers stroke fill;font-style:normal;font-stretch:normal;font-variant:normal;font-variant-ligatures:normal;font-variant-caps:normal;font-variant-numeric:normal;font-variant-east-asian:normal"
       x="5.5333171"
       y="17.381723"
       id="text1759-6"><tspan
         sodipodi:role="line"
         id="tspan1996">DrumMap</tspan></text>
    <g
       aria-label="DrumMap"
       id="text1759-6-0"
       style="font-weight:bold;font-size:3.88056px;-inkscape-font-specification:'sans-serif, Bold';display:inline;fill:#ffd556;stroke-width:0.22;paint-order:markers stroke fill"
       transform="translate(0,0.52916667)">
      <path
         d="m 12.795201,3.5892839 q 0,0.3941193 -0.180006,0.7067621 -0.180006,0.310748 -0.454753,0.4774908 -0.206534,0.1250571 -0.452858,0.174322 -0.246325,0.049265 -0.5836,0.049265 H 10.129211 V 2.1757596 h 1.023195 q 0.344854,0 0.594968,0.058739 0.250115,0.056844 0.420647,0.1629532 0.2918,0.1781117 0.458543,0.4812804 0.168637,0.301274 0.168637,0.7105517 z m -0.752237,-0.00568 q 0,-0.2785363 -0.102319,-0.475596 Q 11.84022,2.909049 11.620423,2.7972555 11.508629,2.7423062 11.391151,2.7233581 11.275568,2.7025153 11.040612,2.7025153 h -0.183796 v 1.7659579 h 0.183796 q 0.259589,0 0.380856,-0.022738 0.121268,-0.024633 0.236851,-0.087161 0.198954,-0.1136883 0.2918,-0.3031688 0.09284,-0.1913753 0.09284,-0.4718063 z"
         id="path2025" />
      <path
         d="m 14.854854,3.5191761 h -0.06063 q -0.04358,-0.015158 -0.140215,-0.022738 -0.09663,-0.00758 -0.161059,-0.00758 -0.1459,0 -0.257693,0.018948 -0.111794,0.018948 -0.24064,0.064423 v 1.4248931 h -0.68213 V 2.8692581 h 0.68213 v 0.3126428 q 0.225481,-0.1932701 0.392224,-0.2557987 0.166743,-0.064423 0.306959,-0.064423 0.036,0 0.08148,0.00189 0.04548,0.00189 0.07958,0.00568 z"
         id="path2027" />
      <path
         d="M 17.36168,4.9971237 H 16.679551 V 4.7621679 q -0.189481,0.1440052 -0.34675,0.2197974 -0.157268,0.073897 -0.375171,0.073897 -0.352434,0 -0.543809,-0.2027441 -0.18948,-0.2027441 -0.18948,-0.5987583 V 2.8692581 h 0.685919 v 1.0554062 q 0,0.1610584 0.0095,0.2690622 0.01137,0.1061091 0.04927,0.1762169 0.036,0.070108 0.108004,0.1023194 0.0739,0.032212 0.204639,0.032212 0.08716,0 0.19327,-0.032212 0.106109,-0.032212 0.204639,-0.09474 V 2.8692581 h 0.682129 z"
         id="path2029" />
      <path
         d="M 20.08641,3.4888592 V 4.9971237 H 19.40049 V 3.9341383 q 0,-0.155374 -0.0076,-0.2633778 -0.0076,-0.1098987 -0.04169,-0.1781117 -0.03411,-0.068213 -0.104214,-0.09853 -0.06821,-0.032212 -0.19327,-0.032212 -0.100425,0 -0.195165,0.041686 -0.09474,0.039791 -0.170532,0.085266 v 1.5082645 h -0.68213 V 2.8692581 h 0.68213 v 0.2349558 q 0.176217,-0.1383208 0.337275,-0.2160078 0.161058,-0.077687 0.356223,-0.077687 0.210324,0 0.371382,0.09474 0.161058,0.092845 0.252009,0.2747467 0.204639,-0.1724273 0.397909,-0.2709571 0.19327,-0.09853 0.378961,-0.09853 0.344854,0 0.522966,0.2065337 0.180006,0.2065337 0.180006,0.5949686 V 4.9971237 H 20.798856 V 3.9341383 q 0,-0.1572688 -0.0076,-0.2652726 -0.0057,-0.1080039 -0.03979,-0.1762169 -0.03221,-0.068213 -0.102319,-0.09853 -0.07011,-0.032212 -0.19706,-0.032212 -0.08527,0 -0.166743,0.030317 -0.08148,0.028422 -0.198954,0.096635 z"
         id="path2031" />
      <path
         d="M 25.107642,4.9971237 H 24.383826 V 3.1080035 L 23.86086,4.3339421 H 23.358737 L 22.835771,3.1080035 V 4.9971237 H 22.149852 V 2.1757596 h 0.845083 l 0.634759,1.4154191 0.632865,-1.4154191 h 0.845083 z"
         id="path2033" />
      <path
         d="M 27.078239,4.441946 V 3.9985617 q -0.138321,0.011369 -0.299379,0.032212 -0.161058,0.018948 -0.24443,0.045475 -0.102319,0.032212 -0.157269,0.09474 -0.05305,0.060634 -0.05305,0.1610584 0,0.066318 0.01137,0.1080039 0.01137,0.041686 0.05684,0.079582 0.04358,0.037896 0.104214,0.056844 0.06063,0.017053 0.189481,0.017053 0.102319,0 0.206533,-0.041686 0.106109,-0.041686 0.185691,-0.1098986 z m 0,0.329696 q -0.05495,0.041686 -0.136426,0.1004246 -0.08148,0.058739 -0.153479,0.092845 -0.100425,0.045475 -0.208428,0.066318 -0.108004,0.022738 -0.236851,0.022738 -0.303169,0 -0.507808,-0.1875857 -0.204639,-0.1875857 -0.204639,-0.4793856 0,-0.233061 0.104215,-0.3808557 0.104214,-0.1477948 0.295589,-0.233061 0.189481,-0.085266 0.469912,-0.1212675 0.280431,-0.036001 0.581705,-0.053055 v -0.011369 q 0,-0.1762169 -0.144005,-0.242535 -0.144006,-0.068213 -0.424437,-0.068213 -0.168637,0 -0.360013,0.060634 -0.191375,0.058739 -0.274746,0.090951 h -0.06253 V 2.9147334 q 0.108004,-0.028422 0.350539,-0.066318 0.24443,-0.039791 0.48886,-0.039791 0.581705,0 0.839398,0.1800065 0.259588,0.1781116 0.259588,0.5608622 v 1.4476307 h -0.676445 z"
         id="path2035" />
      <path
         d="m 30.602576,3.9038214 q 0,0.2633779 -0.08148,0.4793856 -0.07958,0.2160077 -0.210323,0.3562233 -0.136426,0.1477947 -0.308854,0.2235869 -0.172427,0.075792 -0.369486,0.075792 -0.181902,0 -0.308854,-0.039791 -0.126952,-0.037896 -0.259588,-0.1080038 v 0.8867685 h -0.68213 V 2.8692581 h 0.68213 v 0.2216921 q 0.157269,-0.1250571 0.320222,-0.2027441 0.164848,-0.077687 0.378961,-0.077687 0.397909,0 0.617706,0.2917999 0.221692,0.2917999 0.221692,0.8015023 z m -0.702972,0.013264 q 0,-0.310748 -0.106109,-0.4509635 -0.106109,-0.1402156 -0.335381,-0.1402156 -0.09663,0 -0.198954,0.030317 -0.102319,0.028422 -0.195165,0.083371 v 1.0705646 q 0.06821,0.026527 0.1459,0.034106 0.07769,0.00758 0.153479,0.00758 0.270957,0 0.403594,-0.1572688 0.132636,-0.1591636 0.132636,-0.4774907 z"
         id="path2037" />
    </g>
  </g>
  <g
     id="layer2"
     inkscape:label="components"
     style="display:none"
     transform="translate(-10.16)"
     inkscape:groupmode="layer"
     sodipodi:insensitive="true">
    <circle
       style="fill:#0000ff;fill-opacity:1;stroke-width:0.0642894"
       id="path930"
       cx="20.32"
       cy="65.048264"
       r="2.54"
       inkscape:label="output example" />
    <circle
       style="fill:#00ff00;fill-opacity:1;stroke-width:0.0642894"
       id="circle28"
       cx="20.32"
       cy="46.498661"
       r="2.54"
       inkscape:label="input example" />
    <circle
       style="fill:#ff0000;fill-opacity:1;stroke-width:0.0642894"
       id="circle932"
       cx="20.32"
       cy="27.949057"
       r="2.54"
       inkscape:label="param example" />
    <circle
       style="fill:#ff00ff;fill-opacity:1;stroke-width:0.0642894"
       id="circle985"
       cx="20.32"
       cy="86.21492"
       r="2.54"
       inkscape:label="light example" />
  </g>
</svg>
