<?xml version="1.0" encoding="UTF-8" standalone="no"?>
<svg
   width="15.24mm"
   height="128.5mm"
   viewBox="0 0 15.24 128.5"
   version="1.1"
   id="svg8"
   inkscape:version="1.2.2 (b0a84865, 2022-12-01)"
   sodipodi:docname="Harp.svg"
   xmlns:inkscape="http://www.inkscape.org/namespaces/inkscape"
   xmlns:sodipodi="http://sodipodi.sourceforge.net/DTD/sodipodi-0.dtd"
   xmlns="http://www.w3.org/2000/svg"
   xmlns:svg="http://www.w3.org/2000/svg"
   xmlns:rdf="http://www.w3.org/1999/02/22-rdf-syntax-ns#"
   xmlns:cc="http://creativecommons.org/ns#"
   xmlns:dc="http://purl.org/dc/elements/1.1/">
  <defs
     id="defs2">
    <inkscape:path-effect
       effect="fillet_chamfer"
       id="path-effect419"
       is_visible="true"
       lpeversion="1"
       nodesatellites_param="F,0,0,1,0,3,0,1 @ F,0,0,1,0,3,0,1 @ F,0,0,1,0,3,0,1 @ F,0,0,1,0,3,0,1"
       unit="mm"
       method="auto"
       mode="F"
       radius="3"
       chamfer_steps="1"
       flexible="false"
       use_knot_distance="true"
       apply_no_radius="true"
       apply_with_radius="true"
       only_selected="false"
       hide_knots="false" />
    <inkscape:path-effect
       effect="fillet_chamfer"
       id="path-effect942"
       is_visible="true"
       lpeversion="1"
       nodesatellites_param="F,0,0,1,0,3,0,1 @ F,0,0,1,0,3,0,1 @ F,0,0,1,0,3,0,1 @ F,0,0,1,0,3,0,1"
       unit="mm"
       method="auto"
       mode="F"
       radius="3"
       chamfer_steps="1"
       flexible="false"
       use_knot_distance="true"
       apply_no_radius="true"
       apply_with_radius="true"
       only_selected="false"
       hide_knots="false" />
    <inkscape:path-effect
       effect="fillet_chamfer"
       id="path-effect10104"
       is_visible="true"
       lpeversion="1"
       nodesatellites_param="F,0,0,1,0,2,0,1 @ F,0,0,1,0,2,0,1 @ F,0,0,1,0,2,0,1 @ F,0,0,1,0,2,0,1"
       unit="mm"
       method="auto"
       mode="F"
       radius="2"
       chamfer_steps="1"
       flexible="false"
       use_knot_distance="true"
       apply_no_radius="true"
       apply_with_radius="true"
       only_selected="false"
       hide_knots="false" />
    <rect
       x="130.26277"
       y="65.586853"
       width="64.675926"
       height="17.30764"
       id="rect1854" />
    <rect
       x="22.773212"
       y="117.50977"
       width="10.931142"
       height="11.84207"
       id="rect895" />
    <inkscape:path-effect
       effect="fillet_chamfer"
       id="path-effect942-8"
       is_visible="true"
       lpeversion="1"
       nodesatellites_param="F,0,0,1,0,3,0,1 @ F,0,0,1,0,3,0,1 @ F,0,0,1,0,3,0,1 @ F,0,0,1,0,3,0,1"
       unit="mm"
       method="auto"
       mode="F"
       radius="3"
       chamfer_steps="1"
       flexible="false"
       use_knot_distance="true"
       apply_no_radius="true"
       apply_with_radius="true"
       only_selected="false"
       hide_knots="false" />
  </defs>
  <sodipodi:namedview
     id="base"
     pagecolor="#ffffff"
     bordercolor="#666666"
     borderopacity="1.0"
     inkscape:pageopacity="0.0"
     inkscape:pageshadow="2"
     inkscape:zoom="2.195562"
     inkscape:cx="-161.68981"
     inkscape:cy="243.67337"
     inkscape:document-units="mm"
     inkscape:current-layer="layer1"
     inkscape:document-rotation="0"
     showgrid="true"
     inkscape:showpageshadow="false"
     inkscape:window-width="1615"
     inkscape:window-height="1442"
     inkscape:window-x="50"
     inkscape:window-y="159"
     inkscape:window-maximized="0"
     inkscape:pagecheckerboard="0"
     width="20.32mm"
     inkscape:deskcolor="#d1d1d1">
    <inkscape:grid
       type="xygrid"
       id="grid3456"
       originx="0"
       originy="0" />
  </sodipodi:namedview>
  <metadata
     id="metadata5">
    <rdf:RDF>
      <cc:Work
         rdf:about="">
        <dc:format>image/svg+xml</dc:format>
        <dc:type
           rdf:resource="http://purl.org/dc/dcmitype/StillImage" />
      </cc:Work>
    </rdf:RDF>
  </metadata>
  <g
     inkscape:label="panel"
     inkscape:groupmode="layer"
     id="layer1"
     style="display:inline">
    <g
       aria-label="Pitch"
       id="text496"
       style="font-weight:bold;font-size:2.82222px;-inkscape-font-specification:'sans-serif, Bold';display:inline;fill:#ffd556;stroke-width:0.22;paint-order:markers stroke fill">
      <path
         d="m 5.3880593,43.767781 q 0,0.137804 -0.048231,0.270095 -0.048231,0.130914 -0.1378037,0.220486 -0.1226453,0.121268 -0.2742294,0.183279 -0.1502061,0.06201 -0.3748261,0.06201 H 4.2236179 v 0.668348 H 3.6944516 v -2.051897 h 0.8709195 q 0.1956813,0 0.3293509,0.03445 0.1350476,0.03307 0.2384004,0.100597 0.1240234,0.0813 0.1887911,0.208084 0.066146,0.126779 0.066146,0.304546 z m -0.5470808,0.0124 q 0,-0.08682 -0.046853,-0.148828 -0.046853,-0.06339 -0.108865,-0.08819 -0.082682,-0.03307 -0.1612303,-0.03583 -0.078548,-0.0041 -0.2094616,-0.0041 h -0.09095 v 0.614604 H 4.375202 q 0.1350476,0 0.221864,-0.01654 0.088194,-0.01654 0.1474499,-0.06615 0.050987,-0.0441 0.073036,-0.104731 0.023427,-0.06201 0.023427,-0.150206 z"
         id="path501" />
      <path
         d="M 6.231418,45.172001 H 5.7353247 V 43.624465 H 6.231418 Z m 0.01378,-1.768022 H 5.7215443 v -0.376204 h 0.5236541 z"
         id="path503" />
      <path
         d="m 7.6893814,45.158221 q -0.079926,0.02067 -0.1694986,0.03169 -0.089572,0.0124 -0.2191079,0.0124 -0.2893878,0 -0.4313256,-0.117133 -0.1405598,-0.117134 -0.1405598,-0.401009 v -0.72347 H 6.52494 v -0.336241 h 0.2039495 v -0.44235 h 0.4960934 v 0.44235 h 0.4643985 v 0.336241 H 7.2249829 v 0.548459 q 0,0.0813 0.00138,0.141938 0.00138,0.06063 0.022049,0.108865 0.019292,0.04823 0.067524,0.07717 0.049609,0.02756 0.1433159,0.02756 0.038585,0 0.1005967,-0.01654 0.06339,-0.01654 0.088194,-0.03032 h 0.041341 z"
         id="path506" />
      <path
         d="m 8.7918111,45.213342 q -0.2025714,0 -0.370692,-0.04823 -0.1667425,-0.04823 -0.2907658,-0.148828 -0.1226453,-0.100597 -0.1901691,-0.253559 -0.067524,-0.152962 -0.067524,-0.35829 0,-0.216352 0.071658,-0.373448 0.073036,-0.157096 0.2025714,-0.260449 0.1254014,-0.09784 0.2893878,-0.143316 0.1639865,-0.04547 0.3403752,-0.04547 0.1584743,0 0.2921439,0.03445 0.1336696,0.03445 0.2494247,0.08957 v 0.423058 h -0.07028 q -0.028939,-0.02481 -0.07028,-0.05788 -0.039963,-0.03307 -0.099219,-0.06477 -0.0565,-0.03032 -0.1240234,-0.04961 -0.067524,-0.02067 -0.1570962,-0.02067 -0.1984374,0 -0.3059243,0.126779 -0.1061088,0.125401 -0.1061088,0.341753 0,0.223242 0.1088649,0.338997 0.110243,0.115755 0.3114364,0.115755 0.093706,0 0.1681205,-0.02067 0.075792,-0.02205 0.1254014,-0.05099 0.046853,-0.02756 0.082682,-0.05788 0.035829,-0.03032 0.066146,-0.05926 h 0.07028 v 0.423058 q -0.1171331,0.05512 -0.2452906,0.08682 -0.1267794,0.03307 -0.2811196,0.03307 z"
         id="path508" />
      <path
         d="m 11.20062,45.172001 h -0.498849 v -0.767567 q 0,-0.09371 -0.0096,-0.186035 -0.0096,-0.09371 -0.03307,-0.137804 -0.02756,-0.05099 -0.08131,-0.07441 -0.05236,-0.02343 -0.14745,-0.02343 -0.06752,0 -0.137803,0.02205 -0.0689,0.02205 -0.150206,0.07028 v 1.096918 H 9.6461943 v -2.144226 h 0.4960937 v 0.767567 q 0.132291,-0.103353 0.253558,-0.158475 0.122646,-0.05512 0.271474,-0.05512 0.250803,0 0.391362,0.146072 0.141938,0.146072 0.141938,0.436838 z"
         id="path510" />
    </g>
    <path
       id="rect11"
       style="fill:#333333;fill-rule:evenodd;stroke-width:1.66195"
       inkscape:label="background"
       d="M -2.7865576,-0.24101638 H 18.153359 V 129.10254 H -2.7865576 Z" />
    <g
       transform="scale(0.26458333)"
       id="text893"
       style="font-size:10.6667px;-inkscape-font-specification:'sans-serif, Normal';white-space:pre;shape-inside:url(#rect895);fill:#ffd556" />
    <g
       transform="scale(0.26458333)"
       id="text1852"
       style="font-size:8.00001px;-inkscape-font-specification:'sans-serif, Normal';white-space:pre;shape-inside:url(#rect1854);fill:#af83f8" />
    <g
       aria-label="RUN"
       id="text9484"
       style="font-weight:bold;font-size:2.82222px;-inkscape-font-specification:'sans-serif, Bold';display:none;fill:#ffd456;stroke-width:0.22;paint-order:markers stroke fill"
       transform="translate(1.2050825,-9.8816763)">
      <path
         d="m 5.9701682,35.813537 q 0,-0.07717 -0.031695,-0.132292 -0.031695,-0.05512 -0.108865,-0.08682 -0.053743,-0.02205 -0.1254014,-0.02618 -0.071658,-0.0055 -0.1667425,-0.0055 H 5.3459174 v 0.552593 h 0.1626084 q 0.1267794,0 0.2122177,-0.0124 0.085438,-0.0124 0.1433158,-0.0565 0.055122,-0.04272 0.079926,-0.09371 0.026183,-0.05236 0.026183,-0.139181 z m 0.8254443,1.423512 H 6.149313 L 5.58983,36.484641 H 5.3459174 v 0.752408 H 4.8195072 v -2.051897 h 0.8874559 q 0.1819009,0 0.3128144,0.02067 0.1309136,0.02067 0.2452907,0.08957 0.1157551,0.0689 0.1832789,0.179145 0.068902,0.108865 0.068902,0.274229 0,0.227376 -0.1061089,0.370692 -0.1047308,0.143316 -0.3004121,0.2384 z"
         id="path9518" />
      <path
         d="m 8.8240832,36.494287 q 0,0.380338 -0.2315102,0.58291 -0.2315102,0.202571 -0.6821284,0.202571 -0.4506181,0 -0.6821284,-0.202571 Q 6.998184,36.874625 6.998184,36.495665 v -1.310513 h 0.5319224 v 1.280196 q 0,0.213596 0.089572,0.318327 0.089572,0.104731 0.2907658,0.104731 0.1984374,0 0.2893878,-0.100597 0.092329,-0.100597 0.092329,-0.322461 v -1.280196 h 0.5319223 z"
         id="path9520" />
      <path
         d="M 11.184661,37.237049 H 10.674787 L 9.8038677,35.828695 v 1.408354 H 9.3187986 v -2.051897 h 0.6325191 l 0.7482743,1.175465 v -1.175465 h 0.485069 z"
         id="path9522" />
    </g>
    <path
       style="fill:#222222;fill-opacity:1;stroke-width:0.22;paint-order:markers stroke fill"
       id="path938"
       width="11.448285"
       height="10.845741"
       x="1.8958573"
       y="89.503616"
       inkscape:path-effect="#path-effect942"
       d="m 4.8958573,89.503616 h 5.4482847 a 3,3 45 0 1 3,3 v 4.845742 a 3,3 135 0 1 -3,3.000002 H 4.8958573 a 3,3 45 0 1 -3,-3.000002 v -4.845742 a 3,3 135 0 1 3,-3 z"
       sodipodi:type="rect" />
    <path
       style="display:inline;fill:#222222;fill-opacity:1;stroke-width:0.22;paint-order:markers stroke fill"
       id="path938-4"
       width="11.448285"
       height="10.845741"
       x="1.8958573"
       y="104.46754"
       inkscape:path-effect="#path-effect942-8"
       d="m 4.8958573,104.46754 h 5.4482847 a 3,3 45 0 1 3,3 v 4.84574 a 3,3 135 0 1 -3,3 H 4.8958573 a 3,3 45 0 1 -3,-3 v -4.84574 a 3,3 135 0 1 3,-3 z"
       sodipodi:type="rect" />
    <text
       xml:space="preserve"
       style="font-weight:bold;font-size:2.82223px;font-family:sans-serif;-inkscape-font-specification:'sans-serif, Bold';fill:#222222;fill-opacity:1;stroke-width:0.22;paint-order:markers stroke fill"
       x="20.124878"
       y="30.850111"
       id="text2032"><tspan
         sodipodi:role="line"
         id="tspan2030"
         style="stroke-width:0.22"
         x="20.124878"
         y="30.850111" /></text>
    <text
       xml:space="preserve"
       style="font-style:normal;font-variant:normal;font-weight:bold;font-stretch:normal;font-size:3.88056px;font-family:sans-serif;-inkscape-font-specification:'sans-serif, Bold';font-variant-ligatures:normal;font-variant-caps:normal;font-variant-numeric:normal;font-variant-east-asian:normal;display:inline;fill:#ffd556;stroke-width:0.22;paint-order:markers stroke fill"
       x="10.52809"
       y="-23.001877"
       id="text610"
       transform="rotate(90)"><tspan
         sodipodi:role="line"
         id="tspan608"
         x="10.52809"
         y="-23.001877">Tintinnabulator</tspan></text>
    <g
       aria-label="Chinenual"
       id="text624"
       style="font-size:3.88056px;-inkscape-font-specification:'sans-serif, Normal';fill:#ffd556;stroke-width:0.264583"
       transform="translate(-28.565168,-6.8689722)">
      <path
         d="m 33.308488,126.088 q -0.104214,0.0455 -0.189481,0.0853 -0.08337,0.0398 -0.219797,0.0834 -0.115583,0.036 -0.252009,0.0606 -0.134531,0.0265 -0.297484,0.0265 -0.306959,0 -0.558968,-0.0853 -0.250114,-0.0872 -0.435805,-0.27095 -0.181901,-0.18001 -0.28422,-0.45665 -0.10232,-0.27854 -0.10232,-0.64613 0,-0.34864 0.09853,-0.62339 0.09853,-0.27475 0.284221,-0.46423 0.180006,-0.18379 0.43391,-0.28043 0.255799,-0.0966 0.566547,-0.0966 0.227376,0 0.452858,0.055 0.227376,0.0549 0.504018,0.19327 v 0.44528 h -0.02842 q -0.233061,-0.19517 -0.462332,-0.28423 -0.229272,-0.0891 -0.490755,-0.0891 -0.214113,0 -0.38654,0.0701 -0.170532,0.0682 -0.305064,0.21411 -0.130741,0.14211 -0.204638,0.36001 -0.072,0.21601 -0.072,0.50023 0,0.29749 0.07958,0.5116 0.08148,0.21411 0.208428,0.34864 0.132637,0.14022 0.308853,0.20843 0.178112,0.0663 0.375172,0.0663 0.270957,0 0.507807,-0.0928 0.236851,-0.0928 0.443385,-0.27853 h 0.02653 z"
         id="path730" />
      <path
         d="m 35.580359,126.29264 h -0.356224 v -1.2051 q 0,-0.1459 -0.01705,-0.27285 -0.01705,-0.12884 -0.06253,-0.20085 -0.04737,-0.0796 -0.136426,-0.11747 -0.08906,-0.0398 -0.231166,-0.0398 -0.1459,0 -0.305064,0.072 -0.159164,0.072 -0.305064,0.18379 v 1.58027 h -0.356223 v -2.94832 h 0.356223 v 1.06678 q 0.166743,-0.13832 0.344855,-0.21601 0.178111,-0.0777 0.365697,-0.0777 0.34296,0 0.522966,0.20654 0.180007,0.20653 0.180007,0.59497 z"
         id="path732" />
      <path
         d="M 36.649028,123.82182 H 36.24733 v -0.36949 h 0.401698 z m -0.02274,2.47082 h -0.356223 v -2.1165 h 0.356223 z"
         id="path734" />
      <path
         d="m 39.100906,126.29264 h -0.356223 v -1.2051 q 0,-0.1459 -0.01705,-0.27285 -0.01705,-0.12884 -0.06253,-0.20085 -0.04737,-0.0796 -0.136426,-0.11747 -0.08906,-0.0398 -0.231166,-0.0398 -0.1459,0 -0.305064,0.072 -0.159163,0.072 -0.305063,0.18379 v 1.58027 H 37.33116 v -2.1165 h 0.356224 v 0.23496 q 0.166742,-0.13832 0.344854,-0.21601 0.178112,-0.0777 0.365697,-0.0777 0.34296,0 0.522966,0.20654 0.180007,0.20653 0.180007,0.59497 z"
         id="path736" />
      <path
         d="m 41.558467,125.27134 h -1.559424 q 0,0.19517 0.05874,0.34107 0.05874,0.144 0.161058,0.23685 0.09853,0.0909 0.233061,0.13642 0.136426,0.0455 0.299379,0.0455 0.216008,0 0.433911,-0.0853 0.219797,-0.0872 0.312642,-0.17053 h 0.01895 v 0.38843 q -0.180006,0.0758 -0.367592,0.12696 -0.187585,0.0512 -0.394119,0.0512 -0.526756,0 -0.822345,-0.28423 -0.29559,-0.28611 -0.29559,-0.81097 0,-0.51918 0.282326,-0.82424 0.284221,-0.30507 0.746553,-0.30507 0.428226,0 0.659392,0.25012 0.233061,0.25011 0.233061,0.71055 z m -0.346749,-0.27285 q -0.0019,-0.28043 -0.14211,-0.43391 -0.138321,-0.15348 -0.422542,-0.15348 -0.286115,0 -0.456648,0.16864 -0.168637,0.16863 -0.191375,0.41875 z"
         id="path738" />
    </g>
    <g
       aria-label="Chinenual"
       id="g829"
       style="font-size:3.88056px;-inkscape-font-specification:'sans-serif, Normal';fill:#ffd556;stroke-width:0.264583"
       transform="translate(-38.201197,-3.6886246)">
      <path
         d="m 43.868234,126.29264 h -0.356223 v -1.2051 q 0,-0.1459 -0.01705,-0.27285 -0.01705,-0.12884 -0.06253,-0.20085 -0.04737,-0.0796 -0.136426,-0.11747 -0.08906,-0.0398 -0.231166,-0.0398 -0.1459,0 -0.305064,0.072 -0.159163,0.072 -0.305063,0.18379 v 1.58027 h -0.356223 v -2.1165 h 0.356223 v 0.23496 q 0.166743,-0.13832 0.344854,-0.21601 0.178112,-0.0777 0.365698,-0.0777 0.342959,0 0.522966,0.20654 0.180006,0.20653 0.180006,0.59497 z"
         id="path821" />
      <path
         d="m 46.308742,126.29264 h -0.356223 v -0.23496 q -0.180007,0.14212 -0.344855,0.21791 -0.164848,0.0758 -0.363802,0.0758 -0.333486,0 -0.519176,-0.20274 -0.185691,-0.20464 -0.185691,-0.59876 v -1.37374 h 0.356223 v 1.2051 q 0,0.16106 0.01516,0.27664 0.01516,0.11369 0.06442,0.19517 0.05116,0.0834 0.132636,0.12126 0.08148,0.0379 0.236851,0.0379 0.13832,0 0.301274,-0.072 0.164848,-0.072 0.306958,-0.1838 v -1.58027 h 0.356223 z"
         id="path823" />
      <path
         d="m 48.654511,126.29264 h -0.354328 v -0.22548 q -0.04737,0.0322 -0.128847,0.0909 -0.07958,0.0568 -0.155374,0.091 -0.08906,0.0436 -0.204639,0.072 -0.115583,0.0303 -0.270957,0.0303 -0.286116,0 -0.48507,-0.18948 -0.198955,-0.18948 -0.198955,-0.48318 0,-0.24064 0.10232,-0.38843 0.104214,-0.14969 0.295589,-0.23496 0.19327,-0.0853 0.464228,-0.11558 0.270957,-0.0303 0.581705,-0.0455 v -0.0549 q 0,-0.12127 -0.04358,-0.20085 -0.04169,-0.0796 -0.121267,-0.12506 -0.07579,-0.0436 -0.181902,-0.0587 -0.106109,-0.0152 -0.221692,-0.0152 -0.140215,0 -0.312643,0.0379 -0.172427,0.036 -0.356223,0.10611 h -0.01895 v -0.36191 q 0.104214,-0.0284 0.301274,-0.0625 0.19706,-0.0341 0.388435,-0.0341 0.223587,0 0.388435,0.0379 0.166743,0.036 0.28801,0.12506 0.119373,0.0872 0.181901,0.22548 0.06253,0.13832 0.06253,0.34296 z m -0.354328,-0.52107 v -0.58928 q -0.162954,0.009 -0.384646,0.0284 -0.219797,0.0189 -0.348644,0.0549 -0.153479,0.0436 -0.248219,0.13642 -0.09474,0.091 -0.09474,0.25201 0,0.1819 0.109898,0.27475 0.109899,0.091 0.335381,0.091 0.187585,0 0.342959,-0.072 0.155374,-0.0739 0.288011,-0.17622 z"
         id="path825" />
      <path
         d="M 49.700443,126.29264 H 49.34422 v -2.94832 h 0.356223 z"
         id="path827" />
    </g>
    <text
       xml:space="preserve"
       style="font-style:normal;font-variant:normal;font-weight:bold;font-stretch:normal;font-size:2.82222px;font-family:sans-serif;-inkscape-font-specification:'sans-serif, Bold';font-variant-ligatures:normal;font-variant-caps:normal;font-variant-numeric:normal;font-variant-east-asian:normal;display:inline;fill:#ffd556;stroke-width:0.22;paint-order:markers stroke fill"
       x="-10.681708"
       y="99.762238"
       id="text898"><tspan
         sodipodi:role="line"
         id="tspan591">V/Oct</tspan></text>
    <g
       aria-label="Harp "
       id="text620"
       style="font-weight:bold;font-size:3.88056px;-inkscape-font-specification:'sans-serif, Bold';display:inline;fill:#ffd556;stroke-width:0.22;paint-order:markers stroke fill">
      <path
         d="M 5.2511286,7.7410641 H 4.5235236 V 6.4980722 H 3.4491694 V 7.7410641 H 2.7215644 V 4.9196999 h 0.727605 V 5.9523685 H 4.5235236 V 4.9196999 h 0.727605 z"
         id="path505" />
      <path
         d="M 7.2217254,7.1858863 V 6.742502 q -0.1383207,0.011369 -0.2993791,0.032212 -0.1610584,0.018948 -0.2444298,0.045475 -0.1023195,0.032212 -0.1572688,0.09474 -0.053055,0.060634 -0.053055,0.1610584 0,0.066318 0.011369,0.1080039 0.011369,0.041686 0.056844,0.079582 0.043581,0.037896 0.1042143,0.056844 0.060634,0.017053 0.1894804,0.017053 0.1023195,0 0.2065337,-0.041686 0.1061091,-0.041686 0.1856909,-0.1098987 z m 0,0.329696 q -0.054949,0.041686 -0.1364259,0.1004247 -0.081477,0.058739 -0.1534792,0.092845 -0.1004247,0.045475 -0.2084285,0.066318 -0.1080039,0.022738 -0.2368506,0.022738 -0.3031688,0 -0.5078077,-0.1875856 Q 5.7740946,7.4227369 5.7740946,7.130937 q 0,-0.233061 0.1042143,-0.3808558 Q 5.9825232,6.6022865 6.1738984,6.5170203 6.3633789,6.4317541 6.64381,6.3957528 6.9242411,6.3597515 7.225515,6.3426982 v -0.011369 q 0,-0.1762168 -0.1440051,-0.242535 -0.1440052,-0.068213 -0.4244363,-0.068213 -0.1686376,0 -0.3600129,0.060634 -0.1913752,0.058739 -0.2747466,0.090951 h -0.062529 v -0.513492 q 0.1080039,-0.028422 0.3505389,-0.066318 0.2444298,-0.039791 0.4888596,-0.039791 0.581705,0 0.8393984,0.1800064 0.2595883,0.1781117 0.2595883,0.5608622 V 7.7410641 H 7.2217254 Z"
         id="path507" />
      <path
         d="m 10.067722,6.2631164 h -0.06063 q -0.04358,-0.015158 -0.1402156,-0.022738 -0.096635,-0.00758 -0.1610584,-0.00758 -0.1458999,0 -0.2576934,0.018948 -0.1117935,0.018948 -0.2406402,0.064423 V 7.7410641 H 8.5253507 V 5.6131985 H 9.2074804 V 5.9258412 Q 9.4329622,5.7325711 9.599705,5.6700426 q 0.1667428,-0.064423 0.3069583,-0.064423 0.036001,0 0.081477,0.00189 0.045475,0.00189 0.079582,0.00568 z"
         id="path509" />
      <path
         d="m 12.674973,6.6477618 q 0,0.2633778 -0.08148,0.4793856 -0.07958,0.2160077 -0.210323,0.3562232 -0.136426,0.1477948 -0.308853,0.223587 -0.172427,0.075792 -0.369487,0.075792 -0.181901,0 -0.308853,-0.039791 -0.126952,-0.037896 -0.259588,-0.1080039 v 0.8867686 h -0.68213 V 5.6131985 h 0.68213 v 0.2216921 q 0.157268,-0.1250571 0.320222,-0.2027441 0.164848,-0.077687 0.378961,-0.077687 0.397909,0 0.617706,0.2917999 0.221692,0.2917999 0.221692,0.8015024 z M 11.972,6.6610254 q 0,-0.3107479 -0.106109,-0.4509635 -0.106109,-0.1402155 -0.33538,-0.1402155 -0.09664,0 -0.198954,0.030317 -0.10232,0.028422 -0.195165,0.083372 v 1.0705646 q 0.06821,0.026527 0.1459,0.034107 0.07769,0.00758 0.153479,0.00758 0.270957,0 0.403593,-0.1572688 Q 11.972,6.9793526 11.972,6.6610254 Z"
         id="path511" />
    </g>
    <g
       aria-label="Pitch"
       id="text642"
       style="font-weight:bold;font-size:2.82222px;-inkscape-font-specification:'sans-serif, Bold';display:inline;fill:#ffd556;stroke-width:0.22;paint-order:markers stroke fill">
      <path
         d="m 5.4936997,43.647275 q 0,0.137803 -0.048231,0.270095 -0.048231,0.130914 -0.1378037,0.220486 -0.1226453,0.121267 -0.2742294,0.183279 -0.150206,0.06201 -0.3748261,0.06201 H 4.3292583 v 0.668348 H 3.800092 v -2.051898 h 0.8709195 q 0.1956813,0 0.3293509,0.03445 0.1350476,0.03307 0.2384004,0.100597 0.1240234,0.0813 0.1887911,0.208084 0.066146,0.126779 0.066146,0.304546 z m -0.5470807,0.0124 q 0,-0.08682 -0.046853,-0.148828 -0.046853,-0.06339 -0.1088649,-0.08819 -0.082682,-0.03307 -0.1612304,-0.03583 -0.078548,-0.0041 -0.2094616,-0.0041 h -0.09095 v 0.614604 h 0.1515841 q 0.1350476,0 0.221864,-0.01654 0.088194,-0.01654 0.14745,-0.06615 0.050987,-0.0441 0.073036,-0.104731 0.023427,-0.06201 0.023427,-0.150206 z"
         id="path489" />
      <path
         d="M 6.3370584,45.051495 H 5.8409651 v -1.547536 h 0.4960933 z m 0.01378,-1.768022 H 5.8271847 v -0.376204 h 0.5236541 z"
         id="path491" />
      <path
         d="m 7.7950218,45.037714 q -0.079926,0.02067 -0.1694986,0.03169 -0.089572,0.0124 -0.2191079,0.0124 -0.2893878,0 -0.4313256,-0.117133 Q 6.8345299,44.847545 6.8345299,44.563669 V 43.8402 H 6.6305804 v -0.336241 h 0.2039495 v -0.44235 h 0.4960934 v 0.44235 H 7.7950218 V 43.8402 H 7.3306233 v 0.548459 q 0,0.0813 0.00138,0.141938 0.00138,0.06063 0.022049,0.108864 0.019293,0.04823 0.067524,0.07717 0.049609,0.02756 0.1433159,0.02756 0.038585,0 0.1005967,-0.01654 0.06339,-0.01654 0.088194,-0.03032 h 0.041341 z"
         id="path493" />
      <path
         d="m 8.8974515,45.092836 q -0.2025714,0 -0.370692,-0.04823 -0.1667424,-0.04823 -0.2907658,-0.148828 -0.1226453,-0.100596 -0.1901691,-0.253558 -0.067524,-0.152963 -0.067524,-0.35829 0,-0.216352 0.071658,-0.373448 0.073036,-0.157096 0.2025715,-0.260449 0.1254013,-0.09784 0.2893878,-0.143316 0.1639864,-0.04548 0.3403751,-0.04548 0.1584743,0 0.2921439,0.03445 0.1336696,0.03445 0.2494247,0.08957 v 0.423057 h -0.07028 q -0.028939,-0.0248 -0.07028,-0.05788 -0.039963,-0.03307 -0.099219,-0.06477 -0.0565,-0.03032 -0.1240234,-0.04961 -0.067524,-0.02067 -0.1570962,-0.02067 -0.1984374,0 -0.3059243,0.12678 -0.1061088,0.125401 -0.1061088,0.341753 0,0.223242 0.1088649,0.338997 0.110243,0.115755 0.3114364,0.115755 0.093706,0 0.1681205,-0.02067 0.075792,-0.02205 0.1254014,-0.05099 0.046853,-0.02756 0.082682,-0.05788 0.035829,-0.03032 0.066146,-0.05926 h 0.07028 v 0.423057 q -0.1171331,0.05512 -0.2452906,0.08682 -0.1267794,0.03307 -0.2811196,0.03307 z"
         id="path495" />
      <path
         d="m 11.306261,45.051495 h -0.49885 v -0.767567 q 0,-0.09371 -0.0096,-0.186035 -0.0096,-0.09371 -0.03307,-0.137804 -0.02756,-0.05099 -0.0813,-0.07441 -0.05237,-0.02343 -0.14745,-0.02343 -0.06752,0 -0.137804,0.02205 -0.0689,0.02205 -0.150206,0.07028 v 1.096918 H 9.7518347 v -2.144226 h 0.4960933 v 0.767566 q 0.132292,-0.103352 0.253559,-0.158474 0.122645,-0.05512 0.271473,-0.05512 0.250803,0 0.391363,0.146072 0.141938,0.146072 0.141938,0.436837 z"
         id="path497" />
    </g>
    <g
       aria-label="Gate"
       id="text487"
       style="font-weight:bold;font-size:2.82222px;-inkscape-font-specification:'sans-serif, Bold';display:inline;fill:#ffd556;stroke-width:0.22;paint-order:markers stroke fill">
      <path
         d="m 6.0949224,103.62188 q -0.1378037,0.0537 -0.3651798,0.10749 -0.2273762,0.0524 -0.4533743,0.0524 -0.5236541,0 -0.8199321,-0.28387 -0.2962779,-0.28526 -0.2962779,-0.78686 0,-0.47818 0.299034,-0.77032 0.2990341,-0.29353 0.8337125,-0.29353 0.2025715,0 0.3858504,0.0372 0.1832789,0.0358 0.407899,0.14469 v 0.48094 h -0.059256 q -0.038585,-0.0289 -0.1129991,-0.0813 -0.074414,-0.0537 -0.1433158,-0.0909 -0.079926,-0.0441 -0.1874131,-0.0758 -0.1061088,-0.0317 -0.2259981,-0.0317 -0.1405598,0 -0.2549368,0.0413 -0.1143771,0.0413 -0.2053276,0.12678 -0.086816,0.0827 -0.1378037,0.21084 -0.049609,0.12678 -0.049609,0.29352 0,0.34037 0.1805228,0.5209 0.1805229,0.18052 0.5333004,0.18052 0.030317,0 0.066146,-0.001 0.037207,-0.001 0.067524,-0.004 v -0.40239 h -0.409277 v -0.38723 h 0.9467115 z"
         id="path463" />
      <path
         d="m 7.4784717,103.33525 v -0.32246 q -0.1005967,0.008 -0.2177299,0.0234 -0.1171331,0.0138 -0.1777668,0.0331 -0.074414,0.0234 -0.1143771,0.0689 -0.038585,0.0441 -0.038585,0.11713 0,0.0482 0.00827,0.0786 0.00827,0.0303 0.041341,0.0579 0.031695,0.0276 0.075792,0.0413 0.044097,0.0124 0.1378037,0.0124 0.074414,0 0.1502061,-0.0303 0.07717,-0.0303 0.1350476,-0.0799 z m 0,0.23978 q -0.039963,0.0303 -0.099219,0.073 -0.059256,0.0427 -0.111621,0.0675 -0.073036,0.0331 -0.1515841,0.0482 -0.078548,0.0165 -0.1722546,0.0165 -0.220486,0 -0.369314,-0.13642 -0.148828,-0.13643 -0.148828,-0.34864 0,-0.1695 0.075792,-0.27699 0.075792,-0.10749 0.2149737,-0.1695 0.1378038,-0.062 0.3417533,-0.0882 0.2039495,-0.0262 0.4230574,-0.0386 v -0.008 q 0,-0.12815 -0.1047309,-0.17638 -0.1047308,-0.0496 -0.3086803,-0.0496 -0.1226453,0 -0.261827,0.0441 -0.1391818,0.0427 -0.1998154,0.0661 h -0.045475 v -0.37345 q 0.078548,-0.0207 0.2549369,-0.0482 0.1777668,-0.0289 0.3555336,-0.0289 0.4230574,0 0.6104705,0.13091 0.1887911,0.12954 0.1887911,0.4079 v 1.05282 H 7.4784717 Z"
         id="path465" />
      <path
         d="m 9.4159921,103.72523 q -0.079926,0.0207 -0.1694986,0.0317 -0.089572,0.0124 -0.2191079,0.0124 -0.2893878,0 -0.4313256,-0.11713 -0.1405598,-0.11714 -0.1405598,-0.40101 v -0.72347 H 8.2515507 v -0.33624 h 0.2039495 v -0.44235 h 0.4960933 v 0.44235 h 0.4643986 v 0.33624 H 8.9515935 v 0.54846 q 0,0.0813 0.00138,0.14194 0.00138,0.0606 0.022049,0.10886 0.019293,0.0482 0.067524,0.0772 0.049609,0.0276 0.1433159,0.0276 0.038585,0 0.1005967,-0.0165 0.06339,-0.0165 0.088194,-0.0303 h 0.041341 z"
         id="path467" />
      <path
         d="m 11.236379,103.05689 h -1.135503 q 0.01103,0.1819 0.137804,0.27836 0.128157,0.0965 0.376204,0.0965 0.157096,0 0.304546,-0.0565 0.14745,-0.0565 0.232889,-0.12127 h 0.05512 v 0.39826 q -0.16812,0.0675 -0.316948,0.0978 -0.148828,0.0303 -0.329351,0.0303 -0.465777,0 -0.7138235,-0.20946 -0.2480467,-0.20946 -0.2480467,-0.59669 0,-0.38309 0.2342663,-0.60633 0.2356439,-0.22462 0.6449209,-0.22462 0.377583,0 0.567752,0.19154 0.190169,0.19017 0.190169,0.54846 z m -0.493337,-0.29077 q -0.0041,-0.15572 -0.07717,-0.23427 -0.07304,-0.0785 -0.227377,-0.0785 -0.143315,0 -0.235644,0.0744 -0.09233,0.0744 -0.103353,0.2384 z"
         id="path469" />
    </g>
    <g
       aria-label="V/Oct"
       id="text595"
       style="font-weight:bold;font-size:2.82222px;-inkscape-font-specification:'sans-serif, Bold';display:inline;fill:#ffd556;stroke-width:0.22;paint-order:markers stroke fill">
      <path
         d="M 5.111693,86.623579 4.3634188,88.675476 H 3.7708628 L 3.0225887,86.623579 h 0.5553489 l 0.4960934,1.441427 0.4960934,-1.441427 z"
         id="path472" />
      <path
         d="M 6.8301053,86.53125 5.7373218,89.12196 H 5.3142644 l 1.0886494,-2.59071 z"
         id="path474" />
      <path
         d="m 9.3477791,87.650216 q 0,0.490582 -0.2811196,0.779969 -0.2811196,0.28801 -0.7772129,0.28801 -0.4947154,0 -0.775835,-0.28801 -0.2811195,-0.289387 -0.2811195,-0.779969 0,-0.494715 0.2811195,-0.781347 0.2811196,-0.288009 0.775835,-0.288009 0.4933373,0 0.7758349,0.288009 0.2824976,0.286632 0.2824976,0.781347 z m -0.7014209,0.51952 q 0.07717,-0.09371 0.1143771,-0.220486 0.037207,-0.128157 0.037207,-0.300412 0,-0.184657 -0.042719,-0.314192 -0.042719,-0.129536 -0.111621,-0.209462 -0.07028,-0.08268 -0.1626084,-0.119889 -0.09095,-0.03721 -0.1901691,-0.03721 -0.1005967,0 -0.1901691,0.03583 -0.088194,0.03583 -0.1626084,0.118511 -0.068902,0.07717 -0.1129991,0.213596 -0.042719,0.135048 -0.042719,0.314192 0,0.183279 0.041341,0.312815 0.042719,0.128157 0.111621,0.209462 0.068902,0.0813 0.1612304,0.119889 0.092328,0.03858 0.1943032,0.03858 0.1019747,0 0.1943032,-0.03858 0.092328,-0.03996 0.1612304,-0.122646 z"
         id="path476" />
      <path
         d="m 10.530135,88.716817 q -0.202571,0 -0.370692,-0.04823 -0.1667424,-0.04823 -0.2907658,-0.148828 -0.1226453,-0.100597 -0.1901691,-0.253559 -0.067524,-0.152962 -0.067524,-0.35829 0,-0.216351 0.071658,-0.373448 0.073036,-0.157096 0.2025715,-0.260449 0.1254013,-0.09784 0.2893873,-0.143316 0.163987,-0.04547 0.340376,-0.04547 0.158474,0 0.292144,0.03445 0.133669,0.03445 0.249424,0.08957 v 0.423057 h -0.07028 q -0.02894,-0.02481 -0.07028,-0.05788 -0.03996,-0.03307 -0.09922,-0.06477 -0.0565,-0.03032 -0.124024,-0.04961 -0.06752,-0.02067 -0.157096,-0.02067 -0.198437,0 -0.305924,0.126779 -0.106109,0.125402 -0.106109,0.341753 0,0.223242 0.108865,0.338998 0.110243,0.115755 0.311436,0.115755 0.09371,0 0.168121,-0.02067 0.07579,-0.02205 0.125401,-0.05099 0.04685,-0.02756 0.08268,-0.05788 0.03583,-0.03032 0.06614,-0.05925 h 0.07028 v 0.423057 q -0.117133,0.05512 -0.24529,0.08682 -0.12678,0.03307 -0.28112,0.03307 z"
         id="path478" />
      <path
         d="m 12.373949,88.661696 q -0.07993,0.02067 -0.169499,0.03169 -0.08957,0.0124 -0.219108,0.0124 -0.289387,0 -0.431325,-0.117133 -0.14056,-0.117133 -0.14056,-0.401009 v -0.72347 h -0.20395 V 87.12794 h 0.20395 v -0.44235 h 0.496093 v 0.44235 h 0.464399 v 0.336241 H 11.90955 v 0.548459 q 0,0.0813 0.0014,0.141938 0.0014,0.06063 0.02205,0.108865 0.01929,0.04823 0.06752,0.07717 0.04961,0.02756 0.143316,0.02756 0.03858,0 0.100596,-0.01654 0.06339,-0.01654 0.0882,-0.03032 h 0.04134 z"
         id="path480" />
    </g>
    <g
       aria-label="Scale"
       id="text603"
       style="font-weight:bold;font-size:2.82222px;-inkscape-font-specification:'sans-serif, Bold';display:inline;fill:#ffd556;stroke-width:0.22;paint-order:markers stroke fill"
       transform="translate(-0.1205083,-15.063531)">
      <path
         d="m 5.3907457,44.406569 q 0,0.303169 -0.257693,0.493338 -0.2563149,0.188791 -0.6972868,0.188791 -0.2549369,0 -0.445106,-0.0441 -0.1887911,-0.04548 -0.3541555,-0.114377 v -0.49196 h 0.057878 q 0.1639865,0.130914 0.3665579,0.201194 0.2039495,0.07028 0.3913626,0.07028 0.048231,0 0.1267794,-0.0083 0.078548,-0.0083 0.1281574,-0.02756 0.060634,-0.02481 0.099219,-0.06201 0.039963,-0.03721 0.039963,-0.110243 0,-0.06752 -0.057878,-0.115755 -0.0565,-0.04961 -0.1667425,-0.07579 -0.1157551,-0.02756 -0.2452906,-0.05099 -0.1281574,-0.0248 -0.2411565,-0.06201 -0.259071,-0.08406 -0.373448,-0.227376 -0.1129991,-0.144694 -0.1129991,-0.35829 0,-0.286632 0.2563149,-0.467155 0.257693,-0.181901 0.6614578,-0.181901 0.2025715,0 0.3996308,0.03996 0.1984374,0.03858 0.3431313,0.09784 v 0.472667 h -0.0565 q -0.1240234,-0.09922 -0.3045463,-0.165365 -0.1791448,-0.06752 -0.3665578,-0.06752 -0.066146,0 -0.1322916,0.0096 -0.064768,0.0083 -0.1254014,0.03307 -0.053743,0.02067 -0.092329,0.06339 -0.038585,0.04134 -0.038585,0.09508 0,0.0813 0.062012,0.125401 0.062012,0.04272 0.2342663,0.07855 0.112999,0.02343 0.2163518,0.04548 0.1047308,0.02205 0.2246201,0.06063 0.2356443,0.07717 0.3472653,0.21084 0.1129991,0.132292 0.1129991,0.344509 z"
         id="path494" />
      <path
         d="m 6.5317604,45.092832 q -0.2025715,0 -0.370692,-0.04823 -0.1667425,-0.04823 -0.2907659,-0.148828 -0.1226453,-0.100597 -0.1901691,-0.253559 -0.067524,-0.152962 -0.067524,-0.35829 0,-0.216352 0.071658,-0.373448 0.073036,-0.157096 0.2025715,-0.260449 0.1254013,-0.09784 0.2893878,-0.143316 0.1639864,-0.04548 0.3403751,-0.04548 0.1584743,0 0.2921439,0.03445 0.1336696,0.03445 0.2494247,0.08957 v 0.423058 h -0.07028 Q 6.9589514,43.9835 6.9176104,43.95043 6.8776474,43.91736 6.8183914,43.88566 6.7618924,43.85534 6.694368,43.83605 6.626844,43.81538 6.5372718,43.81538 q -0.1984373,0 -0.3059242,0.12678 -0.1061089,0.125401 -0.1061089,0.341753 0,0.223242 0.1088649,0.338997 0.110243,0.115755 0.3114364,0.115755 0.093707,0 0.1681206,-0.02067 0.075792,-0.02205 0.1254013,-0.05099 0.046853,-0.02756 0.082682,-0.05788 0.035829,-0.03032 0.066146,-0.05926 h 0.07028 v 0.423058 q -0.1171331,0.05512 -0.2452906,0.08682 -0.1267794,0.03307 -0.2811195,0.03307 z"
         id="path496" />
      <path
         d="m 8.3232087,44.647726 v -0.322461 q -0.1005967,0.0083 -0.2177298,0.02343 -0.1171332,0.01378 -0.1777668,0.03307 -0.074414,0.02343 -0.1143771,0.0689 -0.038585,0.0441 -0.038585,0.117133 0,0.04823 0.00827,0.07855 0.00827,0.03032 0.041341,0.05788 0.031695,0.02756 0.075792,0.04134 0.044097,0.0124 0.1378038,0.0124 0.074414,0 0.150206,-0.03032 0.07717,-0.03032 0.1350476,-0.07993 z m 0,0.239778 q -0.039963,0.03032 -0.099219,0.07304 -0.059256,0.04272 -0.111621,0.06752 -0.073036,0.03307 -0.1515841,0.04823 -0.078548,0.01654 -0.1722547,0.01654 -0.2204859,0 -0.3693139,-0.136426 -0.148828,-0.136425 -0.148828,-0.348643 0,-0.169499 0.075792,-0.276986 0.075792,-0.107487 0.2149738,-0.169498 0.1378037,-0.06201 0.3417532,-0.08819 0.2039495,-0.02618 0.4230574,-0.03859 v -0.0083 q 0,-0.128157 -0.1047308,-0.176389 -0.1047308,-0.04961 -0.3086803,-0.04961 -0.1226453,0 -0.2618271,0.0441 -0.1391817,0.04272 -0.1998154,0.06615 H 7.405436 v -0.373448 q 0.078548,-0.02067 0.2549369,-0.04823 0.1777668,-0.02894 0.3555336,-0.02894 0.4230574,0 0.6104704,0.130913 0.1887911,0.129536 0.1887911,0.407899 v 1.052821 H 8.3232087 Z"
         id="path498" />
      <path
         d="M 9.7673916,45.051491 H 9.2712982 v -2.144226 h 0.4960934 z"
         id="path500" />
      <path
         d="m 11.760033,44.369362 h -1.135502 q 0.01102,0.181901 0.137803,0.278364 0.128158,0.09646 0.376204,0.09646 0.157097,0 0.304547,-0.0565 0.14745,-0.0565 0.232888,-0.121267 h 0.05512 v 0.398252 q -0.16812,0.06752 -0.316948,0.09784 -0.148828,0.03032 -0.329351,0.03032 -0.465777,0 -0.713823,-0.209462 -0.248047,-0.209461 -0.248047,-0.59669 0,-0.383094 0.234266,-0.606336 0.235645,-0.22462 0.644922,-0.22462 0.377582,0 0.567751,0.191547 0.190169,0.190169 0.190169,0.548459 z m -0.493337,-0.290765 q -0.0041,-0.155719 -0.07717,-0.234267 -0.07304,-0.07855 -0.227376,-0.07855 -0.143316,0 -0.235645,0.07441 -0.09233,0.07441 -0.103353,0.238401 z"
         id="path502" />
    </g>
    <text
       xml:space="preserve"
       style="font-style:normal;font-variant:normal;font-weight:bold;font-stretch:normal;font-size:2.82222px;font-family:sans-serif;-inkscape-font-specification:'sans-serif, Bold';font-variant-ligatures:normal;font-variant-caps:normal;font-variant-numeric:normal;font-variant-east-asian:normal;display:inline;fill:#ffd556;stroke-width:0.22;paint-order:markers stroke fill"
       x="-12.730349"
       y="45.172001"
       id="text482"><tspan
         sodipodi:role="line"
         id="tspan480"
         x="-12.730349"
         y="45.172001">Pivot</tspan></text>
    <g
       aria-label="Gate"
       id="g492"
       style="font-weight:bold;font-size:2.82222px;-inkscape-font-specification:'sans-serif, Bold';display:inline;fill:#ffd556;stroke-width:0.22;paint-order:markers stroke fill"
       transform="translate(-0.12050825,-43.744495)">
      <path
         d="m 6.0949224,103.62188 q -0.1378037,0.0537 -0.3651798,0.10749 -0.2273762,0.0524 -0.4533743,0.0524 -0.5236541,0 -0.8199321,-0.28387 -0.2962779,-0.28526 -0.2962779,-0.78686 0,-0.47818 0.299034,-0.77032 0.2990341,-0.29353 0.8337125,-0.29353 0.2025715,0 0.3858504,0.0372 0.1832789,0.0358 0.407899,0.14469 v 0.48094 h -0.059256 q -0.038585,-0.0289 -0.1129991,-0.0813 -0.074414,-0.0537 -0.1433158,-0.0909 -0.079926,-0.0441 -0.1874131,-0.0758 -0.1061088,-0.0317 -0.2259981,-0.0317 -0.1405598,0 -0.2549368,0.0413 -0.1143771,0.0413 -0.2053276,0.12678 -0.086816,0.0827 -0.1378037,0.21084 -0.049609,0.12678 -0.049609,0.29352 0,0.34037 0.1805228,0.5209 0.1805229,0.18052 0.5333004,0.18052 0.030317,0 0.066146,-10e-4 0.037207,-0.001 0.067524,-0.004 v -0.40239 h -0.409277 v -0.38723 h 0.9467115 z"
         id="path484" />
      <path
         d="m 7.4784717,103.33525 v -0.32246 q -0.1005967,0.008 -0.2177299,0.0234 -0.1171331,0.0138 -0.1777668,0.0331 -0.074414,0.0234 -0.1143771,0.0689 -0.038585,0.0441 -0.038585,0.11713 0,0.0482 0.00827,0.0786 0.00827,0.0303 0.041341,0.0579 0.031695,0.0276 0.075792,0.0413 0.044097,0.0124 0.1378037,0.0124 0.074414,0 0.1502061,-0.0303 0.07717,-0.0303 0.1350476,-0.0799 z m 0,0.23978 q -0.039963,0.0303 -0.099219,0.073 -0.059256,0.0427 -0.111621,0.0675 -0.073036,0.0331 -0.1515841,0.0482 -0.078548,0.0165 -0.1722546,0.0165 -0.220486,0 -0.369314,-0.13642 -0.148828,-0.13643 -0.148828,-0.34864 0,-0.1695 0.075792,-0.27699 0.075792,-0.10749 0.2149737,-0.1695 0.1378038,-0.062 0.3417533,-0.0882 0.2039495,-0.0262 0.4230574,-0.0386 v -0.008 q 0,-0.12815 -0.1047309,-0.17638 -0.1047308,-0.0496 -0.3086803,-0.0496 -0.1226453,0 -0.261827,0.0441 -0.1391818,0.0427 -0.1998154,0.0661 h -0.045475 v -0.37345 q 0.078548,-0.0207 0.2549369,-0.0482 0.1777668,-0.0289 0.3555336,-0.0289 0.4230574,0 0.6104705,0.13091 0.1887911,0.12954 0.1887911,0.4079 v 1.05282 H 7.4784717 Z"
         id="path486" />
      <path
         d="m 9.4159921,103.72523 q -0.079926,0.0207 -0.1694986,0.0317 -0.089572,0.0124 -0.2191079,0.0124 -0.2893878,0 -0.4313256,-0.11713 -0.1405598,-0.11714 -0.1405598,-0.40101 v -0.72347 H 8.2515507 v -0.33624 h 0.2039495 v -0.44235 h 0.4960933 v 0.44235 h 0.4643986 v 0.33624 H 8.9515935 v 0.54846 q 0,0.0813 0.00138,0.14194 0.00138,0.0606 0.022049,0.10886 0.019293,0.0482 0.067524,0.0772 0.049609,0.0276 0.1433159,0.0276 0.038585,0 0.1005967,-0.0165 0.06339,-0.0165 0.088194,-0.0303 h 0.041341 z"
         id="path488" />
      <path
         d="m 11.236379,103.05689 h -1.135503 q 0.01103,0.1819 0.137804,0.27836 0.128157,0.0965 0.376204,0.0965 0.157096,0 0.304546,-0.0565 0.14745,-0.0565 0.232889,-0.12127 h 0.05512 v 0.39826 q -0.16812,0.0675 -0.316948,0.0978 -0.148828,0.0303 -0.329351,0.0303 -0.465777,0 -0.7138235,-0.20946 -0.2480467,-0.20946 -0.2480467,-0.59669 0,-0.38309 0.2342663,-0.60633 0.2356439,-0.22462 0.6449209,-0.22462 0.377583,0 0.567752,0.19154 0.190169,0.19017 0.190169,0.54846 z m -0.493337,-0.29077 q -0.0041,-0.15572 -0.07717,-0.23427 -0.07304,-0.0785 -0.227377,-0.0785 -0.143315,0 -0.235644,0.0744 -0.09233,0.0744 -0.103353,0.2384 z"
         id="path490" />
    </g>
  </g>
  <g
     id="layer2"
     inkscape:label="components"
     style="display:none"
     transform="translate(-10.16)"
     inkscape:groupmode="layer"
     sodipodi:insensitive="true">
    <circle
       style="fill:#0000ff;fill-opacity:1;stroke-width:0.0642894"
       id="path930"
       cx="20.32"
       cy="65.048264"
       r="2.54"
       inkscape:label="output example" />
    <circle
       style="fill:#00ff00;fill-opacity:1;stroke-width:0.0642894"
       id="circle28"
       cx="20.32"
       cy="46.498661"
       r="2.54"
       inkscape:label="input example" />
    <circle
       style="fill:#ff0000;fill-opacity:1;stroke-width:0.0642894"
       id="circle932"
       cx="20.32"
       cy="27.949057"
       r="2.54"
       inkscape:label="param example" />
    <circle
       style="fill:#ff00ff;fill-opacity:1;stroke-width:0.0642894"
       id="circle985"
       cx="20.32"
       cy="86.21492"
       r="2.54"
       inkscape:label="light example" />
  </g>
</svg>
