<?xml version="1.0" encoding="UTF-8" standalone="no"?>
<svg
   width="30.48mm"
   height="128.5mm"
   viewBox="0 0 30.48 128.5"
   version="1.1"
   id="svg8"
   inkscape:version="1.2.2 (b0a84865, 2022-12-01)"
   sodipodi:docname="MergeSort.svg"
   xmlns:inkscape="http://www.inkscape.org/namespaces/inkscape"
   xmlns:sodipodi="http://sodipodi.sourceforge.net/DTD/sodipodi-0.dtd"
   xmlns="http://www.w3.org/2000/svg"
   xmlns:svg="http://www.w3.org/2000/svg"
   xmlns:rdf="http://www.w3.org/1999/02/22-rdf-syntax-ns#"
   xmlns:cc="http://creativecommons.org/ns#"
   xmlns:dc="http://purl.org/dc/elements/1.1/">
  <defs
     id="defs2">
    <inkscape:path-effect
       effect="fillet_chamfer"
       id="path-effect419"
       is_visible="true"
       lpeversion="1"
       nodesatellites_param="F,0,0,1,0,3,0,1 @ F,0,0,1,0,3,0,1 @ F,0,0,1,0,3,0,1 @ F,0,0,1,0,3,0,1"
       unit="mm"
       method="auto"
       mode="F"
       radius="3"
       chamfer_steps="1"
       flexible="false"
       use_knot_distance="true"
       apply_no_radius="true"
       apply_with_radius="true"
       only_selected="false"
       hide_knots="false" />
    <inkscape:path-effect
       effect="fillet_chamfer"
       id="path-effect942"
       is_visible="true"
       lpeversion="1"
       nodesatellites_param="F,0,0,1,0,3,0,1 @ F,0,0,1,0,3,0,1 @ F,0,0,1,0,3,0,1 @ F,0,0,1,0,3,0,1"
       unit="mm"
       method="auto"
       mode="F"
       radius="3"
       chamfer_steps="1"
       flexible="false"
       use_knot_distance="true"
       apply_no_radius="true"
       apply_with_radius="true"
       only_selected="false"
       hide_knots="false" />
    <inkscape:path-effect
       effect="fillet_chamfer"
       id="path-effect10104"
       is_visible="true"
       lpeversion="1"
       nodesatellites_param="F,0,0,1,0,2,0,1 @ F,0,0,1,0,2,0,1 @ F,0,0,1,0,2,0,1 @ F,0,0,1,0,2,0,1"
       unit="mm"
       method="auto"
       mode="F"
       radius="2"
       chamfer_steps="1"
       flexible="false"
       use_knot_distance="true"
       apply_no_radius="true"
       apply_with_radius="true"
       only_selected="false"
       hide_knots="false" />
    <rect
       x="130.26277"
       y="65.586853"
       width="64.675926"
       height="17.30764"
       id="rect1854" />
    <rect
       x="22.773212"
       y="117.50977"
       width="10.931142"
       height="11.84207"
       id="rect895" />
    <inkscape:path-effect
       effect="fillet_chamfer"
       id="path-effect942-8"
       is_visible="true"
       lpeversion="1"
       nodesatellites_param="F,0,0,1,0,3,0,1 @ F,0,0,1,0,3,0,1 @ F,0,0,1,0,3,0,1 @ F,0,0,1,0,3,0,1"
       unit="mm"
       method="auto"
       mode="F"
       radius="3"
       chamfer_steps="1"
       flexible="false"
       use_knot_distance="true"
       apply_no_radius="true"
       apply_with_radius="true"
       only_selected="false"
       hide_knots="false" />
    <inkscape:path-effect
       effect="fillet_chamfer"
       id="path-effect942-8-6"
       is_visible="true"
       lpeversion="1"
       nodesatellites_param="F,0,0,1,0,3,0,1 @ F,0,0,1,0,3,0,1 @ F,0,0,1,0,3,0,1 @ F,0,0,1,0,3,0,1"
       unit="mm"
       method="auto"
       mode="F"
       radius="3"
       chamfer_steps="1"
       flexible="false"
       use_knot_distance="true"
       apply_no_radius="true"
       apply_with_radius="true"
       only_selected="false"
       hide_knots="false" />
  </defs>
  <sodipodi:namedview
     id="base"
     pagecolor="#ffffff"
     bordercolor="#666666"
     borderopacity="1.0"
     inkscape:pageopacity="0.0"
     inkscape:pageshadow="2"
     inkscape:zoom="2.195562"
     inkscape:cx="87.9046"
     inkscape:cy="135.04515"
     inkscape:document-units="mm"
     inkscape:current-layer="layer1"
     inkscape:document-rotation="0"
     showgrid="true"
     inkscape:showpageshadow="false"
     inkscape:window-width="1309"
     inkscape:window-height="847"
     inkscape:window-x="288"
     inkscape:window-y="421"
     inkscape:window-maximized="0"
     inkscape:pagecheckerboard="0"
     width="20.32mm"
     inkscape:deskcolor="#d1d1d1">
    <inkscape:grid
       type="xygrid"
       id="grid3456"
       originx="0"
       originy="0" />
  </sodipodi:namedview>
  <metadata
     id="metadata5">
    <rdf:RDF>
      <cc:Work
         rdf:about="">
        <dc:format>image/svg+xml</dc:format>
        <dc:type
           rdf:resource="http://purl.org/dc/dcmitype/StillImage" />
      </cc:Work>
    </rdf:RDF>
  </metadata>
  <g
     inkscape:label="panel"
     inkscape:groupmode="layer"
     id="layer1"
     style="display:inline">
    <path
       id="rect11"
       style="fill:#333333;fill-rule:evenodd;stroke-width:3.36829"
       inkscape:label="background"
       d="M -1.8076237,-3.8562639 H 79.506925 V 132.9588 H -1.8076237 Z" />
    <g
       aria-label="Chinenual"
       id="text624"
       style="font-size:3.88056px;-inkscape-font-specification:'sans-serif, Normal';fill:#ffd556;stroke-width:0.264583"
       transform="translate(-25.094424,-3.4947392)">
      <path
         d="m 33.308488,126.088 q -0.104214,0.0455 -0.189481,0.0853 -0.08337,0.0398 -0.219797,0.0834 -0.115583,0.036 -0.252009,0.0606 -0.134531,0.0265 -0.297484,0.0265 -0.306959,0 -0.558968,-0.0853 -0.250114,-0.0872 -0.435805,-0.27095 -0.181901,-0.18001 -0.28422,-0.45665 -0.10232,-0.27854 -0.10232,-0.64613 0,-0.34864 0.09853,-0.62339 0.09853,-0.27475 0.284221,-0.46423 0.180006,-0.18379 0.43391,-0.28043 0.255799,-0.0966 0.566547,-0.0966 0.227376,0 0.452858,0.055 0.227376,0.0549 0.504018,0.19327 v 0.44528 h -0.02842 q -0.233061,-0.19517 -0.462332,-0.28423 -0.229272,-0.0891 -0.490755,-0.0891 -0.214113,0 -0.38654,0.0701 -0.170532,0.0682 -0.305064,0.21411 -0.130741,0.14211 -0.204638,0.36001 -0.072,0.21601 -0.072,0.50023 0,0.29749 0.07958,0.5116 0.08148,0.21411 0.208428,0.34864 0.132637,0.14022 0.308853,0.20843 0.178112,0.0663 0.375172,0.0663 0.270957,0 0.507807,-0.0928 0.236851,-0.0928 0.443385,-0.27853 h 0.02653 z"
         id="path730" />
      <path
         d="m 35.580359,126.29264 h -0.356224 v -1.2051 q 0,-0.1459 -0.01705,-0.27285 -0.01705,-0.12884 -0.06253,-0.20085 -0.04737,-0.0796 -0.136426,-0.11747 -0.08906,-0.0398 -0.231166,-0.0398 -0.1459,0 -0.305064,0.072 -0.159164,0.072 -0.305064,0.18379 v 1.58027 h -0.356223 v -2.94832 h 0.356223 v 1.06678 q 0.166743,-0.13832 0.344855,-0.21601 0.178111,-0.0777 0.365697,-0.0777 0.34296,0 0.522966,0.20654 0.180007,0.20653 0.180007,0.59497 z"
         id="path732" />
      <path
         d="M 36.649028,123.82182 H 36.24733 v -0.36949 h 0.401698 z m -0.02274,2.47082 h -0.356223 v -2.1165 h 0.356223 z"
         id="path734" />
      <path
         d="m 39.100906,126.29264 h -0.356223 v -1.2051 q 0,-0.1459 -0.01705,-0.27285 -0.01705,-0.12884 -0.06253,-0.20085 -0.04737,-0.0796 -0.136426,-0.11747 -0.08906,-0.0398 -0.231166,-0.0398 -0.1459,0 -0.305064,0.072 -0.159163,0.072 -0.305063,0.18379 v 1.58027 H 37.33116 v -2.1165 h 0.356224 v 0.23496 q 0.166742,-0.13832 0.344854,-0.21601 0.178112,-0.0777 0.365697,-0.0777 0.34296,0 0.522966,0.20654 0.180007,0.20653 0.180007,0.59497 z"
         id="path736" />
      <path
         d="m 41.558467,125.27134 h -1.559424 q 0,0.19517 0.05874,0.34107 0.05874,0.144 0.161058,0.23685 0.09853,0.0909 0.233061,0.13642 0.136426,0.0455 0.299379,0.0455 0.216008,0 0.433911,-0.0853 0.219797,-0.0872 0.312642,-0.17053 h 0.01895 v 0.38843 q -0.180006,0.0758 -0.367592,0.12696 -0.187585,0.0512 -0.394119,0.0512 -0.526756,0 -0.822345,-0.28423 -0.29559,-0.28611 -0.29559,-0.81097 0,-0.51918 0.282326,-0.82424 0.284221,-0.30507 0.746553,-0.30507 0.428226,0 0.659392,0.25012 0.233061,0.25011 0.233061,0.71055 z m -0.346749,-0.27285 q -0.0019,-0.28043 -0.14211,-0.43391 -0.138321,-0.15348 -0.422542,-0.15348 -0.286115,0 -0.456648,0.16864 -0.168637,0.16863 -0.191375,0.41875 z"
         id="path738" />
      <path
         d="m 43.868234,126.29264 h -0.356223 v -1.2051 q 0,-0.1459 -0.01705,-0.27285 -0.01705,-0.12884 -0.06253,-0.20085 -0.04737,-0.0796 -0.136426,-0.11747 -0.08906,-0.0398 -0.231166,-0.0398 -0.1459,0 -0.305064,0.072 -0.159163,0.072 -0.305063,0.18379 v 1.58027 h -0.356223 v -2.1165 h 0.356223 v 0.23496 q 0.166743,-0.13832 0.344854,-0.21601 0.178112,-0.0777 0.365698,-0.0777 0.342959,0 0.522966,0.20654 0.180006,0.20653 0.180006,0.59497 z"
         id="path740" />
      <path
         d="m 46.308742,126.29264 h -0.356223 v -0.23496 q -0.180007,0.14212 -0.344855,0.21791 -0.164848,0.0758 -0.363802,0.0758 -0.333486,0 -0.519176,-0.20274 -0.185691,-0.20464 -0.185691,-0.59876 v -1.37374 h 0.356223 v 1.2051 q 0,0.16106 0.01516,0.27664 0.01516,0.11369 0.06442,0.19517 0.05116,0.0834 0.132636,0.12126 0.08148,0.0379 0.236851,0.0379 0.13832,0 0.301274,-0.072 0.164848,-0.072 0.306958,-0.1838 v -1.58027 h 0.356223 z"
         id="path742" />
      <path
         d="m 48.654511,126.29264 h -0.354328 v -0.22548 q -0.04737,0.0322 -0.128847,0.0909 -0.07958,0.0568 -0.155374,0.091 -0.08906,0.0436 -0.204639,0.072 -0.115583,0.0303 -0.270957,0.0303 -0.286116,0 -0.48507,-0.18948 -0.198955,-0.18948 -0.198955,-0.48318 0,-0.24064 0.10232,-0.38843 0.104214,-0.14969 0.295589,-0.23496 0.19327,-0.0853 0.464228,-0.11558 0.270957,-0.0303 0.581705,-0.0455 v -0.0549 q 0,-0.12127 -0.04358,-0.20085 -0.04169,-0.0796 -0.121267,-0.12506 -0.07579,-0.0436 -0.181902,-0.0587 -0.106109,-0.0152 -0.221692,-0.0152 -0.140215,0 -0.312643,0.0379 -0.172427,0.036 -0.356223,0.10611 h -0.01895 v -0.36191 q 0.104214,-0.0284 0.301274,-0.0625 0.19706,-0.0341 0.388435,-0.0341 0.223587,0 0.388435,0.0379 0.166743,0.036 0.28801,0.12506 0.119373,0.0872 0.181901,0.22548 0.06253,0.13832 0.06253,0.34296 z m -0.354328,-0.52107 v -0.58928 q -0.162954,0.009 -0.384646,0.0284 -0.219797,0.0189 -0.348644,0.0549 -0.153479,0.0436 -0.248219,0.13642 -0.09474,0.091 -0.09474,0.25201 0,0.1819 0.109898,0.27475 0.109899,0.091 0.335381,0.091 0.187585,0 0.342959,-0.072 0.155374,-0.0739 0.288011,-0.17622 z"
         id="path744" />
      <path
         d="M 49.700443,126.29264 H 49.34422 v -2.94832 h 0.356223 z"
         id="path746" />
    </g>
    <g
       transform="scale(0.26458333)"
       id="text893"
       style="font-size:10.6667px;-inkscape-font-specification:'sans-serif, Normal';white-space:pre;shape-inside:url(#rect895);fill:#ffd556" />
    <g
       transform="scale(0.26458333)"
       id="text1852"
       style="font-size:8.00001px;-inkscape-font-specification:'sans-serif, Normal';white-space:pre;shape-inside:url(#rect1854);fill:#af83f8" />
    <g
       aria-label="RUN"
       id="text9484"
       style="font-weight:bold;font-size:2.82222px;-inkscape-font-specification:'sans-serif, Bold';display:none;fill:#ffd456;stroke-width:0.22;paint-order:markers stroke fill"
       transform="translate(1.2050825,-9.8816763)">
      <path
         d="m 5.9701682,35.813537 q 0,-0.07717 -0.031695,-0.132292 -0.031695,-0.05512 -0.108865,-0.08682 -0.053743,-0.02205 -0.1254014,-0.02618 -0.071658,-0.0055 -0.1667425,-0.0055 H 5.3459174 v 0.552593 h 0.1626084 q 0.1267794,0 0.2122177,-0.0124 0.085438,-0.0124 0.1433158,-0.0565 0.055122,-0.04272 0.079926,-0.09371 0.026183,-0.05236 0.026183,-0.139181 z m 0.8254443,1.423512 H 6.149313 L 5.58983,36.484641 H 5.3459174 v 0.752408 H 4.8195072 v -2.051897 h 0.8874559 q 0.1819009,0 0.3128144,0.02067 0.1309136,0.02067 0.2452907,0.08957 0.1157551,0.0689 0.1832789,0.179145 0.068902,0.108865 0.068902,0.274229 0,0.227376 -0.1061089,0.370692 -0.1047308,0.143316 -0.3004121,0.2384 z"
         id="path9518" />
      <path
         d="m 8.8240832,36.494287 q 0,0.380338 -0.2315102,0.58291 -0.2315102,0.202571 -0.6821284,0.202571 -0.4506181,0 -0.6821284,-0.202571 Q 6.998184,36.874625 6.998184,36.495665 v -1.310513 h 0.5319224 v 1.280196 q 0,0.213596 0.089572,0.318327 0.089572,0.104731 0.2907658,0.104731 0.1984374,0 0.2893878,-0.100597 0.092329,-0.100597 0.092329,-0.322461 v -1.280196 h 0.5319223 z"
         id="path9520" />
      <path
         d="M 11.184661,37.237049 H 10.674787 L 9.8038677,35.828695 v 1.408354 H 9.3187986 v -2.051897 h 0.6325191 l 0.7482743,1.175465 v -1.175465 h 0.485069 z"
         id="path9522" />
    </g>
    <path
       style="display:inline;fill:#222222;fill-opacity:1;stroke-width:0.22;paint-order:markers stroke fill"
       id="path938-4"
       width="11.448285"
       height="10.845741"
       x="14.228243"
       y="108.44431"
       inkscape:path-effect="#path-effect942-8"
       d="m 17.228243,108.44431 h 5.448285 a 3,3 45 0 1 3,3 v 4.84574 a 3,3 135 0 1 -3,3 h -5.448285 a 3,3 45 0 1 -3,-3 v -4.84574 a 3,3 135 0 1 3,-3 z"
       sodipodi:type="rect" />
    <path
       style="display:inline;fill:#222222;fill-opacity:1;stroke-width:0.22;paint-order:markers stroke fill"
       id="path938-4-7"
       width="11.448285"
       height="10.845741"
       x="4.3251758"
       y="12.003688"
       inkscape:path-effect="#path-effect942-8-6"
       d="m 7.3251758,12.003688 h 5.4482852 a 3,3 45 0 1 3,3 v 4.845741 a 3,3 135 0 1 -3,3 H 7.3251758 a 3,3 45 0 1 -3,-3 v -4.845741 a 3,3 135 0 1 3,-3 z"
       sodipodi:type="rect" />
    <text
       xml:space="preserve"
       style="font-weight:bold;font-size:2.82223px;font-family:sans-serif;-inkscape-font-specification:'sans-serif, Bold';fill:#222222;fill-opacity:1;stroke-width:0.22;paint-order:markers stroke fill"
       x="20.124878"
       y="30.850111"
       id="text2032"><tspan
         sodipodi:role="line"
         id="tspan2030"
         style="stroke-width:0.22"
         x="20.124878"
         y="30.850111" /></text>
    <text
       xml:space="preserve"
       style="font-style:normal;font-variant:normal;font-weight:bold;font-stretch:normal;font-size:3.88056px;font-family:sans-serif;-inkscape-font-specification:'sans-serif, Bold';font-variant-ligatures:normal;font-variant-caps:normal;font-variant-numeric:normal;font-variant-east-asian:normal;display:inline;fill:#ffd556;stroke-width:0.22;paint-order:markers stroke fill"
       x="34.937328"
       y="7.6205554"
       id="text1759-6"><tspan
         sodipodi:role="line"
         id="tspan1996"
         x="34.937328"
         y="7.6205554">MergeSort</tspan></text>
    <g
       aria-label="MergeSort"
       id="text1759-6-4"
       style="font-weight:bold;font-size:3.88056px;-inkscape-font-specification:'sans-serif, Bold';display:inline;fill:#ffd556;stroke-width:0.22;paint-order:markers stroke fill">
      <path
         d="M 7.1245511,7.6634645 H 6.4007357 V 5.7743443 L 5.8777696,7.0002829 H 5.3756464 L 4.8526803,5.7743443 V 7.6634645 H 4.166761 V 4.8421004 H 5.0118439 L 5.6466035,6.2575195 6.2794682,4.8421004 h 0.8450829 z"
         id="path920" />
      <path
         d="m 9.9023348,6.7255362 h -1.561319 q 0.015158,0.2501143 0.1894804,0.3827506 0.1762169,0.1326363 0.5172817,0.1326363 0.2160077,0 0.4187518,-0.077687 0.2027441,-0.077687 0.320222,-0.1667428 h 0.075792 v 0.5475986 q -0.2311662,0.092845 -0.4358051,0.1345311 -0.2046389,0.041686 -0.4528583,0.041686 -0.640444,0 -0.9815088,-0.2880103 Q 7.6513069,7.1442881 7.6513069,6.611848 q 0,-0.5267557 0.3221168,-0.8337141 0.3240116,-0.3088531 0.8867685,-0.3088531 0.5191765,0 0.7806596,0.2633778 0.261483,0.2614831 0.261483,0.7541323 z M 9.2239947,6.3257325 Q 9.2183103,6.1116195 9.1178857,6.0036157 9.017461,5.8956118 8.8052429,5.8956118 q -0.1970597,0 -0.3240116,0.1023195 Q 8.3542794,6.1002507 8.339121,6.3257325 Z"
         id="path922" />
      <path
         d="m 11.925986,6.1855169 h -0.06063 q -0.04358,-0.015158 -0.140215,-0.022738 -0.09664,-0.00758 -0.161059,-0.00758 -0.145899,0 -0.257693,0.018948 -0.111793,0.018948 -0.24064,0.064423 v 1.424893 h -0.68213 V 5.5355989 h 0.68213 v 0.3126428 q 0.225482,-0.1932701 0.392224,-0.2557986 0.166743,-0.064423 0.306959,-0.064423 0.036,0 0.08148,0.00189 0.04548,0.00189 0.07958,0.00568 z"
         id="path924" />
      <path
         d="m 14.381653,7.4190347 q 0,0.2993792 -0.08527,0.5040181 -0.08527,0.2046389 -0.238746,0.320222 -0.153479,0.1174779 -0.371381,0.1686376 -0.216008,0.053055 -0.48886,0.053055 -0.221692,0 -0.4377,-0.026527 -0.214113,-0.026527 -0.371381,-0.064423 V 7.8415762 h 0.08337 q 0.125057,0.049265 0.305064,0.089056 0.180006,0.041686 0.322116,0.041686 0.189481,0 0.306959,-0.036001 0.119372,-0.034107 0.181901,-0.09853 0.05874,-0.060634 0.08527,-0.155374 0.02653,-0.09474 0.02653,-0.2273766 v -0.039791 q -0.123162,0.1004247 -0.272851,0.1591636 -0.14969,0.058739 -0.333486,0.058739 -0.447174,0 -0.689709,-0.2690623 -0.242535,-0.2690622 -0.242535,-0.8185556 0,-0.2633778 0.0739,-0.4547531 0.0739,-0.1913753 0.208429,-0.3334856 0.125057,-0.1326364 0.306958,-0.2065337 0.183796,-0.073897 0.375172,-0.073897 0.172427,0 0.312642,0.041686 0.142111,0.039791 0.257694,0.1117935 l 0.02463,-0.09474 h 0.661287 z m -0.68213,-0.426331 V 6.0282481 q -0.05874,-0.024632 -0.144005,-0.037896 -0.08527,-0.015158 -0.153479,-0.015158 -0.269062,0 -0.403593,0.155374 -0.134531,0.1534792 -0.134531,0.4301206 0,0.3069584 0.113688,0.4282259 0.115583,0.1212675 0.341065,0.1212675 0.102319,0 0.200849,-0.032212 0.09853,-0.032212 0.180006,-0.085266 z"
         id="path926" />
      <path
         d="m 17.12154,6.7255362 h -1.561319 q 0.01516,0.2501143 0.189481,0.3827506 0.176216,0.1326363 0.517281,0.1326363 0.216008,0 0.418752,-0.077687 0.202744,-0.077687 0.320222,-0.1667428 h 0.07579 v 0.5475986 q -0.231166,0.092845 -0.435805,0.1345311 -0.204639,0.041686 -0.452858,0.041686 -0.640444,0 -0.981509,-0.2880103 -0.341065,-0.2880103 -0.341065,-0.8204504 0,-0.5267557 0.322117,-0.8337141 0.324012,-0.3088531 0.886769,-0.3088531 0.519176,0 0.780659,0.2633778 0.261483,0.2614831 0.261483,0.7541323 z M 16.4432,6.3257325 q -0.0057,-0.214113 -0.106109,-0.3221168 -0.100425,-0.1080039 -0.312643,-0.1080039 -0.197059,0 -0.324011,0.1023195 -0.126952,0.1023194 -0.142111,0.3278012 z"
         id="path928" />
      <path
         d="m 19.899324,6.776696 q 0,0.416857 -0.354328,0.67834 -0.352434,0.2595883 -0.958771,0.2595883 -0.350539,0 -0.612022,-0.060634 Q 17.714615,7.591462 17.487238,7.4967217 V 6.8202765 h 0.07958 q 0.225482,0.1800064 0.504018,0.2766415 0.280431,0.096635 0.538124,0.096635 0.06632,0 0.174322,-0.011369 0.108004,-0.011369 0.176217,-0.037896 0.08337,-0.034107 0.136426,-0.085266 0.05495,-0.05116 0.05495,-0.1515844 0,-0.092845 -0.07958,-0.1591636 Q 18.993608,6.6800609 18.842023,6.6440596 18.68286,6.6061636 18.504748,6.5739519 18.328531,6.5398454 18.173157,6.4886857 17.816934,6.3731026 17.659665,6.1760429 17.504291,5.9770884 17.504291,5.6833937 q 0,-0.3941194 0.352434,-0.6423388 0.354328,-0.2501142 0.909506,-0.2501142 0.278536,0 0.549493,0.054949 0.272852,0.053055 0.471807,0.1345312 v 0.649918 h -0.07769 q -0.170533,-0.136426 -0.418752,-0.2273766 -0.246325,-0.092845 -0.504018,-0.092845 -0.09095,0 -0.181901,0.013264 -0.08906,0.011369 -0.172428,0.045475 -0.0739,0.028422 -0.126951,0.087161 -0.05306,0.056844 -0.05306,0.1307416 0,0.1117934 0.08527,0.1724272 0.08527,0.058739 0.322117,0.1080038 0.155374,0.032212 0.297484,0.062529 0.144006,0.030317 0.308854,0.083371 0.324011,0.1061091 0.47749,0.2899051 0.155374,0.1819013 0.155374,0.4737012 z"
         id="path931" />
      <path
         d="m 22.534997,6.6004791 q 0,0.5248609 -0.306959,0.8280297 -0.305063,0.3012739 -0.858346,0.3012739 -0.553283,0 -0.860241,-0.3012739 -0.305064,-0.3031688 -0.305064,-0.8280297 0,-0.5286505 0.306958,-0.8299244 0.308853,-0.3012739 0.858347,-0.3012739 0.557072,0 0.860241,0.3031687 0.305064,0.3031688 0.305064,0.8280296 z m -0.839399,0.5172817 q 0.06632,-0.081477 0.09853,-0.1951649 0.03411,-0.1155831 0.03411,-0.3183272 0,-0.1875856 -0.03411,-0.3145375 -0.03411,-0.1269519 -0.09474,-0.2027441 -0.06063,-0.077687 -0.1459,-0.1098987 -0.08527,-0.032212 -0.183796,-0.032212 -0.09853,0 -0.176217,0.026527 -0.07579,0.026527 -0.1459,0.1061091 -0.06253,0.073897 -0.100425,0.2027441 -0.036,0.1288467 -0.036,0.3240115 0,0.1743221 0.03221,0.3031688 0.03221,0.1269519 0.09474,0.2046389 0.06063,0.073897 0.144005,0.1080039 0.08527,0.034106 0.19327,0.034106 0.09285,0 0.176217,-0.030317 0.08527,-0.032212 0.144005,-0.1061091 z"
         id="path933" />
      <path
         d="m 24.566229,6.1855169 h -0.06063 q -0.04358,-0.015158 -0.140216,-0.022738 -0.09663,-0.00758 -0.161058,-0.00758 -0.1459,0 -0.257693,0.018948 -0.111794,0.018948 -0.240641,0.064423 v 1.424893 H 23.023858 V 5.5355989 h 0.682129 v 0.3126428 q 0.225482,-0.1932701 0.392225,-0.2557986 0.166743,-0.064423 0.306958,-0.064423 0.036,0 0.08148,0.00189 0.04547,0.00189 0.07958,0.00568 z"
         id="path935" />
      <path
         d="m 26.313239,7.6445165 q -0.109899,0.028422 -0.233061,0.043581 -0.123163,0.017053 -0.301274,0.017053 -0.397909,0 -0.593074,-0.1610583 Q 24.99256,7.3830335 24.99256,6.9927037 V 5.9979313 H 24.712129 V 5.5355989 H 24.99256 V 4.9273666 h 0.68213 v 0.6082323 h 0.638549 V 5.9979313 H 25.67469 v 0.7541322 q 0,0.1117935 0.0019,0.1951649 0.0019,0.083371 0.03032,0.1496896 0.02653,0.066318 0.09285,0.106109 0.06821,0.037896 0.197059,0.037896 0.05306,0 0.138321,-0.022738 0.08716,-0.022738 0.121268,-0.041686 h 0.05684 z"
         id="path937" />
    </g>
    <text
       xml:space="preserve"
       style="font-style:normal;font-variant:normal;font-weight:bold;font-stretch:normal;font-size:2.11666667px;font-family:sans-serif;-inkscape-font-specification:'sans-serif, Bold';font-variant-ligatures:normal;font-variant-caps:normal;font-variant-numeric:normal;font-variant-east-asian:normal;display:inline;fill:#ffd556;stroke-width:0.22;paint-order:markers stroke fill"
       x="34.17952"
       y="14.701261"
       id="text1759-6-1"><tspan
         sodipodi:role="line"
         id="tspan1996-7"
         x="34.17952"
         y="14.701261"
         style="font-style:normal;font-variant:normal;font-weight:bold;font-stretch:normal;font-size:2.11666667px;font-family:sans-serif;-inkscape-font-specification:'sans-serif, Bold';font-variant-ligatures:normal;font-variant-caps:normal;font-variant-numeric:normal;font-variant-east-asian:normal">IN</tspan></text>
    <g
       aria-label="IN"
       id="text1759-6-1-53-2"
       style="font-weight:bold;font-size:2.11667px;-inkscape-font-specification:'sans-serif, Bold';display:inline;fill:#ffd556;stroke-width:0.22;paint-order:markers stroke fill"
       transform="translate(8.371028,12.338975)">
      <path
         d="M 6.4581435,12.579271 H 5.5569052 V 12.306419 H 5.8090866 V 11.313197 H 5.5569052 v -0.272852 h 0.9012383 v 0.272852 H 6.2059622 v 0.993222 h 0.2521813 z"
         id="path818-8" />
      <path
         d="M 8.1810384,12.579271 H 7.7986323 L 7.1454412,11.523003 v 1.056268 H 6.7816385 v -1.538926 h 0.4743904 l 0.5612069,0.881601 v -0.881601 h 0.3638026 z"
         id="path820-0" />
    </g>
    <text
       xml:space="preserve"
       style="font-style:normal;font-variant:normal;font-weight:bold;font-stretch:normal;font-size:2.11666667px;font-family:sans-serif;-inkscape-font-specification:'sans-serif, Bold';font-variant-ligatures:normal;font-variant-caps:normal;font-variant-numeric:normal;font-variant-east-asian:normal;display:inline;fill:#ffd556;stroke-width:0.22;paint-order:markers stroke fill"
       x="40.448521"
       y="18.620153"
       id="text1759-6-1-5"><tspan
         sodipodi:role="line"
         id="tspan1996-7-2"
         x="40.448521"
         y="18.620153"
         style="font-style:normal;font-variant:normal;font-weight:bold;font-stretch:normal;font-size:2.11666667px;font-family:sans-serif;-inkscape-font-specification:'sans-serif, Bold';font-variant-ligatures:normal;font-variant-caps:normal;font-variant-numeric:normal;font-variant-east-asian:normal">OUT</tspan></text>
    <g
       aria-label="OUT"
       id="text1759-6-1-5-2"
       style="font-weight:bold;font-size:2.11667px;-inkscape-font-specification:'sans-serif, Bold';display:inline;fill:#ffd556;stroke-width:0.22;paint-order:markers stroke fill"
       transform="translate(-4.7643695,-10.128041)">
      <path
         d="m 13.761908,20.968953 q 0,0.367937 -0.21084,0.584978 -0.21084,0.216008 -0.582911,0.216008 -0.371037,0 -0.581877,-0.216008 -0.21084,-0.217041 -0.21084,-0.584978 0,-0.371037 0.21084,-0.586011 0.21084,-0.216008 0.581877,-0.216008 0.370004,0 0.581878,0.216008 0.211873,0.214974 0.211873,0.586011 z m -0.526066,0.389641 q 0.05788,-0.07028 0.08578,-0.165365 0.02791,-0.09612 0.02791,-0.225309 0,-0.138493 -0.03204,-0.235645 -0.03204,-0.09715 -0.08372,-0.157097 -0.05271,-0.06201 -0.121956,-0.08992 -0.06821,-0.02791 -0.142627,-0.02791 -0.07545,0 -0.142627,0.02687 -0.06615,0.02687 -0.121957,0.08888 -0.05168,0.05788 -0.08475,0.160197 -0.03204,0.101286 -0.03204,0.235645 0,0.13746 0.03101,0.234612 0.03204,0.09612 0.08372,0.157096 0.05168,0.06098 0.120923,0.08992 0.06925,0.02894 0.145728,0.02894 0.07648,0 0.145728,-0.02894 0.06925,-0.02997 0.120923,-0.09198 z"
         id="path832" />
      <path
         d="m 15.412456,21.180827 q 0,0.285254 -0.173633,0.437183 -0.173633,0.151929 -0.511597,0.151929 -0.337965,0 -0.511598,-0.151929 -0.172599,-0.151929 -0.172599,-0.436149 v -0.982888 h 0.398942 v 0.96015 q 0,0.160197 0.06718,0.238745 0.06718,0.07855 0.218075,0.07855 0.148828,0 0.217041,-0.07545 0.06925,-0.07545 0.06925,-0.241846 v -0.96015 h 0.398942 z"
         id="path834" />
      <path
         d="m 16.987556,20.49663 h -0.480591 v 1.24127 h -0.396876 v -1.24127 h -0.480591 v -0.297657 h 1.358058 z"
         id="path836" />
    </g>
    <text
       xml:space="preserve"
       style="font-style:normal;font-variant:normal;font-weight:bold;font-stretch:normal;font-size:2.11666667px;font-family:sans-serif;-inkscape-font-specification:'sans-serif, Bold';font-variant-ligatures:normal;font-variant-caps:normal;font-variant-numeric:normal;font-variant-east-asian:normal;display:inline;fill:#ffd556;stroke-width:0.22;paint-order:markers stroke fill"
       x="34.543617"
       y="24.525057"
       id="text1759-6-1-3"><tspan
         sodipodi:role="line"
         id="tspan1996-7-3"
         x="34.543617"
         y="24.525057"
         style="font-style:normal;font-variant:normal;font-weight:bold;font-stretch:normal;font-size:2.11666667px;font-family:sans-serif;-inkscape-font-specification:'sans-serif, Bold';font-variant-ligatures:normal;font-variant-caps:normal;font-variant-numeric:normal;font-variant-east-asian:normal">LINK</tspan></text>
    <g
       aria-label="LINK"
       id="text1759-6-1-3-1"
       style="font-weight:bold;font-size:2.11667px;-inkscape-font-specification:'sans-serif, Bold';display:inline;fill:#ffd556;stroke-width:0.22;paint-order:markers stroke fill"
       transform="translate(0.29697527,-1.5875)">
      <path
         d="m 13.18654,109.94994 h -1.110012 v -1.53892 h 0.396876 v 1.24127 h 0.713136 z"
         id="path809" />
      <path
         d="m 14.257277,109.94994 h -0.901238 v -0.27285 h 0.252181 v -0.99322 h -0.252181 v -0.27285 h 0.901238 v 0.27285 h -0.252181 v 0.99322 h 0.252181 z"
         id="path811" />
      <path
         d="m 15.980172,109.94994 h -0.382406 l -0.653191,-1.05626 v 1.05626 h -0.363803 v -1.53892 h 0.47439 l 0.561207,0.8816 v -0.8816 h 0.363803 z"
         id="path813" />
      <path
         d="m 17.809521,109.94994 h -0.486793 l -0.459921,-0.61598 -0.09302,0.11265 v 0.50333 h -0.396875 v -1.53892 h 0.396875 v 0.6966 l 0.549838,-0.6966 h 0.459921 l -0.601514,0.7121 z"
         id="path815" />
    </g>
    <text
       xml:space="preserve"
       style="font-style:normal;font-variant:normal;font-weight:bold;font-stretch:normal;font-size:2.11666667px;font-family:sans-serif;-inkscape-font-specification:'sans-serif, Bold';font-variant-ligatures:normal;font-variant-caps:normal;font-variant-numeric:normal;font-variant-east-asian:normal;display:inline;fill:#ffd556;stroke-width:0.22;paint-order:markers stroke fill"
       x="43.70388"
       y="30.188944"
       id="text1759-6-1-3-3"><tspan
         sodipodi:role="line"
         id="tspan1996-7-3-1"
         x="43.70388"
         y="30.188944"
         style="font-style:normal;font-variant:normal;font-weight:bold;font-stretch:normal;font-size:2.11666667px;font-family:sans-serif;-inkscape-font-specification:'sans-serif, Bold';font-variant-ligatures:normal;font-variant-caps:normal;font-variant-numeric:normal;font-variant-east-asian:normal">SORT</tspan></text>
    <g
       aria-label="SORT"
       id="text1759-6-1-3-3-6"
       style="font-weight:bold;font-size:2.11667px;-inkscape-font-specification:'sans-serif, Bold';display:inline;fill:#ffd556;stroke-width:0.22;paint-order:markers stroke fill"
       transform="translate(-1.5875,-0.964066)">
      <path
         d="m 20.124857,12.216088 q 0,0.227377 -0.19327,0.370004 -0.192237,0.141594 -0.522967,0.141594 -0.191203,0 -0.33383,-0.03307 -0.141594,-0.03411 -0.265617,-0.08578 v -0.36897 h 0.04341 q 0.12299,0.09818 0.274919,0.150895 0.152963,0.05271 0.293523,0.05271 0.03617,0 0.09508,-0.0062 0.05891,-0.0062 0.09612,-0.02067 0.04547,-0.0186 0.07441,-0.04651 0.02997,-0.02791 0.02997,-0.08268 0,-0.05064 -0.04341,-0.08682 -0.04237,-0.03721 -0.125057,-0.05684 -0.08682,-0.02067 -0.183969,-0.03824 -0.09612,-0.0186 -0.180867,-0.04651 -0.194304,-0.06305 -0.280087,-0.170533 -0.08475,-0.10852 -0.08475,-0.268718 0,-0.214974 0.192236,-0.350366 0.19327,-0.136426 0.496095,-0.136426 0.151929,0 0.299723,0.02997 0.148829,0.02894 0.257349,0.07338 v 0.354501 h -0.04237 q -0.09302,-0.07442 -0.22841,-0.124024 -0.134359,-0.05064 -0.27492,-0.05064 -0.04961,0 -0.09922,0.0072 -0.04858,0.0062 -0.09405,0.0248 -0.04031,0.0155 -0.06925,0.04754 -0.02894,0.03101 -0.02894,0.07131 0,0.06098 0.04651,0.09405 0.04651,0.03204 0.1757,0.05891 0.08475,0.01757 0.162264,0.03411 0.07855,0.01654 0.168466,0.04548 0.176733,0.05788 0.260449,0.15813 0.08475,0.09922 0.08475,0.258382 z"
         id="path823" />
      <path
         d="m 21.893227,11.930834 q 0,0.367937 -0.21084,0.584978 -0.21084,0.216008 -0.582911,0.216008 -0.371038,0 -0.581878,-0.216008 -0.21084,-0.217041 -0.21084,-0.584978 0,-0.371037 0.21084,-0.586012 0.21084,-0.216007 0.581878,-0.216007 0.370004,0 0.581877,0.216007 0.211874,0.214975 0.211874,0.586012 z m -0.526067,0.389641 q 0.05788,-0.07028 0.08578,-0.165365 0.02791,-0.09612 0.02791,-0.22531 0,-0.138493 -0.03204,-0.235644 -0.03204,-0.09715 -0.08372,-0.157097 -0.05271,-0.06201 -0.121957,-0.08992 -0.06821,-0.0279 -0.142627,-0.0279 -0.07545,0 -0.142627,0.02687 -0.06615,0.02687 -0.121957,0.08888 -0.05168,0.05788 -0.08475,0.160197 -0.03204,0.101286 -0.03204,0.235645 0,0.137459 0.03101,0.234611 0.03204,0.09612 0.08372,0.157097 0.05168,0.06098 0.120923,0.08992 0.06925,0.02894 0.145728,0.02894 0.07648,0 0.145728,-0.02894 0.06925,-0.02997 0.120923,-0.09198 z"
         id="path825" />
      <path
         d="m 23.059049,11.632144 q 0,-0.05788 -0.02377,-0.09922 -0.02377,-0.04134 -0.08165,-0.06511 -0.04031,-0.01654 -0.09405,-0.01964 -0.05374,-0.0041 -0.125057,-0.0041 H 22.59086 v 0.414446 h 0.121956 q 0.09509,0 0.159164,-0.0093 0.06408,-0.0093 0.107487,-0.04237 0.04134,-0.03204 0.05994,-0.07028 0.01964,-0.03927 0.01964,-0.104386 z m 0.619085,1.067636 H 23.193408 L 22.773795,12.135473 H 22.59086 v 0.564307 h -0.394809 v -1.538926 h 0.665594 q 0.136426,0 0.234611,0.0155 0.09819,0.0155 0.183968,0.06718 0.08682,0.05168 0.13746,0.134359 0.05168,0.08165 0.05168,0.205673 0,0.170532 -0.07958,0.278019 -0.07855,0.107488 -0.22531,0.178801 z"
         id="path827" />
      <path
         d="m 25.055829,11.458511 h -0.480591 v 1.241269 h -0.396876 v -1.241269 h -0.480591 v -0.297657 h 1.358058 z"
         id="path829" />
    </g>
    <path
       style="display:inline;fill:#222222;fill-opacity:1;stroke-width:0.22;paint-order:markers stroke fill"
       id="path415"
       width="11.448285"
       height="10.845741"
       x="36.322544"
       y="106.27516"
       inkscape:path-effect="#path-effect419"
       d="m 39.322544,106.27516 h 5.448285 a 3,3 45 0 1 3,3 v 4.84574 a 3,3 135 0 1 -3,3 h -5.448285 a 3,3 45 0 1 -3,-3 v -4.84574 a 3,3 135 0 1 3,-3 z"
       sodipodi:type="rect" />
  </g>
  <g
     id="layer2"
     inkscape:label="components"
     style="display:none"
     transform="translate(-10.16)"
     inkscape:groupmode="layer"
     sodipodi:insensitive="true">
    <circle
       style="fill:#0000ff;fill-opacity:1;stroke-width:0.0642894"
       id="path930"
       cx="20.32"
       cy="65.048264"
       r="2.54"
       inkscape:label="output example" />
    <circle
       style="fill:#00ff00;fill-opacity:1;stroke-width:0.0642894"
       id="circle28"
       cx="20.32"
       cy="46.498661"
       r="2.54"
       inkscape:label="input example" />
    <circle
       style="fill:#ff0000;fill-opacity:1;stroke-width:0.0642894"
       id="circle932"
       cx="20.32"
       cy="27.949057"
       r="2.54"
       inkscape:label="param example" />
    <circle
       style="fill:#ff00ff;fill-opacity:1;stroke-width:0.0642894"
       id="circle985"
       cx="20.32"
       cy="86.21492"
       r="2.54"
       inkscape:label="light example" />
  </g>
</svg>
