<?xml version="1.0" encoding="UTF-8" standalone="no"?>
<svg
   width="81.279999mm"
   height="128.5mm"
   viewBox="0 0 81.28 128.5"
   version="1.1"
   id="svg8"
   inkscape:version="1.2.1 (9c6d41e4, 2022-07-14)"
   sodipodi:docname="MIDIRecorder.svg"
   xmlns:inkscape="http://www.inkscape.org/namespaces/inkscape"
   xmlns:sodipodi="http://sodipodi.sourceforge.net/DTD/sodipodi-0.dtd"
   xmlns="http://www.w3.org/2000/svg"
   xmlns:svg="http://www.w3.org/2000/svg"
   xmlns:rdf="http://www.w3.org/1999/02/22-rdf-syntax-ns#"
   xmlns:cc="http://creativecommons.org/ns#"
   xmlns:dc="http://purl.org/dc/elements/1.1/">
  <defs
     id="defs2">
    <inkscape:path-effect
       effect="fillet_chamfer"
       id="path-effect10104"
       is_visible="true"
       lpeversion="1"
       nodesatellites_param="F,0,0,1,0,2,0,1 @ F,0,0,1,0,2,0,1 @ F,0,0,1,0,2,0,1 @ F,0,0,1,0,2,0,1"
       unit="mm"
       method="auto"
       mode="F"
       radius="2"
       chamfer_steps="1"
       flexible="false"
       use_knot_distance="true"
       apply_no_radius="true"
       apply_with_radius="true"
       only_selected="false"
       hide_knots="false" />
    <rect
       x="130.26277"
       y="65.586853"
       width="64.675926"
       height="17.30764"
       id="rect1854" />
    <rect
       x="22.773212"
       y="117.50977"
       width="10.931142"
       height="11.84207"
       id="rect895" />
  </defs>
  <sodipodi:namedview
     id="base"
     pagecolor="#ffffff"
     bordercolor="#666666"
     borderopacity="1.0"
     inkscape:pageopacity="0.0"
     inkscape:pageshadow="2"
     inkscape:zoom="2.195562"
     inkscape:cx="151.44186"
     inkscape:cy="267.12978"
     inkscape:document-units="mm"
     inkscape:current-layer="layer1"
     inkscape:document-rotation="0"
     showgrid="true"
     inkscape:showpageshadow="false"
     inkscape:window-width="1309"
     inkscape:window-height="847"
     inkscape:window-x="47"
     inkscape:window-y="302"
     inkscape:window-maximized="0"
     inkscape:pagecheckerboard="0"
     width="20.32mm"
     inkscape:deskcolor="#d1d1d1">
    <inkscape:grid
       type="xygrid"
       id="grid3456"
       originx="0"
       originy="0" />
  </sodipodi:namedview>
  <metadata
     id="metadata5">
    <rdf:RDF>
      <cc:Work
         rdf:about="">
        <dc:format>image/svg+xml</dc:format>
        <dc:type
           rdf:resource="http://purl.org/dc/dcmitype/StillImage" />
      </cc:Work>
    </rdf:RDF>
  </metadata>
  <g
     inkscape:label="panel"
     inkscape:groupmode="layer"
     id="layer1"
     style="display:inline">
    <path
       id="rect11"
       style="fill:#333333;fill-rule:evenodd;stroke-width:3.26433"
       inkscape:label="background"
       d="M 1.4327244e-8,5.0353368e-8 H 81.314549 V 128.5 H 1.4327244e-8 Z" />
    <g
       aria-label="Chinenual"
       id="text624"
       style="font-size:3.88056px;-inkscape-font-specification:'sans-serif, Normal';fill:#ffd556;stroke-width:0.264583"
       transform="translate(0.98564586,-0.12050825)">
      <path
         d="m 33.308488,126.088 q -0.104214,0.0455 -0.189481,0.0853 -0.08337,0.0398 -0.219797,0.0834 -0.115583,0.036 -0.252009,0.0606 -0.134531,0.0265 -0.297484,0.0265 -0.306959,0 -0.558968,-0.0853 -0.250114,-0.0872 -0.435805,-0.27095 -0.181901,-0.18001 -0.28422,-0.45665 -0.10232,-0.27854 -0.10232,-0.64613 0,-0.34864 0.09853,-0.62339 0.09853,-0.27475 0.284221,-0.46423 0.180006,-0.18379 0.43391,-0.28043 0.255799,-0.0966 0.566547,-0.0966 0.227376,0 0.452858,0.055 0.227376,0.0549 0.504018,0.19327 v 0.44528 h -0.02842 q -0.233061,-0.19517 -0.462332,-0.28423 -0.229272,-0.0891 -0.490755,-0.0891 -0.214113,0 -0.38654,0.0701 -0.170532,0.0682 -0.305064,0.21411 -0.130741,0.14211 -0.204638,0.36001 -0.072,0.21601 -0.072,0.50023 0,0.29749 0.07958,0.5116 0.08148,0.21411 0.208428,0.34864 0.132637,0.14022 0.308853,0.20843 0.178112,0.0663 0.375172,0.0663 0.270957,0 0.507807,-0.0928 0.236851,-0.0928 0.443385,-0.27853 h 0.02653 z"
         id="path730" />
      <path
         d="m 35.580359,126.29264 h -0.356224 v -1.2051 q 0,-0.1459 -0.01705,-0.27285 -0.01705,-0.12884 -0.06253,-0.20085 -0.04737,-0.0796 -0.136426,-0.11747 -0.08906,-0.0398 -0.231166,-0.0398 -0.1459,0 -0.305064,0.072 -0.159164,0.072 -0.305064,0.18379 v 1.58027 h -0.356223 v -2.94832 h 0.356223 v 1.06678 q 0.166743,-0.13832 0.344855,-0.21601 0.178111,-0.0777 0.365697,-0.0777 0.34296,0 0.522966,0.20654 0.180007,0.20653 0.180007,0.59497 z"
         id="path732" />
      <path
         d="M 36.649028,123.82182 H 36.24733 v -0.36949 h 0.401698 z m -0.02274,2.47082 h -0.356223 v -2.1165 h 0.356223 z"
         id="path734" />
      <path
         d="m 39.100906,126.29264 h -0.356223 v -1.2051 q 0,-0.1459 -0.01705,-0.27285 -0.01705,-0.12884 -0.06253,-0.20085 -0.04737,-0.0796 -0.136426,-0.11747 -0.08906,-0.0398 -0.231166,-0.0398 -0.1459,0 -0.305064,0.072 -0.159163,0.072 -0.305063,0.18379 v 1.58027 H 37.33116 v -2.1165 h 0.356224 v 0.23496 q 0.166742,-0.13832 0.344854,-0.21601 0.178112,-0.0777 0.365697,-0.0777 0.34296,0 0.522966,0.20654 0.180007,0.20653 0.180007,0.59497 z"
         id="path736" />
      <path
         d="m 41.558467,125.27134 h -1.559424 q 0,0.19517 0.05874,0.34107 0.05874,0.144 0.161058,0.23685 0.09853,0.0909 0.233061,0.13642 0.136426,0.0455 0.299379,0.0455 0.216008,0 0.433911,-0.0853 0.219797,-0.0872 0.312642,-0.17053 h 0.01895 v 0.38843 q -0.180006,0.0758 -0.367592,0.12696 -0.187585,0.0512 -0.394119,0.0512 -0.526756,0 -0.822345,-0.28423 -0.29559,-0.28611 -0.29559,-0.81097 0,-0.51918 0.282326,-0.82424 0.284221,-0.30507 0.746553,-0.30507 0.428226,0 0.659392,0.25012 0.233061,0.25011 0.233061,0.71055 z m -0.346749,-0.27285 q -0.0019,-0.28043 -0.14211,-0.43391 -0.138321,-0.15348 -0.422542,-0.15348 -0.286115,0 -0.456648,0.16864 -0.168637,0.16863 -0.191375,0.41875 z"
         id="path738" />
      <path
         d="m 43.868234,126.29264 h -0.356223 v -1.2051 q 0,-0.1459 -0.01705,-0.27285 -0.01705,-0.12884 -0.06253,-0.20085 -0.04737,-0.0796 -0.136426,-0.11747 -0.08906,-0.0398 -0.231166,-0.0398 -0.1459,0 -0.305064,0.072 -0.159163,0.072 -0.305063,0.18379 v 1.58027 h -0.356223 v -2.1165 h 0.356223 v 0.23496 q 0.166743,-0.13832 0.344854,-0.21601 0.178112,-0.0777 0.365698,-0.0777 0.342959,0 0.522966,0.20654 0.180006,0.20653 0.180006,0.59497 z"
         id="path740" />
      <path
         d="m 46.308742,126.29264 h -0.356223 v -0.23496 q -0.180007,0.14212 -0.344855,0.21791 -0.164848,0.0758 -0.363802,0.0758 -0.333486,0 -0.519176,-0.20274 -0.185691,-0.20464 -0.185691,-0.59876 v -1.37374 h 0.356223 v 1.2051 q 0,0.16106 0.01516,0.27664 0.01516,0.11369 0.06442,0.19517 0.05116,0.0834 0.132636,0.12126 0.08148,0.0379 0.236851,0.0379 0.13832,0 0.301274,-0.072 0.164848,-0.072 0.306958,-0.1838 v -1.58027 h 0.356223 z"
         id="path742" />
      <path
         d="m 48.654511,126.29264 h -0.354328 v -0.22548 q -0.04737,0.0322 -0.128847,0.0909 -0.07958,0.0568 -0.155374,0.091 -0.08906,0.0436 -0.204639,0.072 -0.115583,0.0303 -0.270957,0.0303 -0.286116,0 -0.48507,-0.18948 -0.198955,-0.18948 -0.198955,-0.48318 0,-0.24064 0.10232,-0.38843 0.104214,-0.14969 0.295589,-0.23496 0.19327,-0.0853 0.464228,-0.11558 0.270957,-0.0303 0.581705,-0.0455 v -0.0549 q 0,-0.12127 -0.04358,-0.20085 -0.04169,-0.0796 -0.121267,-0.12506 -0.07579,-0.0436 -0.181902,-0.0587 -0.106109,-0.0152 -0.221692,-0.0152 -0.140215,0 -0.312643,0.0379 -0.172427,0.036 -0.356223,0.10611 h -0.01895 v -0.36191 q 0.104214,-0.0284 0.301274,-0.0625 0.19706,-0.0341 0.388435,-0.0341 0.223587,0 0.388435,0.0379 0.166743,0.036 0.28801,0.12506 0.119373,0.0872 0.181901,0.22548 0.06253,0.13832 0.06253,0.34296 z m -0.354328,-0.52107 v -0.58928 q -0.162954,0.009 -0.384646,0.0284 -0.219797,0.0189 -0.348644,0.0549 -0.153479,0.0436 -0.248219,0.13642 -0.09474,0.091 -0.09474,0.25201 0,0.1819 0.109898,0.27475 0.109899,0.091 0.335381,0.091 0.187585,0 0.342959,-0.072 0.155374,-0.0739 0.288011,-0.17622 z"
         id="path744" />
      <path
         d="M 49.700443,126.29264 H 49.34422 v -2.94832 h 0.356223 z"
         id="path746" />
    </g>
    <g
       aria-label="MIDI Recorder"
       id="text628"
       style="font-weight:bold;font-size:3.88056px;-inkscape-font-specification:'sans-serif, Bold';fill:#ffd556;stroke-width:0.264583"
       transform="translate(3.6368079)">
      <path
         d="M 24.286238,5.3023629 H 23.562423 V 3.4132427 L 23.039457,4.6391813 H 22.537334 L 22.014367,3.4132427 V 5.3023629 H 21.328448 V 2.4809988 h 0.845083 l 0.63476,1.4154191 0.632864,-1.4154191 h 0.845083 z"
         id="path705" />
      <path
         d="m 26.531582,5.3023629 h -1.65227 V 4.8021345 h 0.462333 V 2.9812272 H 24.879312 V 2.4809988 h 1.65227 v 0.5002284 h -0.462333 v 1.8209073 h 0.462333 z"
         id="path707" />
      <path
         d="m 29.790646,3.8945231 q 0,0.3941193 -0.180007,0.7067621 -0.180006,0.310748 -0.454753,0.4774908 -0.206534,0.1250571 -0.452858,0.174322 -0.246325,0.049265 -0.5836,0.049265 H 27.124656 V 2.4809988 h 1.023194 q 0.344855,0 0.594969,0.058739 0.250114,0.056844 0.420646,0.1629532 0.2918,0.1781117 0.458543,0.4812804 0.168638,0.301274 0.168638,0.7105517 z m -0.752238,-0.00568 q 0,-0.2785363 -0.102319,-0.475596 -0.100425,-0.1989545 -0.320222,-0.310748 -0.111794,-0.054949 -0.229272,-0.073897 -0.115583,-0.020843 -0.350538,-0.020843 H 27.852261 V 4.773717 h 0.183796 q 0.259588,0 0.380855,-0.022738 0.121268,-0.024633 0.236851,-0.087161 0.198954,-0.1136883 0.2918,-0.3031688 0.09285,-0.1913753 0.09285,-0.4718063 z"
         id="path709" />
      <path
         d="m 31.871141,5.3023629 h -1.65227 V 4.8021345 h 0.462333 V 2.9812272 H 30.218871 V 2.4809988 h 1.65227 v 0.5002284 h -0.462332 v 1.8209073 h 0.462332 z"
         id="path711" />
      <path
         d="m 35.37274,3.3450297 q 0,-0.106109 -0.04358,-0.1819012 -0.04358,-0.075792 -0.149689,-0.1193727 -0.0739,-0.030317 -0.172428,-0.036001 -0.09853,-0.00758 -0.229271,-0.00758 h -0.263378 v 0.7598166 h 0.223587 q 0.174322,0 0.2918,-0.017053 0.117478,-0.017053 0.19706,-0.077687 0.07579,-0.058739 0.109898,-0.1288467 0.036,-0.072003 0.036,-0.1913753 z m 1.134988,1.9573332 H 35.619064 L 34.849774,4.2677996 H 34.514393 V 5.3023629 H 33.790578 V 2.4809988 h 1.220254 q 0.250114,0 0.430121,0.028422 0.180006,0.028422 0.337275,0.1231623 0.159163,0.09474 0.252009,0.2463246 0.09474,0.1496895 0.09474,0.3770661 0,0.3126428 -0.1459,0.5097024 -0.144005,0.1970597 -0.413067,0.3278013 z"
         id="path713" />
      <path
         d="m 38.883813,4.3644346 h -1.561319 q 0.01516,0.2501142 0.189481,0.3827506 0.176217,0.1326363 0.517281,0.1326363 0.216008,0 0.418752,-0.077687 0.202744,-0.077687 0.320222,-0.1667428 h 0.07579 v 0.5475985 q -0.231166,0.092846 -0.435805,0.1345312 -0.204639,0.041686 -0.452858,0.041686 -0.640444,0 -0.981509,-0.2880103 -0.341065,-0.2880104 -0.341065,-0.8204505 0,-0.5267557 0.322117,-0.833714 0.324012,-0.3088532 0.886769,-0.3088532 0.519176,0 0.780659,0.2633779 0.261483,0.261483 0.261483,0.7541322 z M 38.205473,3.9646308 Q 38.199789,3.7505179 38.099364,3.642514 37.998939,3.5345102 37.786721,3.5345102 q -0.197059,0 -0.324011,0.1023194 -0.126952,0.1023195 -0.142111,0.3278012 z"
         id="path715" />
      <path
         d="m 40.473554,5.3592071 q -0.278536,0 -0.509703,-0.066318 Q 39.73458,5.2265707 39.564048,5.08825 39.39541,4.9499293 39.302565,4.7396059 q -0.09285,-0.2103233 -0.09285,-0.4926492 0,-0.2974843 0.09853,-0.513492 0.100425,-0.2160078 0.278536,-0.3581181 0.172428,-0.1345311 0.397909,-0.1970597 0.225482,-0.062528 0.468017,-0.062528 0.217903,0 0.401699,0.04737 0.183796,0.04737 0.342959,0.1231623 v 0.581705 h -0.09663 q -0.03979,-0.034107 -0.09664,-0.079582 -0.05495,-0.045475 -0.136426,-0.089056 -0.07769,-0.041686 -0.170532,-0.068213 -0.09285,-0.028422 -0.216008,-0.028422 -0.272852,0 -0.420647,0.1743221 -0.145899,0.1724272 -0.145899,0.4699115 0,0.3069584 0.149689,0.466122 0.151584,0.1591636 0.428226,0.1591636 0.128847,0 0.231166,-0.028422 0.104214,-0.030317 0.172427,-0.070108 0.06442,-0.037896 0.113689,-0.079582 0.04926,-0.041686 0.09095,-0.081477 h 0.09663 v 0.5817051 q -0.161058,0.075792 -0.337275,0.1193726 -0.174322,0.045475 -0.38654,0.045475 z"
         id="path717" />
      <path
         d="m 43.823568,4.2393775 q 0,0.5248609 -0.306958,0.8280296 -0.305064,0.301274 -0.858347,0.301274 -0.553283,0 -0.860241,-0.301274 -0.305063,-0.3031687 -0.305063,-0.8280296 0,-0.5286505 0.306958,-0.8299244 0.308853,-0.301274 0.858346,-0.301274 0.557073,0 0.860242,0.3031688 0.305063,0.3031687 0.305063,0.8280296 z M 42.98417,4.7566592 q 0.06632,-0.081477 0.09853,-0.1951649 0.03411,-0.1155831 0.03411,-0.3183272 0,-0.1875856 -0.03411,-0.3145376 -0.03411,-0.1269519 -0.09474,-0.202744 -0.06063,-0.077687 -0.1459,-0.1098987 -0.08527,-0.032212 -0.183796,-0.032212 -0.09853,0 -0.176216,0.026527 -0.07579,0.026527 -0.1459,0.106109 -0.06253,0.073897 -0.100425,0.2027441 -0.036,0.1288467 -0.036,0.3240116 0,0.174322 0.03221,0.3031688 0.03221,0.1269519 0.09474,0.2046389 0.06063,0.073897 0.144005,0.1080038 0.08527,0.034107 0.19327,0.034107 0.09285,0 0.176217,-0.030317 0.08527,-0.032212 0.144005,-0.1061088 z"
         id="path719" />
      <path
         d="m 45.8548,3.8244153 h -0.06063 q -0.04358,-0.015158 -0.140216,-0.022738 -0.09663,-0.00758 -0.161058,-0.00758 -0.1459,0 -0.257694,0.018948 -0.111793,0.018948 -0.24064,0.064423 v 1.4248931 h -0.68213 V 3.1744973 h 0.68213 v 0.3126428 q 0.225482,-0.1932701 0.392225,-0.2557987 0.166742,-0.064423 0.306958,-0.064423 0.036,0 0.08148,0.00189 0.04548,0.00189 0.07958,0.00568 z"
         id="path721" />
      <path
         d="M 48.310465,5.3023629 H 47.628336 V 5.0806708 q -0.176217,0.1440051 -0.329696,0.2122181 -0.15348,0.068213 -0.354329,0.068213 -0.388435,0 -0.621496,-0.2993792 -0.233061,-0.2993791 -0.233061,-0.8071868 0,-0.270957 0.07769,-0.4793855 0.07958,-0.2103233 0.216008,-0.3600129 0.128847,-0.1421104 0.312643,-0.2197974 0.183796,-0.079582 0.367592,-0.079582 0.191375,0 0.312643,0.041686 0.123162,0.039791 0.252009,0.1023194 V 2.3540469 h 0.682129 z M 47.628336,4.7149735 V 3.6709361 q -0.072,-0.030317 -0.151585,-0.043581 -0.07958,-0.013264 -0.1459,-0.013264 -0.269062,0 -0.403593,0.1686376 -0.134531,0.1667428 -0.134531,0.4642271 0,0.3126428 0.108004,0.4547531 0.108004,0.1402156 0.346749,0.1402156 0.09284,0 0.19706,-0.034107 0.104214,-0.036001 0.183796,-0.092844 z"
         id="path723" />
      <path
         d="m 51.050354,4.3644346 h -1.561319 q 0.01516,0.2501142 0.189481,0.3827506 0.176217,0.1326363 0.517281,0.1326363 0.216008,0 0.418752,-0.077687 0.202744,-0.077687 0.320222,-0.1667428 h 0.07579 v 0.5475985 q -0.231166,0.092846 -0.435805,0.1345312 -0.204639,0.041686 -0.452858,0.041686 -0.640444,0 -0.981509,-0.2880103 -0.341065,-0.2880104 -0.341065,-0.8204505 0,-0.5267557 0.322117,-0.833714 0.324012,-0.3088532 0.886769,-0.3088532 0.519176,0 0.780659,0.2633779 0.261483,0.261483 0.261483,0.7541322 z M 50.372014,3.9646308 Q 50.36633,3.7505179 50.265905,3.642514 50.165481,3.5345102 49.953262,3.5345102 q -0.197059,0 -0.324011,0.1023194 -0.126952,0.1023195 -0.14211,0.3278012 z"
         id="path725" />
      <path
         d="m 53.074004,3.8244153 h -0.06063 q -0.04358,-0.015158 -0.140216,-0.022738 -0.09663,-0.00758 -0.161058,-0.00758 -0.1459,0 -0.257694,0.018948 -0.111793,0.018948 -0.24064,0.064423 v 1.4248931 h -0.68213 V 3.1744973 h 0.68213 v 0.3126428 q 0.225482,-0.1932701 0.392225,-0.2557987 0.166742,-0.064423 0.306958,-0.064423 0.036,0 0.08148,0.00189 0.04548,0.00189 0.07958,0.00568 z"
         id="path727" />
    </g>
    <g
       transform="scale(0.26458333)"
       id="text893"
       style="font-size:10.6667px;-inkscape-font-specification:'sans-serif, Normal';white-space:pre;shape-inside:url(#rect895);fill:#ffd556" />
    <g
       transform="scale(0.26458333)"
       id="text1852"
       style="font-size:8.00001px;-inkscape-font-specification:'sans-serif, Normal';white-space:pre;shape-inside:url(#rect1854);fill:#af83f8" />
    <g
       aria-label="RUN"
       id="text9484"
       style="font-weight:bold;font-size:2.82222px;-inkscape-font-specification:'sans-serif, Bold';fill:#ffd456;stroke-width:0.22;paint-order:markers stroke fill"
       transform="translate(1.2050825,-9.8816763)">
      <path
         d="m 5.9701682,35.813537 q 0,-0.07717 -0.031695,-0.132292 -0.031695,-0.05512 -0.108865,-0.08682 -0.053743,-0.02205 -0.1254014,-0.02618 -0.071658,-0.0055 -0.1667425,-0.0055 H 5.3459174 v 0.552593 h 0.1626084 q 0.1267794,0 0.2122177,-0.0124 0.085438,-0.0124 0.1433158,-0.0565 0.055122,-0.04272 0.079926,-0.09371 0.026183,-0.05236 0.026183,-0.139181 z m 0.8254443,1.423512 H 6.149313 L 5.58983,36.484641 H 5.3459174 v 0.752408 H 4.8195072 v -2.051897 h 0.8874559 q 0.1819009,0 0.3128144,0.02067 0.1309136,0.02067 0.2452907,0.08957 0.1157551,0.0689 0.1832789,0.179145 0.068902,0.108865 0.068902,0.274229 0,0.227376 -0.1061089,0.370692 -0.1047308,0.143316 -0.3004121,0.2384 z"
         id="path9518" />
      <path
         d="m 8.8240832,36.494287 q 0,0.380338 -0.2315102,0.58291 -0.2315102,0.202571 -0.6821284,0.202571 -0.4506181,0 -0.6821284,-0.202571 Q 6.998184,36.874625 6.998184,36.495665 v -1.310513 h 0.5319224 v 1.280196 q 0,0.213596 0.089572,0.318327 0.089572,0.104731 0.2907658,0.104731 0.1984374,0 0.2893878,-0.100597 0.092329,-0.100597 0.092329,-0.322461 v -1.280196 h 0.5319223 z"
         id="path9520" />
      <path
         d="M 11.184661,37.237049 H 10.674787 L 9.8038677,35.828695 v 1.408354 H 9.3187986 v -2.051897 h 0.6325191 l 0.7482743,1.175465 v -1.175465 h 0.485069 z"
         id="path9522" />
    </g>
    <g
       aria-label="BPM"
       id="text9488"
       style="font-weight:bold;font-size:2.82222px;-inkscape-font-specification:'sans-serif, Bold';fill:#ffd456;stroke-width:0.22;paint-order:markers stroke fill"
       transform="translate(1.2050825,44.70856)">
      <path
         d="m 6.5730628,40.585436 q 0,0.148828 -0.060634,0.265962 -0.059256,0.117133 -0.1639864,0.194303 -0.1212673,0.09095 -0.2673392,0.129535 -0.1446939,0.03859 -0.3679359,0.03859 H 4.8174434 v -2.051897 h 0.7965055 q 0.2480467,0 0.3624238,0.01654 0.1157551,0.01654 0.2287541,0.07304 0.1171332,0.05926 0.1736327,0.159852 0.057878,0.09922 0.057878,0.227376 0,0.148828 -0.078548,0.263205 -0.078548,0.112999 -0.221864,0.176389 v 0.01102 q 0.2011934,0.03996 0.3183266,0.165365 0.1185112,0.125401 0.1185112,0.330728 z M 5.8950685,39.742078 q 0,-0.05099 -0.026183,-0.101975 -0.024805,-0.05099 -0.089572,-0.07579 -0.057878,-0.02205 -0.1446939,-0.02343 -0.085438,-0.0028 -0.2411565,-0.0028 h -0.049609 v 0.434082 h 0.082682 q 0.1254013,0 0.2135957,-0.0041 0.088194,-0.0041 0.1391818,-0.02756 0.071658,-0.03169 0.093706,-0.0813 0.022049,-0.05099 0.022049,-0.117133 z m 0.1295355,0.83509 q 0,-0.09784 -0.038585,-0.150206 -0.037207,-0.05374 -0.1281574,-0.07993 -0.062012,-0.01791 -0.1708766,-0.01929 -0.108865,-0.0014 -0.2273761,-0.0014 H 5.3438536 v 0.511252 h 0.038585 q 0.223242,0 0.3197046,-0.0014 0.096463,-0.0014 0.1777668,-0.03583 0.082682,-0.03445 0.112999,-0.09095 0.031695,-0.05788 0.031695,-0.132292 z"
         id="path9525" />
      <path
         d="m 8.6607892,39.809602 q 0,0.137803 -0.048231,0.270095 -0.048231,0.130913 -0.1378037,0.220486 -0.1226454,0.121267 -0.2742294,0.183279 -0.1502061,0.06201 -0.3748261,0.06201 H 7.4963478 V 41.21382 H 6.9671815 V 39.161924 H 7.838101 q 0.1956813,0 0.3293509,0.03445 0.1350476,0.03307 0.2384004,0.100597 0.1240233,0.0813 0.1887911,0.208083 0.066146,0.12678 0.066146,0.304547 z m -0.5470808,0.0124 q 0,-0.08682 -0.046853,-0.148828 -0.046853,-0.06339 -0.108865,-0.08819 -0.082682,-0.03307 -0.1612303,-0.03583 -0.078548,-0.0041 -0.2094617,-0.0041 h -0.09095 v 0.614605 h 0.1515841 q 0.1350476,0 0.2218639,-0.01654 0.088194,-0.01654 0.14745,-0.06615 0.050987,-0.0441 0.073036,-0.104731 0.023427,-0.06201 0.023427,-0.150206 z"
         id="path9527" />
      <path
         d="m 11.186732,41.213821 h -0.526411 v -1.373903 l -0.380338,0.89159 H 9.9148032 L 9.534465,39.839918 v 1.373903 H 9.0356155 v -2.051897 h 0.6146046 l 0.4616429,1.029394 0.460264,-1.029394 h 0.614605 z"
         id="path9529" />
    </g>
    <g
       aria-label="GATE"
       id="text9492"
       style="font-weight:bold;font-size:2.82222px;-inkscape-font-specification:'sans-serif, Bold';fill:#ffd456;stroke-width:0.22;paint-order:markers stroke fill"
       transform="translate(1.2050825,-0.12050825)">
      <path
         d="m 5.9329644,45.314477 q -0.1378037,0.05374 -0.3651798,0.107487 -0.2273761,0.05236 -0.4533742,0.05236 -0.5236542,0 -0.8199321,-0.283875 -0.296278,-0.285254 -0.296278,-0.78686 0,-0.478178 0.299034,-0.770322 0.2990341,-0.293522 0.8337125,-0.293522 0.2025715,0 0.3858504,0.03721 0.183279,0.03583 0.407899,0.144694 v 0.480935 h -0.059256 q -0.038585,-0.02894 -0.112999,-0.08131 -0.074414,-0.05374 -0.1433159,-0.09095 -0.079926,-0.0441 -0.1874131,-0.07579 -0.1061088,-0.03169 -0.225998,-0.03169 -0.1405598,0 -0.2549369,0.04134 -0.1143771,0.04134 -0.2053276,0.12678 -0.086816,0.08268 -0.1378037,0.210839 -0.049609,0.12678 -0.049609,0.293522 0,0.340375 0.1805229,0.520898 0.1805228,0.180523 0.5333003,0.180523 0.030317,0 0.066146,-0.0014 0.037207,-0.0014 0.067524,-0.0041 V 44.688848 H 4.9862529 V 44.30162 h 0.9467115 z"
         id="path9532" />
      <path
         d="M 8.3031883,45.43161 H 7.7561076 L 7.6141697,45.016821 H 6.8534932 L 6.7115554,45.43161 H 6.178255 L 6.9361755,43.379713 H 7.5452679 Z M 7.4860123,44.640617 7.2338315,43.904745 6.9816507,44.640617 Z"
         id="path9534" />
      <path
         d="M 10.203501,43.776587 H 9.5627141 V 45.43161 H 9.0335478 V 43.776587 H 8.3927606 v -0.396874 h 1.8107404 z"
         id="path9536" />
      <path
         d="m 12.005974,45.43161 h -1.484146 v -2.051897 h 1.484146 v 0.396874 h -0.957735 v 0.354156 h 0.888834 v 0.396875 h -0.888834 v 0.507117 h 0.957735 z"
         id="path9538" />
    </g>
    <g
       aria-label="V/OCT"
       transform="matrix(1.1697341,0,0,0.85489517,3.6152475,1.8076237)"
       id="text9496"
       style="font-weight:bold;font-size:2.82222px;-inkscape-font-specification:'sans-serif, Bold';fill:#ffd456;stroke-width:0.257341;paint-order:markers stroke fill">
      <path
         d="M 8.4991218,10.211849 7.7508476,12.263746 H 7.1582916 L 6.4100174,10.211849 h 0.555349 l 0.4960934,1.441427 0.4960934,-1.441427 z"
         id="path9541" />
      <path
         d="M 10.217534,10.11952 9.1247506,12.71023 H 8.7016932 l 1.0886493,-2.59071 z"
         id="path9543" />
      <path
         d="m 12.735208,11.238487 q 0,0.490581 -0.28112,0.779969 -0.281119,0.288009 -0.777213,0.288009 -0.494715,0 -0.775835,-0.288009 -0.281119,-0.289388 -0.281119,-0.779969 0,-0.494716 0.281119,-0.781347 0.28112,-0.28801 0.775835,-0.28801 0.493338,0 0.775835,0.28801 0.282498,0.286631 0.282498,0.781347 z m -0.701421,0.51952 q 0.07717,-0.09371 0.114377,-0.220486 0.03721,-0.128158 0.03721,-0.300412 0,-0.184657 -0.04272,-0.314193 -0.04272,-0.129535 -0.111621,-0.209462 -0.07028,-0.08268 -0.162609,-0.119889 -0.09095,-0.03721 -0.190169,-0.03721 -0.100596,0 -0.190169,0.03583 -0.08819,0.03583 -0.162608,0.118511 -0.0689,0.07717 -0.112999,0.213596 -0.04272,0.135048 -0.04272,0.314193 0,0.183279 0.04134,0.312814 0.04272,0.128158 0.111621,0.209462 0.0689,0.0813 0.16123,0.119889 0.09233,0.03859 0.194303,0.03859 0.101975,0 0.194304,-0.03859 0.09233,-0.03996 0.16123,-0.122645 z"
         id="path9545" />
      <path
         d="m 14.066392,12.303709 q -0.228754,0 -0.423058,-0.06752 -0.192925,-0.06752 -0.332107,-0.201194 -0.139181,-0.13367 -0.216351,-0.333485 -0.07579,-0.199815 -0.07579,-0.461642 0,-0.243913 0.07304,-0.44235 0.07304,-0.198438 0.212217,-0.340375 0.13367,-0.136426 0.330729,-0.21084 0.198438,-0.07441 0.432704,-0.07441 0.129535,0 0.232888,0.01516 0.104731,0.01378 0.192925,0.03721 0.09233,0.02618 0.166743,0.05926 0.07579,0.03169 0.132291,0.05926 v 0.497472 h -0.06063 q -0.03859,-0.03307 -0.09784,-0.07855 -0.05788,-0.04547 -0.132291,-0.08957 -0.07579,-0.0441 -0.163987,-0.07441 -0.08819,-0.03032 -0.188791,-0.03032 -0.111621,0 -0.212218,0.03583 -0.100596,0.03445 -0.186035,0.115756 -0.0813,0.07855 -0.132291,0.208083 -0.04961,0.129536 -0.04961,0.314193 0,0.192925 0.05374,0.32246 0.05512,0.129536 0.137804,0.20395 0.08406,0.07579 0.187413,0.108865 0.103352,0.03169 0.203949,0.03169 0.09646,0 0.190169,-0.02894 0.09509,-0.02894 0.175011,-0.07855 0.06752,-0.03996 0.125401,-0.08544 0.05788,-0.04547 0.09509,-0.07855 h 0.05512 v 0.490582 q -0.07717,0.03445 -0.14745,0.06477 -0.07028,0.03032 -0.14745,0.05237 -0.100596,0.02894 -0.188791,0.0441 -0.08819,0.01516 -0.242534,0.01516 z"
         id="path9547" />
      <path
         d="M 16.786638,10.608724 H 16.14585 v 1.655022 h -0.529166 v -1.655022 h -0.640787 v -0.396875 h 1.810741 z"
         id="path9549" />
    </g>
    <g
       aria-label="GATE"
       transform="matrix(1.1697341,0,0,0.85489515,3.3742309,1.8076237)"
       id="text9500"
       style="font-weight:bold;font-size:2.82222px;-inkscape-font-specification:'sans-serif, Bold';fill:#ffd456;stroke-width:0.257341;paint-order:markers stroke fill">
      <path
         d="m 19.688345,12.322314 q -0.137804,0.05374 -0.36518,0.107487 -0.227376,0.05237 -0.453374,0.05237 -0.523654,0 -0.819932,-0.283876 -0.296278,-0.285254 -0.296278,-0.786859 0,-0.478179 0.299034,-0.770323 0.299034,-0.293522 0.833712,-0.293522 0.202572,0 0.385851,0.03721 0.183279,0.03583 0.407899,0.144694 v 0.480935 h -0.05926 q -0.03858,-0.02894 -0.112999,-0.0813 -0.07441,-0.05374 -0.143316,-0.09095 -0.07993,-0.0441 -0.187413,-0.07579 -0.106109,-0.03169 -0.225998,-0.03169 -0.14056,0 -0.254937,0.04134 -0.114377,0.04134 -0.205327,0.12678 -0.08682,0.08268 -0.137804,0.21084 -0.04961,0.126779 -0.04961,0.293521 0,0.340376 0.180523,0.520899 0.180523,0.180522 0.533301,0.180522 0.03032,0 0.06615,-0.0014 0.03721,-0.0014 0.06752,-0.0041 V 11.696715 H 18.74163 v -0.387228 h 0.946712 z"
         id="path9552" />
      <path
         d="M 22.058569,12.439447 H 21.511488 L 21.36955,12.024658 h -0.760676 l -0.141938,0.414789 h -0.533301 l 0.757921,-2.051897 h 0.609092 z m -0.817176,-0.790993 -0.252181,-0.735872 -0.252181,0.735872 z"
         id="path9554" />
      <path
         d="m 23.958882,10.784425 h -0.640788 v 1.655022 H 22.788928 V 10.784425 H 22.148141 V 10.38755 h 1.810741 z"
         id="path9556" />
      <path
         d="M 25.761355,12.439447 H 24.277209 V 10.38755 h 1.484146 v 0.396875 h -0.957736 v 0.354155 h 0.888834 v 0.396875 h -0.888834 v 0.507118 h 0.957736 z"
         id="path9558" />
    </g>
    <g
       aria-label="VEL"
       transform="matrix(1.1697341,0,0,0.85489515,3.1332144,1.8076237)"
       id="text9504"
       style="font-weight:bold;font-size:2.82222px;-inkscape-font-specification:'sans-serif, Bold';fill:#ffd456;stroke-width:0.257341;paint-order:markers stroke fill">
      <path
         d="m 31.109768,10.388928 -0.748274,2.051897 h -0.592556 l -0.748274,-2.051897 h 0.555349 l 0.496093,1.441427 0.496093,-1.441427 z"
         id="path9561" />
      <path
         d="m 32.888814,12.440825 h -1.484146 v -2.051897 h 1.484146 v 0.396875 h -0.957736 v 0.354155 h 0.888834 v 0.396875 h -0.888834 v 0.507118 h 0.957736 z"
         id="path9563" />
      <path
         d="m 34.812554,12.440825 h -1.480012 v -2.051897 h 0.529166 v 1.655023 h 0.950846 z"
         id="path9565" />
    </g>
    <g
       aria-label="AFT"
       transform="matrix(1.1697341,0,0,0.85489515,0,1.8076237)"
       id="text9508"
       style="font-weight:bold;font-size:2.82222px;-inkscape-font-specification:'sans-serif, Bold';fill:#ffd456;stroke-width:0.257341;paint-order:markers stroke fill">
      <path
         d="m 41.270284,12.440825 h -0.547081 l -0.141937,-0.414789 h -0.760677 l -0.141938,0.414789 h -0.5333 l 0.75792,-2.051897 h 0.609093 z m -0.817176,-0.790993 -0.252181,-0.735872 -0.25218,0.735872 z"
         id="path9568" />
      <path
         d="m 43.03555,10.785803 h -0.943956 v 0.381716 h 0.875054 v 0.396875 h -0.875054 v 0.876431 h -0.52641 v -2.051897 h 1.470366 z"
         id="path9570" />
      <path
         d="m 45.006143,10.785803 h -0.640787 v 1.655022 h -0.529167 v -1.655022 h -0.640787 v -0.396875 h 1.810741 z"
         id="path9572" />
    </g>
    <g
       aria-label="PW"
       transform="matrix(1.1697341,0,0,0.85489515,-0.84355775,1.8076237)"
       id="text9512"
       style="font-weight:bold;font-size:2.82222px;-inkscape-font-specification:'sans-serif, Bold';fill:#ffd456;stroke-width:0.257341;paint-order:markers stroke fill">
      <path
         d="m 51.478346,11.036606 q 0,0.137803 -0.04823,0.270095 -0.04823,0.130913 -0.137803,0.220486 -0.122646,0.121267 -0.27423,0.183279 -0.150206,0.06201 -0.374826,0.06201 h -0.329351 v 0.668348 H 49.78474 v -2.051897 h 0.87092 q 0.195681,0 0.32935,0.03445 0.135048,0.03307 0.238401,0.100597 0.124023,0.0813 0.188791,0.208083 0.06615,0.12678 0.06615,0.304547 z m -0.547081,0.0124 q 0,-0.08682 -0.04685,-0.148828 -0.04685,-0.06339 -0.108865,-0.08819 -0.08268,-0.03307 -0.161231,-0.03583 -0.07855,-0.0041 -0.209461,-0.0041 h -0.09095 v 0.614605 h 0.151584 q 0.135048,0 0.221864,-0.01654 0.0882,-0.01654 0.14745,-0.06615 0.05099,-0.0441 0.07304,-0.104731 0.02343,-0.06201 0.02343,-0.150206 z"
         id="path9575" />
      <path
         d="m 54.685038,10.388928 -0.552593,2.051897 H 53.54678 l -0.367936,-1.336696 -0.35829,1.336696 h -0.585666 l -0.552593,-2.051897 h 0.552593 l 0.315571,1.412488 0.377582,-1.412488 h 0.527788 l 0.359668,1.412488 0.330729,-1.412488 z"
         id="path9577" />
    </g>
    <g
       aria-label="MW"
       transform="matrix(1.1697341,0,0,0.85489516,-2.892198,1.8076237)"
       id="text9516"
       style="font-weight:bold;font-size:2.82222px;-inkscape-font-specification:'sans-serif, Bold';fill:#ffd456;stroke-width:0.257341;paint-order:markers stroke fill">
      <path
         d="m 61.791826,12.440825 h -0.52641 v -1.373903 l -0.380338,0.89159 h -0.36518 l -0.380338,-0.89159 v 1.373903 h -0.49885 v -2.051897 h 0.614605 l 0.461642,1.029394 0.460265,-1.029394 h 0.614604 z"
         id="path9580" />
      <path
         d="m 65.147347,10.388928 -0.552593,2.051897 h -0.585666 l -0.367936,-1.336696 -0.358289,1.336696 h -0.585666 l -0.552593,-2.051897 h 0.552593 l 0.31557,1.412488 0.377583,-1.412488 h 0.527788 l 0.359667,1.412488 0.330729,-1.412488 z"
         id="path9582" />
    </g>
    <rect
       style="fill:#222226;fill-opacity:1;stroke-width:0.22;paint-order:markers stroke fill"
       id="rect9868"
       width="14.219974"
       height="7.5920196"
       x="1.6871156"
       y="74.715118"
       inkscape:path-effect="#path-effect10104"
       d="m 3.6871156,74.715118 10.2199734,0 a 2,2 45 0 1 2,2 v 3.59202 a 2,2 135 0 1 -2,2 H 3.6871156 a 2,2 45 0 1 -2,-2 v -3.59202 a 2,2 135 0 1 2,-2 z" />
  </g>
  <g
     id="layer2"
     inkscape:label="components"
     style="display:none"
     transform="translate(-10.16)"
     inkscape:groupmode="layer"
     sodipodi:insensitive="true">
    <circle
       style="fill:#0000ff;fill-opacity:1;stroke-width:0.0642894"
       id="path930"
       cx="20.32"
       cy="65.048264"
       r="2.54"
       inkscape:label="output example" />
    <circle
       style="fill:#00ff00;fill-opacity:1;stroke-width:0.0642894"
       id="circle28"
       cx="20.32"
       cy="46.498661"
       r="2.54"
       inkscape:label="input example" />
    <circle
       style="fill:#ff0000;fill-opacity:1;stroke-width:0.0642894"
       id="circle932"
       cx="20.32"
       cy="27.949057"
       r="2.54"
       inkscape:label="param example" />
    <circle
       style="fill:#ff00ff;fill-opacity:1;stroke-width:0.0642894"
       id="circle985"
       cx="20.32"
       cy="86.21492"
       r="2.54"
       inkscape:label="light example" />
  </g>
</svg>
