<?xml version="1.0" encoding="UTF-8" standalone="no"?>
<svg
   width="86.360001mm"
   height="128.5mm"
   viewBox="0 0 86.360002 128.5"
   version="1.1"
   id="svg8"
   inkscape:version="1.2.1 (9c6d41e4, 2022-07-14)"
   sodipodi:docname="MIDIRecorder.svg"
   xmlns:inkscape="http://www.inkscape.org/namespaces/inkscape"
   xmlns:sodipodi="http://sodipodi.sourceforge.net/DTD/sodipodi-0.dtd"
   xmlns="http://www.w3.org/2000/svg"
   xmlns:svg="http://www.w3.org/2000/svg"
   xmlns:rdf="http://www.w3.org/1999/02/22-rdf-syntax-ns#"
   xmlns:cc="http://creativecommons.org/ns#"
   xmlns:dc="http://purl.org/dc/elements/1.1/">
  <defs
     id="defs2">
    <rect
       x="130.26277"
       y="65.586851"
       width="64.675923"
       height="17.307641"
       id="rect1854" />
    <rect
       x="22.773212"
       y="117.50977"
       width="10.931142"
       height="11.84207"
       id="rect895" />
  </defs>
  <sodipodi:namedview
     id="base"
     pagecolor="#ffffff"
     bordercolor="#666666"
     borderopacity="1.0"
     inkscape:pageopacity="0.0"
     inkscape:pageshadow="2"
     inkscape:zoom="1.097781"
     inkscape:cx="24.595069"
     inkscape:cy="252.78266"
     inkscape:document-units="mm"
     inkscape:current-layer="layer1"
     inkscape:document-rotation="0"
     showgrid="false"
     inkscape:showpageshadow="false"
     inkscape:window-width="1309"
     inkscape:window-height="847"
     inkscape:window-x="50"
     inkscape:window-y="300"
     inkscape:window-maximized="0"
     inkscape:pagecheckerboard="0"
     width="20.32mm"
     inkscape:deskcolor="#d1d1d1" />
  <metadata
     id="metadata5">
    <rdf:RDF>
      <cc:Work
         rdf:about="">
        <dc:format>image/svg+xml</dc:format>
        <dc:type
           rdf:resource="http://purl.org/dc/dcmitype/StillImage" />
      </cc:Work>
    </rdf:RDF>
  </metadata>
  <g
     inkscape:label="panel"
     inkscape:groupmode="layer"
     id="layer1"
     style="display:inline">
    <path
       id="rect11"
       style="fill:#333333;fill-rule:evenodd;stroke-width:3.37142"
       inkscape:label="background"
       d="M 1.4327244e-8,5.0353368e-8 H 86.73742 V 128.5 H 1.4327244e-8 Z" />
    <g
       aria-label="Chinenual"
       id="text624"
       style="font-size:3.88056px;-inkscape-font-specification:'sans-serif, Normal';fill:#ffd556;stroke-width:0.264583"
       transform="translate(2.7932696)">
      <path
         d="m 33.308488,126.088 q -0.104214,0.0455 -0.189481,0.0853 -0.08337,0.0398 -0.219797,0.0834 -0.115583,0.036 -0.252009,0.0606 -0.134531,0.0265 -0.297484,0.0265 -0.306959,0 -0.558968,-0.0853 -0.250114,-0.0872 -0.435805,-0.27095 -0.181901,-0.18001 -0.28422,-0.45665 -0.10232,-0.27854 -0.10232,-0.64613 0,-0.34864 0.09853,-0.62339 0.09853,-0.27475 0.284221,-0.46423 0.180006,-0.18379 0.43391,-0.28043 0.255799,-0.0966 0.566547,-0.0966 0.227376,0 0.452858,0.055 0.227376,0.0549 0.504018,0.19327 v 0.44528 h -0.02842 q -0.233061,-0.19517 -0.462332,-0.28423 -0.229272,-0.0891 -0.490755,-0.0891 -0.214113,0 -0.38654,0.0701 -0.170532,0.0682 -0.305064,0.21411 -0.130741,0.14211 -0.204638,0.36001 -0.072,0.21601 -0.072,0.50023 0,0.29749 0.07958,0.5116 0.08148,0.21411 0.208428,0.34864 0.132637,0.14022 0.308853,0.20843 0.178112,0.0663 0.375172,0.0663 0.270957,0 0.507807,-0.0928 0.236851,-0.0928 0.443385,-0.27853 h 0.02653 z"
         id="path730" />
      <path
         d="m 35.580359,126.29264 h -0.356224 v -1.2051 q 0,-0.1459 -0.01705,-0.27285 -0.01705,-0.12884 -0.06253,-0.20085 -0.04737,-0.0796 -0.136426,-0.11747 -0.08906,-0.0398 -0.231166,-0.0398 -0.1459,0 -0.305064,0.072 -0.159164,0.072 -0.305064,0.18379 v 1.58027 h -0.356223 v -2.94832 h 0.356223 v 1.06678 q 0.166743,-0.13832 0.344855,-0.21601 0.178111,-0.0777 0.365697,-0.0777 0.34296,0 0.522966,0.20654 0.180007,0.20653 0.180007,0.59497 z"
         id="path732" />
      <path
         d="M 36.649028,123.82182 H 36.24733 v -0.36949 h 0.401698 z m -0.02274,2.47082 h -0.356223 v -2.1165 h 0.356223 z"
         id="path734" />
      <path
         d="m 39.100906,126.29264 h -0.356223 v -1.2051 q 0,-0.1459 -0.01705,-0.27285 -0.01705,-0.12884 -0.06253,-0.20085 -0.04737,-0.0796 -0.136426,-0.11747 -0.08906,-0.0398 -0.231166,-0.0398 -0.1459,0 -0.305064,0.072 -0.159163,0.072 -0.305063,0.18379 v 1.58027 H 37.33116 v -2.1165 h 0.356224 v 0.23496 q 0.166742,-0.13832 0.344854,-0.21601 0.178112,-0.0777 0.365697,-0.0777 0.34296,0 0.522966,0.20654 0.180007,0.20653 0.180007,0.59497 z"
         id="path736" />
      <path
         d="m 41.558467,125.27134 h -1.559424 q 0,0.19517 0.05874,0.34107 0.05874,0.144 0.161058,0.23685 0.09853,0.0909 0.233061,0.13642 0.136426,0.0455 0.299379,0.0455 0.216008,0 0.433911,-0.0853 0.219797,-0.0872 0.312642,-0.17053 h 0.01895 v 0.38843 q -0.180006,0.0758 -0.367592,0.12696 -0.187585,0.0512 -0.394119,0.0512 -0.526756,0 -0.822345,-0.28423 -0.29559,-0.28611 -0.29559,-0.81097 0,-0.51918 0.282326,-0.82424 0.284221,-0.30507 0.746553,-0.30507 0.428226,0 0.659392,0.25012 0.233061,0.25011 0.233061,0.71055 z m -0.346749,-0.27285 q -0.0019,-0.28043 -0.14211,-0.43391 -0.138321,-0.15348 -0.422542,-0.15348 -0.286115,0 -0.456648,0.16864 -0.168637,0.16863 -0.191375,0.41875 z"
         id="path738" />
      <path
         d="m 43.868234,126.29264 h -0.356223 v -1.2051 q 0,-0.1459 -0.01705,-0.27285 -0.01705,-0.12884 -0.06253,-0.20085 -0.04737,-0.0796 -0.136426,-0.11747 -0.08906,-0.0398 -0.231166,-0.0398 -0.1459,0 -0.305064,0.072 -0.159163,0.072 -0.305063,0.18379 v 1.58027 h -0.356223 v -2.1165 h 0.356223 v 0.23496 q 0.166743,-0.13832 0.344854,-0.21601 0.178112,-0.0777 0.365698,-0.0777 0.342959,0 0.522966,0.20654 0.180006,0.20653 0.180006,0.59497 z"
         id="path740" />
      <path
         d="m 46.308742,126.29264 h -0.356223 v -0.23496 q -0.180007,0.14212 -0.344855,0.21791 -0.164848,0.0758 -0.363802,0.0758 -0.333486,0 -0.519176,-0.20274 -0.185691,-0.20464 -0.185691,-0.59876 v -1.37374 h 0.356223 v 1.2051 q 0,0.16106 0.01516,0.27664 0.01516,0.11369 0.06442,0.19517 0.05116,0.0834 0.132636,0.12126 0.08148,0.0379 0.236851,0.0379 0.13832,0 0.301274,-0.072 0.164848,-0.072 0.306958,-0.1838 v -1.58027 h 0.356223 z"
         id="path742" />
      <path
         d="m 48.654511,126.29264 h -0.354328 v -0.22548 q -0.04737,0.0322 -0.128847,0.0909 -0.07958,0.0568 -0.155374,0.091 -0.08906,0.0436 -0.204639,0.072 -0.115583,0.0303 -0.270957,0.0303 -0.286116,0 -0.48507,-0.18948 -0.198955,-0.18948 -0.198955,-0.48318 0,-0.24064 0.10232,-0.38843 0.104214,-0.14969 0.295589,-0.23496 0.19327,-0.0853 0.464228,-0.11558 0.270957,-0.0303 0.581705,-0.0455 v -0.0549 q 0,-0.12127 -0.04358,-0.20085 -0.04169,-0.0796 -0.121267,-0.12506 -0.07579,-0.0436 -0.181902,-0.0587 -0.106109,-0.0152 -0.221692,-0.0152 -0.140215,0 -0.312643,0.0379 -0.172427,0.036 -0.356223,0.10611 h -0.01895 v -0.36191 q 0.104214,-0.0284 0.301274,-0.0625 0.19706,-0.0341 0.388435,-0.0341 0.223587,0 0.388435,0.0379 0.166743,0.036 0.28801,0.12506 0.119373,0.0872 0.181901,0.22548 0.06253,0.13832 0.06253,0.34296 z m -0.354328,-0.52107 v -0.58928 q -0.162954,0.009 -0.384646,0.0284 -0.219797,0.0189 -0.348644,0.0549 -0.153479,0.0436 -0.248219,0.13642 -0.09474,0.091 -0.09474,0.25201 0,0.1819 0.109898,0.27475 0.109899,0.091 0.335381,0.091 0.187585,0 0.342959,-0.072 0.155374,-0.0739 0.288011,-0.17622 z"
         id="path744" />
      <path
         d="M 49.700443,126.29264 H 49.34422 v -2.94832 h 0.356223 z"
         id="path746" />
    </g>
    <g
       aria-label="MIDI Recorder"
       id="text628"
       style="font-weight:bold;font-size:3.88056px;-inkscape-font-specification:'sans-serif, Bold';fill:#ffd556;stroke-width:0.264583"
       transform="translate(5.9264646)">
      <path
         d="M 24.286238,5.3023629 H 23.562423 V 3.4132427 L 23.039457,4.6391813 H 22.537334 L 22.014367,3.4132427 V 5.3023629 H 21.328448 V 2.4809988 h 0.845083 l 0.63476,1.4154191 0.632864,-1.4154191 h 0.845083 z"
         id="path705" />
      <path
         d="m 26.531582,5.3023629 h -1.65227 V 4.8021345 h 0.462333 V 2.9812272 H 24.879312 V 2.4809988 h 1.65227 v 0.5002284 h -0.462333 v 1.8209073 h 0.462333 z"
         id="path707" />
      <path
         d="m 29.790646,3.8945231 q 0,0.3941193 -0.180007,0.7067621 -0.180006,0.310748 -0.454753,0.4774908 -0.206534,0.1250571 -0.452858,0.174322 -0.246325,0.049265 -0.5836,0.049265 H 27.124656 V 2.4809988 h 1.023194 q 0.344855,0 0.594969,0.058739 0.250114,0.056844 0.420646,0.1629532 0.2918,0.1781117 0.458543,0.4812804 0.168638,0.301274 0.168638,0.7105517 z m -0.752238,-0.00568 q 0,-0.2785363 -0.102319,-0.475596 -0.100425,-0.1989545 -0.320222,-0.310748 -0.111794,-0.054949 -0.229272,-0.073897 -0.115583,-0.020843 -0.350538,-0.020843 H 27.852261 V 4.773717 h 0.183796 q 0.259588,0 0.380855,-0.022738 0.121268,-0.024633 0.236851,-0.087161 0.198954,-0.1136883 0.2918,-0.3031688 0.09285,-0.1913753 0.09285,-0.4718063 z"
         id="path709" />
      <path
         d="m 31.871141,5.3023629 h -1.65227 V 4.8021345 h 0.462333 V 2.9812272 H 30.218871 V 2.4809988 h 1.65227 v 0.5002284 h -0.462332 v 1.8209073 h 0.462332 z"
         id="path711" />
      <path
         d="m 35.37274,3.3450297 q 0,-0.106109 -0.04358,-0.1819012 -0.04358,-0.075792 -0.149689,-0.1193727 -0.0739,-0.030317 -0.172428,-0.036001 -0.09853,-0.00758 -0.229271,-0.00758 h -0.263378 v 0.7598166 h 0.223587 q 0.174322,0 0.2918,-0.017053 0.117478,-0.017053 0.19706,-0.077687 0.07579,-0.058739 0.109898,-0.1288467 0.036,-0.072003 0.036,-0.1913753 z m 1.134988,1.9573332 H 35.619064 L 34.849774,4.2677996 H 34.514393 V 5.3023629 H 33.790578 V 2.4809988 h 1.220254 q 0.250114,0 0.430121,0.028422 0.180006,0.028422 0.337275,0.1231623 0.159163,0.09474 0.252009,0.2463246 0.09474,0.1496895 0.09474,0.3770661 0,0.3126428 -0.1459,0.5097024 -0.144005,0.1970597 -0.413067,0.3278013 z"
         id="path713" />
      <path
         d="m 38.883813,4.3644346 h -1.561319 q 0.01516,0.2501142 0.189481,0.3827506 0.176217,0.1326363 0.517281,0.1326363 0.216008,0 0.418752,-0.077687 0.202744,-0.077687 0.320222,-0.1667428 h 0.07579 v 0.5475985 q -0.231166,0.092846 -0.435805,0.1345312 -0.204639,0.041686 -0.452858,0.041686 -0.640444,0 -0.981509,-0.2880103 -0.341065,-0.2880104 -0.341065,-0.8204505 0,-0.5267557 0.322117,-0.833714 0.324012,-0.3088532 0.886769,-0.3088532 0.519176,0 0.780659,0.2633779 0.261483,0.261483 0.261483,0.7541322 z M 38.205473,3.9646308 Q 38.199789,3.7505179 38.099364,3.642514 37.998939,3.5345102 37.786721,3.5345102 q -0.197059,0 -0.324011,0.1023194 -0.126952,0.1023195 -0.142111,0.3278012 z"
         id="path715" />
      <path
         d="m 40.473554,5.3592071 q -0.278536,0 -0.509703,-0.066318 Q 39.73458,5.2265707 39.564048,5.08825 39.39541,4.9499293 39.302565,4.7396059 q -0.09285,-0.2103233 -0.09285,-0.4926492 0,-0.2974843 0.09853,-0.513492 0.100425,-0.2160078 0.278536,-0.3581181 0.172428,-0.1345311 0.397909,-0.1970597 0.225482,-0.062528 0.468017,-0.062528 0.217903,0 0.401699,0.04737 0.183796,0.04737 0.342959,0.1231623 v 0.581705 h -0.09663 q -0.03979,-0.034107 -0.09664,-0.079582 -0.05495,-0.045475 -0.136426,-0.089056 -0.07769,-0.041686 -0.170532,-0.068213 -0.09285,-0.028422 -0.216008,-0.028422 -0.272852,0 -0.420647,0.1743221 -0.145899,0.1724272 -0.145899,0.4699115 0,0.3069584 0.149689,0.466122 0.151584,0.1591636 0.428226,0.1591636 0.128847,0 0.231166,-0.028422 0.104214,-0.030317 0.172427,-0.070108 0.06442,-0.037896 0.113689,-0.079582 0.04926,-0.041686 0.09095,-0.081477 h 0.09663 v 0.5817051 q -0.161058,0.075792 -0.337275,0.1193726 -0.174322,0.045475 -0.38654,0.045475 z"
         id="path717" />
      <path
         d="m 43.823568,4.2393775 q 0,0.5248609 -0.306958,0.8280296 -0.305064,0.301274 -0.858347,0.301274 -0.553283,0 -0.860241,-0.301274 -0.305063,-0.3031687 -0.305063,-0.8280296 0,-0.5286505 0.306958,-0.8299244 0.308853,-0.301274 0.858346,-0.301274 0.557073,0 0.860242,0.3031688 0.305063,0.3031687 0.305063,0.8280296 z M 42.98417,4.7566592 q 0.06632,-0.081477 0.09853,-0.1951649 0.03411,-0.1155831 0.03411,-0.3183272 0,-0.1875856 -0.03411,-0.3145376 -0.03411,-0.1269519 -0.09474,-0.202744 -0.06063,-0.077687 -0.1459,-0.1098987 -0.08527,-0.032212 -0.183796,-0.032212 -0.09853,0 -0.176216,0.026527 -0.07579,0.026527 -0.1459,0.106109 -0.06253,0.073897 -0.100425,0.2027441 -0.036,0.1288467 -0.036,0.3240116 0,0.174322 0.03221,0.3031688 0.03221,0.1269519 0.09474,0.2046389 0.06063,0.073897 0.144005,0.1080038 0.08527,0.034107 0.19327,0.034107 0.09285,0 0.176217,-0.030317 0.08527,-0.032212 0.144005,-0.1061088 z"
         id="path719" />
      <path
         d="m 45.8548,3.8244153 h -0.06063 q -0.04358,-0.015158 -0.140216,-0.022738 -0.09663,-0.00758 -0.161058,-0.00758 -0.1459,0 -0.257694,0.018948 -0.111793,0.018948 -0.24064,0.064423 v 1.4248931 h -0.68213 V 3.1744973 h 0.68213 v 0.3126428 q 0.225482,-0.1932701 0.392225,-0.2557987 0.166742,-0.064423 0.306958,-0.064423 0.036,0 0.08148,0.00189 0.04548,0.00189 0.07958,0.00568 z"
         id="path721" />
      <path
         d="M 48.310465,5.3023629 H 47.628336 V 5.0806708 q -0.176217,0.1440051 -0.329696,0.2122181 -0.15348,0.068213 -0.354329,0.068213 -0.388435,0 -0.621496,-0.2993792 -0.233061,-0.2993791 -0.233061,-0.8071868 0,-0.270957 0.07769,-0.4793855 0.07958,-0.2103233 0.216008,-0.3600129 0.128847,-0.1421104 0.312643,-0.2197974 0.183796,-0.079582 0.367592,-0.079582 0.191375,0 0.312643,0.041686 0.123162,0.039791 0.252009,0.1023194 V 2.3540469 h 0.682129 z M 47.628336,4.7149735 V 3.6709361 q -0.072,-0.030317 -0.151585,-0.043581 -0.07958,-0.013264 -0.1459,-0.013264 -0.269062,0 -0.403593,0.1686376 -0.134531,0.1667428 -0.134531,0.4642271 0,0.3126428 0.108004,0.4547531 0.108004,0.1402156 0.346749,0.1402156 0.09284,0 0.19706,-0.034107 0.104214,-0.036001 0.183796,-0.092844 z"
         id="path723" />
      <path
         d="m 51.050354,4.3644346 h -1.561319 q 0.01516,0.2501142 0.189481,0.3827506 0.176217,0.1326363 0.517281,0.1326363 0.216008,0 0.418752,-0.077687 0.202744,-0.077687 0.320222,-0.1667428 h 0.07579 v 0.5475985 q -0.231166,0.092846 -0.435805,0.1345312 -0.204639,0.041686 -0.452858,0.041686 -0.640444,0 -0.981509,-0.2880103 -0.341065,-0.2880104 -0.341065,-0.8204505 0,-0.5267557 0.322117,-0.833714 0.324012,-0.3088532 0.886769,-0.3088532 0.519176,0 0.780659,0.2633779 0.261483,0.261483 0.261483,0.7541322 z M 50.372014,3.9646308 Q 50.36633,3.7505179 50.265905,3.642514 50.165481,3.5345102 49.953262,3.5345102 q -0.197059,0 -0.324011,0.1023194 -0.126952,0.1023195 -0.14211,0.3278012 z"
         id="path725" />
      <path
         d="m 53.074004,3.8244153 h -0.06063 q -0.04358,-0.015158 -0.140216,-0.022738 -0.09663,-0.00758 -0.161058,-0.00758 -0.1459,0 -0.257694,0.018948 -0.111793,0.018948 -0.24064,0.064423 v 1.4248931 h -0.68213 V 3.1744973 h 0.68213 v 0.3126428 q 0.225482,-0.1932701 0.392225,-0.2557987 0.166742,-0.064423 0.306958,-0.064423 0.036,0 0.08148,0.00189 0.04548,0.00189 0.07958,0.00568 z"
         id="path727" />
    </g>
    <g
       transform="scale(0.26458333)"
       id="text893"
       style="font-size:10.6667px;-inkscape-font-specification:'sans-serif, Normal';white-space:pre;shape-inside:url(#rect895);fill:#ffd556" />
    <g
       aria-label="V/OCT"
       id="text901"
       style="font-size:2.11667px;-inkscape-font-specification:'sans-serif, Normal';fill:#ffd556;stroke-width:0.264583"
       transform="translate(1.6871155,-6.567701)">
      <path
         d="m 17.390378,16.053313 -0.560174,1.538926 h -0.272851 l -0.560174,-1.538926 h 0.219109 l 0.482658,1.353924 0.482659,-1.353924 z"
         id="path953" />
      <path
         d="m 18.306086,15.984066 -0.741041,1.922367 h -0.178801 l 0.73794,-1.922367 z"
         id="path955" />
      <path
         d="m 19.732357,16.230047 q 0.09405,0.103353 0.143661,0.253214 0.05064,0.149862 0.05064,0.340032 0,0.190169 -0.05168,0.341065 -0.05064,0.149862 -0.142628,0.250114 -0.09508,0.104387 -0.225309,0.157097 -0.129192,0.05271 -0.29559,0.05271 -0.162264,0 -0.29559,-0.05374 -0.132291,-0.05374 -0.225309,-0.156063 -0.09302,-0.102319 -0.143661,-0.251148 -0.04961,-0.148828 -0.04961,-0.340031 0,-0.188103 0.04961,-0.336931 0.04961,-0.149862 0.144694,-0.256315 0.09095,-0.101286 0.22531,-0.15503 0.135392,-0.05374 0.294556,-0.05374 0.165365,0 0.296623,0.05478 0.132292,0.05374 0.224276,0.153996 z m -0.0186,0.593246 q 0,-0.299724 -0.134359,-0.461988 -0.134359,-0.163298 -0.366903,-0.163298 -0.234612,0 -0.368971,0.163298 -0.133325,0.162264 -0.133325,0.461988 0,0.302824 0.136426,0.464055 0.136426,0.160197 0.36587,0.160197 0.229443,0 0.364836,-0.160197 0.136426,-0.161231 0.136426,-0.464055 z"
         id="path957" />
      <path
         d="m 21.439749,17.480618 q -0.05684,0.02481 -0.103353,0.04651 -0.04547,0.0217 -0.119889,0.04547 -0.06304,0.01964 -0.13746,0.03307 -0.07338,0.01447 -0.162264,0.01447 -0.167432,0 -0.304891,-0.04651 -0.136426,-0.04754 -0.237712,-0.147795 -0.09922,-0.09818 -0.15503,-0.249081 -0.05581,-0.151929 -0.05581,-0.352434 0,-0.190169 0.05374,-0.340031 0.05374,-0.149862 0.15503,-0.253215 0.09819,-0.100252 0.236678,-0.152962 0.139527,-0.05271 0.309026,-0.05271 0.124023,0 0.247013,0.02997 0.124024,0.02997 0.274919,0.10542 v 0.24288 h -0.0155 q -0.127125,-0.106454 -0.252182,-0.15503 -0.125057,-0.04858 -0.267684,-0.04858 -0.116789,0 -0.21084,0.03824 -0.09302,0.03721 -0.166399,0.116789 -0.07131,0.07751 -0.111621,0.19637 -0.03927,0.117823 -0.03927,0.272852 0,0.162265 0.04341,0.279054 0.04444,0.116789 0.113688,0.190169 0.07235,0.07648 0.168466,0.113688 0.09715,0.03617 0.204639,0.03617 0.147795,0 0.276986,-0.05064 0.129191,-0.05064 0.241846,-0.151929 h 0.01447 z"
         id="path959" />
      <path
         d="m 22.826747,16.235214 h -0.549838 v 1.357025 H 22.07227 v -1.357025 h -0.549838 v -0.181901 h 1.304315 z"
         id="path961" />
    </g>
    <g
       aria-label="GATE"
       id="text905"
       style="font-size:2.11667px;-inkscape-font-specification:'sans-serif, Normal';fill:#ffd556;stroke-width:0.264583"
       transform="translate(3.5162678,-6.5676955)">
      <path
         d="m 28.988193,17.59999 q -0.12609,0.05788 -0.275952,0.101286 -0.148829,0.04237 -0.288355,0.04237 -0.179834,0 -0.329696,-0.04961 -0.149862,-0.04961 -0.255282,-0.148828 -0.106454,-0.100252 -0.164332,-0.250114 -0.05788,-0.150896 -0.05788,-0.352434 0,-0.36897 0.214974,-0.581878 0.216008,-0.21394 0.592213,-0.21394 0.131258,0 0.267684,0.03204 0.13746,0.03101 0.29559,0.106454 v 0.242879 h -0.0186 q -0.03204,-0.02481 -0.09302,-0.06511 -0.06098,-0.04031 -0.11989,-0.06718 -0.07131,-0.03204 -0.162264,-0.05271 -0.08992,-0.0217 -0.204639,-0.0217 -0.258383,0 -0.409278,0.166399 -0.149862,0.165364 -0.149862,0.448552 0,0.29869 0.157097,0.465088 0.157096,0.165365 0.427881,0.165365 0.09922,0 0.197404,-0.01964 0.09922,-0.01964 0.173633,-0.05064 V 17.1194 h -0.412378 v -0.179834 h 0.61495 z"
         id="path944" />
      <path
         d="M 30.559159,17.713678 H 30.341084 L 30.190189,17.284763 H 29.524596 L 29.3737,17.713678 h -0.207739 l 0.560173,-1.538926 h 0.272852 z m -0.432015,-0.604615 -0.269752,-0.75551 -0.270785,0.75551 z"
         id="path946" />
      <path
         d="m 31.766323,16.356653 h -0.549838 v 1.357025 h -0.204639 v -1.357025 h -0.549838 v -0.181901 h 1.304315 z"
         id="path948" />
      <path
         d="m 32.986922,17.713678 h -1.013893 v -1.538926 h 1.013893 v 0.181901 h -0.809254 v 0.421681 h 0.809254 v 0.181901 h -0.809254 v 0.571542 h 0.809254 z"
         id="path950" />
    </g>
    <g
       aria-label="VEL"
       id="text909"
       style="font-size:2.11667px;-inkscape-font-specification:'sans-serif, Normal';fill:#ffd556;stroke-width:0.264583"
       transform="translate(3.9000192,-6.5677005)">
      <path
         d="m 40.615471,16.175786 -0.560174,1.538926 h -0.272852 l -0.560173,-1.538926 h 0.219108 l 0.482659,1.353924 0.482659,-1.353924 z"
         id="path937" />
      <path
         d="m 41.862942,17.714712 h -1.013893 v -1.538926 h 1.013893 v 0.181901 h -0.809254 v 0.42168 h 0.809254 v 0.181902 h -0.809254 v 0.571542 h 0.809254 z"
         id="path939" />
      <path
         d="M 43.161056,17.714712 H 42.18747 v -1.538926 h 0.204639 v 1.357025 h 0.768947 z"
         id="path941" />
    </g>
    <g
       aria-label="MW
"
       id="text921"
       style="font-size:2.11667px;-inkscape-font-specification:'sans-serif, Normal';fill:#ffd556;stroke-width:0.264583"
       transform="translate(12.773875,-6.5677005)">
      <path
         d="m 62.55434,17.714712 h -0.204639 v -1.326019 l -0.427882,0.902272 h -0.121956 l -0.424781,-0.902272 v 1.326019 h -0.191203 v -1.538926 h 0.279053 l 0.410312,0.856796 0.396875,-0.856796 h 0.284221 z"
         id="path927" />
      <path
         d="m 64.75886,16.175786 -0.399976,1.538926 h -0.230477 l -0.323495,-1.277443 -0.316261,1.277443 h -0.225309 l -0.407211,-1.538926 h 0.209806 l 0.323495,1.27951 0.318328,-1.27951 h 0.207739 l 0.321428,1.291912 0.321428,-1.291912 z"
         id="path929" />
    </g>
    <g
       aria-label="GATE"
       id="text1425"
       style="font-size:2.11667px;-inkscape-font-specification:'sans-serif, Normal';fill:#ffd556;stroke-width:0.264583"
       transform="translate(0.96406598,1.6871155)">
      <path
         d="m 7.3186716,109.06679 q -0.1260907,0.0579 -0.2759526,0.10128 -0.1488284,0.0424 -0.2883549,0.0424 -0.1798343,0 -0.3296962,-0.0496 -0.1498619,-0.0496 -0.2552819,-0.14883 -0.1064537,-0.10025 -0.1643314,-0.25012 -0.057878,-0.15089 -0.057878,-0.35243 0,-0.36897 0.2149742,-0.58188 0.2160079,-0.21394 0.5922129,-0.21394 0.1312583,0 0.2676843,0.032 0.1374595,0.031 0.2955896,0.10645 v 0.24288 h -0.018603 q -0.03204,-0.0248 -0.093018,-0.0651 -0.060978,-0.0403 -0.1198895,-0.0672 -0.071314,-0.032 -0.1622643,-0.0527 -0.089917,-0.0217 -0.204639,-0.0217 -0.2583825,0 -0.4092779,0.1664 -0.1498619,0.16536 -0.1498619,0.44855 0,0.29869 0.1570966,0.46509 0.1570966,0.16536 0.4278815,0.16536 0.099219,0 0.1974043,-0.0196 0.099219,-0.0196 0.173633,-0.0506 v -0.37724 H 6.7037211 v -0.17983 h 0.6149505 z"
         id="path1667" />
      <path
         d="M 8.8896375,109.18047 H 8.6715626 L 8.5206672,108.75156 H 7.8550737 l -0.1508954,0.42891 H 7.4964387 l 0.5601734,-1.53892 h 0.272852 z m -0.4320157,-0.60461 -0.2697514,-0.75551 -0.2707849,0.75551 z"
         id="path1669" />
      <path
         d="M 10.096801,107.82345 H 9.5469628 v 1.35702 h -0.204639 v -1.35702 H 8.7924857 v -0.1819 h 1.3043153 z"
         id="path1671" />
      <path
         d="m 11.3174,109.18047 h -1.013893 v -1.53892 H 11.3174 v 0.1819 h -0.809254 v 0.42168 H 11.3174 v 0.1819 h -0.809254 v 0.57154 H 11.3174 Z"
         id="path1673" />
    </g>
    <g
       aria-label="BPM"
       id="text1429"
       style="font-size:2.11667px;-inkscape-font-specification:'sans-serif, Normal';fill:#ffd556;stroke-width:0.264583"
       transform="translate(0.96406598,1.6871155)">
      <path
         d="m 7.7439693,88.220712 q 0,0.114722 -0.043408,0.202572 -0.043408,0.08785 -0.116789,0.144694 -0.086817,0.06821 -0.191203,0.09715 -0.1033531,0.02894 -0.2635503,0.02894 H 6.5833149 v -1.538927 h 0.4557868 q 0.1684654,0 0.2521814,0.0124 0.083716,0.0124 0.1601972,0.05168 0.08475,0.04444 0.1229901,0.114722 0.038241,0.06925 0.038241,0.166399 0,0.109554 -0.055811,0.187068 -0.055811,0.07648 -0.1488284,0.122991 v 0.0083 q 0.1560631,0.03204 0.2459802,0.137459 0.089917,0.104387 0.089917,0.264584 z M 7.3998038,87.527213 q 0,-0.05581 -0.018604,-0.09405 -0.018604,-0.03824 -0.059945,-0.06201 -0.048576,-0.02791 -0.1178225,-0.03411 -0.069247,-0.0072 -0.171566,-0.0072 H 6.7879539 v 0.444418 h 0.2645837 q 0.096118,0 0.1529625,-0.0093 0.056844,-0.01034 0.1054201,-0.04134 0.048576,-0.03101 0.068213,-0.07958 0.020671,-0.04961 0.020671,-0.116789 z m 0.1312583,0.701767 q 0,-0.09302 -0.027905,-0.147795 -0.027905,-0.05478 -0.101286,-0.09302 -0.049609,-0.02584 -0.120923,-0.03307 -0.07028,-0.0083 -0.171566,-0.0083 H 6.7879539 v 0.572575 h 0.2707849 q 0.1343589,0 0.2201419,-0.01344 0.085783,-0.01447 0.1405601,-0.05168 0.057878,-0.04031 0.08475,-0.09198 0.026872,-0.05168 0.026872,-0.133326 z"
         id="path1660" />
      <path
         d="m 9.0410497,87.620231 q 0,0.10232 -0.036174,0.19017 -0.03514,0.08682 -0.099219,0.150895 -0.079582,0.07958 -0.1881025,0.119889 -0.1085207,0.03927 -0.2738856,0.03927 H 8.2390303 v 0.573609 h -0.204639 v -1.538927 h 0.4175462 q 0.138493,0 0.2346114,0.02377 0.096118,0.02274 0.1705324,0.07235 0.08785,0.05891 0.1353925,0.146761 0.048576,0.08785 0.048576,0.222209 z m -0.2129072,0.0052 q 0,-0.07958 -0.027905,-0.138493 -0.027905,-0.05891 -0.084749,-0.09612 -0.04961,-0.03204 -0.1136883,-0.04547 -0.063045,-0.01447 -0.1601972,-0.01447 H 8.2390303 v 0.61495 h 0.1725995 q 0.1240236,0 0.2015384,-0.0217 0.077515,-0.02274 0.1260907,-0.07131 0.048576,-0.04961 0.068213,-0.104386 0.020671,-0.05478 0.020671,-0.12299 z"
         id="path1662" />
      <path
         d="M 10.681262,88.694069 H 10.476623 V 87.36805 l -0.427881,0.902272 H 9.926785 L 9.5020041,87.36805 v 1.326019 H 9.310801 v -1.538927 h 0.2790532 l 0.4103118,0.856797 0.396875,-0.856797 h 0.284221 z"
         id="path1664" />
    </g>
    <g
       aria-label="RUN"
       id="text1437"
       style="font-size:2.11667px;-inkscape-font-specification:'sans-serif, Normal';fill:#ffd556;stroke-width:0.264583"
       transform="translate(0.96406598,1.6871155)">
      <path
         d="M 7.8080482,52.541595 H 7.542431 L 7.0277329,51.929746 H 6.739378 v 0.611849 H 6.534739 v -1.538926 h 0.4309821 q 0.1395266,0 0.2325443,0.0186 0.093018,0.01757 0.1674319,0.06408 0.083716,0.05271 0.1302248,0.133326 0.047542,0.07958 0.047542,0.202572 0,0.166398 -0.083716,0.279053 -0.083716,0.111621 -0.2304773,0.168465 z M 7.3295238,51.435718 q 0,-0.06615 -0.023771,-0.116789 -0.022738,-0.05168 -0.076481,-0.08682 -0.044442,-0.02997 -0.1054201,-0.04134 -0.060978,-0.0124 -0.1436607,-0.0124 H 6.739378 v 0.580844 h 0.206706 q 0.097152,0 0.169499,-0.01654 0.072347,-0.01757 0.1229901,-0.06408 0.046509,-0.04341 0.068213,-0.09922 0.022738,-0.05684 0.022738,-0.143661 z"
         id="path1653" />
      <path
         d="m 9.1650734,51.923544 q 0,0.167432 -0.037207,0.292489 -0.036174,0.124024 -0.1198895,0.206706 -0.079582,0.07855 -0.1860354,0.114722 -0.1064536,0.03617 -0.2480473,0.03617 -0.1446942,0 -0.2521813,-0.03824 Q 8.2142256,52.497154 8.140845,52.422739 8.057129,52.33799 8.0199219,52.2181 7.9837484,52.098211 7.9837484,51.923544 v -0.920875 h 0.204639 v 0.931211 q 0,0.125057 0.016537,0.197404 0.01757,0.07235 0.057878,0.131258 0.045475,0.06718 0.12299,0.101286 0.078548,0.03411 0.1881025,0.03411 0.1105878,0 0.1881025,-0.03307 0.077515,-0.03411 0.1240237,-0.10232 0.040308,-0.05891 0.056844,-0.134359 0.01757,-0.07648 0.01757,-0.189136 v -0.936378 h 0.204639 z"
         id="path1655" />
      <path
         d="M 10.729838,52.541595 H 10.476623 L 9.7469511,51.164933 v 1.376662 H 9.555748 v -1.538926 h 0.3172938 l 0.6655932,1.256773 v -1.256773 h 0.191203 z"
         id="path1657" />
    </g>
    <g
       transform="scale(0.26458333)"
       id="text1852"
       style="font-size:8.00001px;-inkscape-font-specification:'sans-serif, Normal';white-space:pre;shape-inside:url(#rect1854);fill:#af83f8" />
    <g
       aria-label="AFT"
       id="text1860"
       style="font-size:2.11667px;-inkscape-font-specification:'sans-serif, Normal';fill:#ffd556;stroke-width:0.264583"
       transform="translate(-0.72304949)">
      <path
         d="M 55.796425,11.147012 H 55.57835 l -0.150896,-0.428915 h -0.665593 l -0.150895,0.428915 h -0.20774 l 0.560173,-1.5389267 h 0.272852 z m -0.432016,-0.604615 -0.269751,-0.755511 -0.270785,0.755511 z"
         id="path1871" />
      <path
         d="m 57.01289,9.7899866 h -0.778248 v 0.4340824 h 0.668694 v 0.181902 h -0.668694 v 0.741041 H 56.030003 V 9.6080853 h 0.982887 z"
         id="path1873" />
      <path
         d="M 58.375083,9.7899866 H 57.825244 V 11.147012 H 57.620605 V 9.7899866 H 57.070767 V 9.6080853 h 1.304316 z"
         id="path1875" />
    </g>
    <g
       aria-label="PW"
       id="text1864"
       style="font-size:2.11667px;-inkscape-font-specification:'sans-serif, Normal';fill:#ffd556;stroke-width:0.264583"
       transform="translate(-0.72304949)">
      <path
         d="m 66.00084,10.073174 q 0,0.102319 -0.03617,0.190169 -0.03514,0.08682 -0.09922,0.150896 -0.07958,0.07958 -0.188103,0.119889 -0.108521,0.03927 -0.273885,0.03927 h -0.204639 v 0.57361 H 64.994182 V 9.6080853 h 0.417546 q 0.138493,0 0.234611,0.023771 0.09612,0.022738 0.170533,0.072347 0.08785,0.058911 0.135392,0.1467613 0.04858,0.08785 0.04858,0.2222094 z m -0.212907,0.0052 q 0,-0.079582 -0.0279,-0.1384935 -0.02791,-0.058911 -0.08475,-0.096118 -0.04961,-0.032039 -0.113688,-0.045475 -0.06305,-0.014469 -0.160197,-0.014469 h -0.202572 v 0.6149505 h 0.172599 q 0.124024,0 0.201539,-0.0217 0.07751,-0.02274 0.12609,-0.07131 0.04858,-0.04961 0.06821,-0.104386 0.02067,-0.05478 0.02067,-0.12299 z"
         id="path1866" />
      <path
         d="m 68.061699,9.6080853 -0.399976,1.5389267 h -0.230477 l -0.323495,-1.2774436 -0.31626,1.2774436 h -0.22531 L 66.15897,9.6080853 h 0.209807 l 0.323495,1.2795107 0.318327,-1.2795107 h 0.20774 l 0.321428,1.2919127 0.321428,-1.2919127 z"
         id="path1868" />
    </g>
  </g>
  <g
     id="layer2"
     inkscape:label="components"
     style="display:none"
     transform="translate(-10.16)"
     inkscape:groupmode="layer"
     sodipodi:insensitive="true">
    <circle
       style="fill:#0000ff;fill-opacity:1;stroke-width:0.0642894"
       id="path930"
       cx="20.32"
       cy="65.048264"
       r="2.54"
       inkscape:label="output example" />
    <circle
       style="fill:#00ff00;fill-opacity:1;stroke-width:0.0642894"
       id="circle28"
       cx="20.32"
       cy="46.498661"
       r="2.54"
       inkscape:label="input example" />
    <circle
       style="fill:#ff0000;fill-opacity:1;stroke-width:0.0642894"
       id="circle932"
       cx="20.32"
       cy="27.949057"
       r="2.54"
       inkscape:label="param example" />
    <circle
       style="fill:#ff00ff;fill-opacity:1;stroke-width:0.0642894"
       id="circle985"
       cx="20.32"
       cy="86.21492"
       r="2.54"
       inkscape:label="light example" />
  </g>
</svg>
