<?xml version="1.0" encoding="UTF-8" standalone="no"?>
<svg
   width="66.040001mm"
   height="128.5mm"
   viewBox="0 0 66.040002 128.5"
   version="1.1"
   id="svg8"
   inkscape:version="1.2.1 (9c6d41e4, 2022-07-14)"
   sodipodi:docname="MIDIRecorderCC.svg"
   xmlns:inkscape="http://www.inkscape.org/namespaces/inkscape"
   xmlns:sodipodi="http://sodipodi.sourceforge.net/DTD/sodipodi-0.dtd"
   xmlns="http://www.w3.org/2000/svg"
   xmlns:svg="http://www.w3.org/2000/svg"
   xmlns:rdf="http://www.w3.org/1999/02/22-rdf-syntax-ns#"
   xmlns:cc="http://creativecommons.org/ns#"
   xmlns:dc="http://purl.org/dc/elements/1.1/">
  <defs
     id="defs2">
    <rect
       x="130.26277"
       y="65.586853"
       width="64.675926"
       height="17.30764"
       id="rect1854" />
    <rect
       x="22.773212"
       y="117.50977"
       width="10.931142"
       height="11.84207"
       id="rect895" />
  </defs>
  <sodipodi:namedview
     id="base"
     pagecolor="#ffffff"
     bordercolor="#666666"
     borderopacity="1.0"
     inkscape:pageopacity="0.0"
     inkscape:pageshadow="2"
     inkscape:zoom="1.097781"
     inkscape:cx="62.398602"
     inkscape:cy="280.11051"
     inkscape:document-units="mm"
     inkscape:current-layer="layer1"
     inkscape:document-rotation="0"
     showgrid="true"
     inkscape:showpageshadow="false"
     inkscape:window-width="1309"
     inkscape:window-height="847"
     inkscape:window-x="50"
     inkscape:window-y="299"
     inkscape:window-maximized="0"
     inkscape:pagecheckerboard="0"
     width="20.32mm"
     inkscape:deskcolor="#d1d1d1">
    <inkscape:grid
       type="xygrid"
       id="grid879" />
  </sodipodi:namedview>
  <metadata
     id="metadata5">
    <rdf:RDF>
      <cc:Work
         rdf:about="">
        <dc:format>image/svg+xml</dc:format>
        <dc:type
           rdf:resource="http://purl.org/dc/dcmitype/StillImage" />
      </cc:Work>
    </rdf:RDF>
  </metadata>
  <g
     id="layer2"
     inkscape:label="components"
     style="display:none"
     transform="translate(-10.16)"
     inkscape:groupmode="layer"
     sodipodi:insensitive="true">
    <circle
       style="fill:#0000ff;fill-opacity:1;stroke-width:0.0642894"
       id="path930"
       cx="20.32"
       cy="65.048264"
       r="2.54"
       inkscape:label="output example" />
    <circle
       style="fill:#00ff00;fill-opacity:1;stroke-width:0.0642894"
       id="circle28"
       cx="20.32"
       cy="46.498661"
       r="2.54"
       inkscape:label="input example" />
    <circle
       style="fill:#ff0000;fill-opacity:1;stroke-width:0.0642894"
       id="circle932"
       cx="20.32"
       cy="27.949057"
       r="2.54"
       inkscape:label="param example" />
    <circle
       style="fill:#ff00ff;fill-opacity:1;stroke-width:0.0642894"
       id="circle985"
       cx="20.32"
       cy="86.21492"
       r="2.54"
       inkscape:label="light example" />
  </g>
  <g
     inkscape:label="panel"
     inkscape:groupmode="layer"
     id="layer1"
     style="display:inline">
    <path
       id="rect11"
       style="fill:#333333;fill-rule:evenodd;stroke-width:2.95185"
       inkscape:label="background"
       d="M 1.4327244e-8,5.0353368e-8 H 66.492035 V 128.5 H 1.4327244e-8 Z" />
    <g
       aria-label="Chinenual"
       id="text624"
       style="font-size:3.88056px;-inkscape-font-specification:'sans-serif, Normal';fill:#ffd556;stroke-width:0.264583"
       transform="translate(-7.088406)">
      <path
         d="m 33.308488,126.088 q -0.104214,0.0455 -0.189481,0.0853 -0.08337,0.0398 -0.219797,0.0834 -0.115583,0.036 -0.252009,0.0606 -0.134531,0.0265 -0.297484,0.0265 -0.306959,0 -0.558968,-0.0853 -0.250114,-0.0872 -0.435805,-0.27095 -0.181901,-0.18001 -0.28422,-0.45665 -0.10232,-0.27854 -0.10232,-0.64613 0,-0.34864 0.09853,-0.62339 0.09853,-0.27475 0.284221,-0.46423 0.180006,-0.18379 0.43391,-0.28043 0.255799,-0.0966 0.566547,-0.0966 0.227376,0 0.452858,0.055 0.227376,0.0549 0.504018,0.19327 v 0.44528 h -0.02842 q -0.233061,-0.19517 -0.462332,-0.28423 -0.229272,-0.0891 -0.490755,-0.0891 -0.214113,0 -0.38654,0.0701 -0.170532,0.0682 -0.305064,0.21411 -0.130741,0.14211 -0.204638,0.36001 -0.072,0.21601 -0.072,0.50023 0,0.29749 0.07958,0.5116 0.08148,0.21411 0.208428,0.34864 0.132637,0.14022 0.308853,0.20843 0.178112,0.0663 0.375172,0.0663 0.270957,0 0.507807,-0.0928 0.236851,-0.0928 0.443385,-0.27853 h 0.02653 z"
         id="path730" />
      <path
         d="m 35.580359,126.29264 h -0.356224 v -1.2051 q 0,-0.1459 -0.01705,-0.27285 -0.01705,-0.12884 -0.06253,-0.20085 -0.04737,-0.0796 -0.136426,-0.11747 -0.08906,-0.0398 -0.231166,-0.0398 -0.1459,0 -0.305064,0.072 -0.159164,0.072 -0.305064,0.18379 v 1.58027 h -0.356223 v -2.94832 h 0.356223 v 1.06678 q 0.166743,-0.13832 0.344855,-0.21601 0.178111,-0.0777 0.365697,-0.0777 0.34296,0 0.522966,0.20654 0.180007,0.20653 0.180007,0.59497 z"
         id="path732" />
      <path
         d="M 36.649028,123.82182 H 36.24733 v -0.36949 h 0.401698 z m -0.02274,2.47082 h -0.356223 v -2.1165 h 0.356223 z"
         id="path734" />
      <path
         d="m 39.100906,126.29264 h -0.356223 v -1.2051 q 0,-0.1459 -0.01705,-0.27285 -0.01705,-0.12884 -0.06253,-0.20085 -0.04737,-0.0796 -0.136426,-0.11747 -0.08906,-0.0398 -0.231166,-0.0398 -0.1459,0 -0.305064,0.072 -0.159163,0.072 -0.305063,0.18379 v 1.58027 H 37.33116 v -2.1165 h 0.356224 v 0.23496 q 0.166742,-0.13832 0.344854,-0.21601 0.178112,-0.0777 0.365697,-0.0777 0.34296,0 0.522966,0.20654 0.180007,0.20653 0.180007,0.59497 z"
         id="path736" />
      <path
         d="m 41.558467,125.27134 h -1.559424 q 0,0.19517 0.05874,0.34107 0.05874,0.144 0.161058,0.23685 0.09853,0.0909 0.233061,0.13642 0.136426,0.0455 0.299379,0.0455 0.216008,0 0.433911,-0.0853 0.219797,-0.0872 0.312642,-0.17053 h 0.01895 v 0.38843 q -0.180006,0.0758 -0.367592,0.12696 -0.187585,0.0512 -0.394119,0.0512 -0.526756,0 -0.822345,-0.28423 -0.29559,-0.28611 -0.29559,-0.81097 0,-0.51918 0.282326,-0.82424 0.284221,-0.30507 0.746553,-0.30507 0.428226,0 0.659392,0.25012 0.233061,0.25011 0.233061,0.71055 z m -0.346749,-0.27285 q -0.0019,-0.28043 -0.14211,-0.43391 -0.138321,-0.15348 -0.422542,-0.15348 -0.286115,0 -0.456648,0.16864 -0.168637,0.16863 -0.191375,0.41875 z"
         id="path738" />
      <path
         d="m 43.868234,126.29264 h -0.356223 v -1.2051 q 0,-0.1459 -0.01705,-0.27285 -0.01705,-0.12884 -0.06253,-0.20085 -0.04737,-0.0796 -0.136426,-0.11747 -0.08906,-0.0398 -0.231166,-0.0398 -0.1459,0 -0.305064,0.072 -0.159163,0.072 -0.305063,0.18379 v 1.58027 h -0.356223 v -2.1165 h 0.356223 v 0.23496 q 0.166743,-0.13832 0.344854,-0.21601 0.178112,-0.0777 0.365698,-0.0777 0.342959,0 0.522966,0.20654 0.180006,0.20653 0.180006,0.59497 z"
         id="path740" />
      <path
         d="m 46.308742,126.29264 h -0.356223 v -0.23496 q -0.180007,0.14212 -0.344855,0.21791 -0.164848,0.0758 -0.363802,0.0758 -0.333486,0 -0.519176,-0.20274 -0.185691,-0.20464 -0.185691,-0.59876 v -1.37374 h 0.356223 v 1.2051 q 0,0.16106 0.01516,0.27664 0.01516,0.11369 0.06442,0.19517 0.05116,0.0834 0.132636,0.12126 0.08148,0.0379 0.236851,0.0379 0.13832,0 0.301274,-0.072 0.164848,-0.072 0.306958,-0.1838 v -1.58027 h 0.356223 z"
         id="path742" />
      <path
         d="m 48.654511,126.29264 h -0.354328 v -0.22548 q -0.04737,0.0322 -0.128847,0.0909 -0.07958,0.0568 -0.155374,0.091 -0.08906,0.0436 -0.204639,0.072 -0.115583,0.0303 -0.270957,0.0303 -0.286116,0 -0.48507,-0.18948 -0.198955,-0.18948 -0.198955,-0.48318 0,-0.24064 0.10232,-0.38843 0.104214,-0.14969 0.295589,-0.23496 0.19327,-0.0853 0.464228,-0.11558 0.270957,-0.0303 0.581705,-0.0455 v -0.0549 q 0,-0.12127 -0.04358,-0.20085 -0.04169,-0.0796 -0.121267,-0.12506 -0.07579,-0.0436 -0.181902,-0.0587 -0.106109,-0.0152 -0.221692,-0.0152 -0.140215,0 -0.312643,0.0379 -0.172427,0.036 -0.356223,0.10611 h -0.01895 v -0.36191 q 0.104214,-0.0284 0.301274,-0.0625 0.19706,-0.0341 0.388435,-0.0341 0.223587,0 0.388435,0.0379 0.166743,0.036 0.28801,0.12506 0.119373,0.0872 0.181901,0.22548 0.06253,0.13832 0.06253,0.34296 z m -0.354328,-0.52107 v -0.58928 q -0.162954,0.009 -0.384646,0.0284 -0.219797,0.0189 -0.348644,0.0549 -0.153479,0.0436 -0.248219,0.13642 -0.09474,0.091 -0.09474,0.25201 0,0.1819 0.109898,0.27475 0.109899,0.091 0.335381,0.091 0.187585,0 0.342959,-0.072 0.155374,-0.0739 0.288011,-0.17622 z"
         id="path744" />
      <path
         d="M 49.700443,126.29264 H 49.34422 v -2.94832 h 0.356223 z"
         id="path746" />
    </g>
    <g
       transform="scale(0.26458333)"
       id="text893"
       style="font-size:10.6667px;-inkscape-font-specification:'sans-serif, Normal';white-space:pre;shape-inside:url(#rect895);fill:#ffd556" />
    <g
       transform="scale(0.26458333)"
       id="text1852"
       style="font-size:8.00001px;-inkscape-font-specification:'sans-serif, Normal';white-space:pre;shape-inside:url(#rect1854);fill:#af83f8" />
    <text
       xml:space="preserve"
       style="font-size:2.11667px;font-family:sans-serif;-inkscape-font-specification:'sans-serif, Normal';fill:#ffd556;stroke-width:0.264583"
       x="32.778244"
       y="36.875523"
       id="text348"><tspan
         sodipodi:role="line"
         id="tspan346"
         style="stroke-width:0.264583"
         x="32.778244"
         y="36.875523" /></text>
    <g
       aria-label="MIDI Recorder CC"
       id="text1813"
       style="font-weight:bold;font-size:3.88056px;-inkscape-font-specification:'sans-serif, Bold';fill:#ffd556;stroke-width:0.264583;fill-opacity:1">
      <path
         d="M 16.914695,5.3023629 H 16.19088 V 3.4132427 L 15.667914,4.6391813 H 15.165791 L 14.642825,3.4132427 v 1.8891202 h -0.68592 V 2.4809988 h 0.845083 l 0.63476,1.4154191 0.632864,-1.4154191 h 0.845083 z"
         id="path1931"
         style="fill:#ffd556;fill-opacity:1" />
      <path
         d="m 19.160039,5.3023629 h -1.65227 V 4.8021345 h 0.462333 V 2.9812272 H 17.507769 V 2.4809988 h 1.65227 v 0.5002284 h -0.462332 v 1.8209073 h 0.462332 z"
         id="path1933"
         style="fill:#ffd556;fill-opacity:1" />
      <path
         d="m 22.419103,3.8945231 q 0,0.3941193 -0.180007,0.7067621 -0.180006,0.310748 -0.454753,0.4774908 -0.206533,0.1250571 -0.452858,0.174322 -0.246325,0.049265 -0.5836,0.049265 H 19.753113 V 2.4809988 h 1.023194 q 0.344855,0 0.594969,0.058739 0.250114,0.056844 0.420646,0.1629532 0.2918,0.1781117 0.458543,0.4812804 0.168638,0.301274 0.168638,0.7105518 z m -0.752238,-0.00568 q 0,-0.2785363 -0.102319,-0.475596 -0.100425,-0.1989545 -0.320222,-0.310748 -0.111794,-0.054949 -0.229271,-0.073897 -0.115584,-0.020843 -0.350539,-0.020843 h -0.183796 v 1.7659579 h 0.183796 q 0.259588,0 0.380855,-0.022738 0.121268,-0.024633 0.236851,-0.087161 0.198955,-0.1136883 0.2918,-0.3031688 0.09285,-0.1913753 0.09285,-0.4718063 z"
         id="path1935"
         style="fill:#ffd556;fill-opacity:1" />
      <path
         d="m 24.499598,5.3023629 h -1.65227 V 4.8021345 h 0.462333 V 2.9812272 H 22.847328 V 2.4809988 h 1.65227 v 0.5002284 h -0.462332 v 1.8209073 h 0.462332 z"
         id="path1937"
         style="fill:#ffd556;fill-opacity:1" />
      <path
         d="m 28.001197,3.3450297 q 0,-0.106109 -0.04358,-0.1819012 -0.04358,-0.075792 -0.149689,-0.1193727 -0.0739,-0.030317 -0.172428,-0.036001 -0.09853,-0.00758 -0.229271,-0.00758 H 27.14285 v 0.7598166 h 0.223587 q 0.174322,0 0.2918,-0.017053 0.117478,-0.017053 0.19706,-0.077687 0.07579,-0.058739 0.109898,-0.1288467 0.036,-0.072003 0.036,-0.1913753 z m 1.134988,1.9573332 H 28.247521 L 27.478231,4.2677996 H 27.14285 V 5.3023629 H 26.419035 V 2.4809988 h 1.220254 q 0.250114,0 0.430121,0.028422 0.180006,0.028422 0.337275,0.1231623 0.159164,0.09474 0.252009,0.2463246 0.09474,0.1496895 0.09474,0.3770661 0,0.3126428 -0.1459,0.5097024 -0.144005,0.1970597 -0.413067,0.3278013 z"
         id="path1939"
         style="fill:#ffd556;fill-opacity:1" />
      <path
         d="m 31.51227,4.3644346 h -1.561319 q 0.01516,0.2501142 0.189481,0.3827506 0.176217,0.1326363 0.517281,0.1326363 0.216008,0 0.418752,-0.077687 0.202744,-0.077687 0.320222,-0.1667428 h 0.07579 v 0.5475985 q -0.231166,0.092846 -0.435805,0.1345312 -0.204639,0.041686 -0.452858,0.041686 -0.640444,0 -0.981509,-0.2880103 -0.341065,-0.2880104 -0.341065,-0.8204505 0,-0.5267557 0.322117,-0.833714 0.324012,-0.3088532 0.886769,-0.3088532 0.519176,0 0.780659,0.2633779 0.261483,0.261483 0.261483,0.7541322 z M 30.83393,3.9646308 Q 30.828246,3.7505179 30.727821,3.642514 30.627397,3.5345102 30.415178,3.5345102 q -0.197059,0 -0.324011,0.1023194 -0.126952,0.1023195 -0.142111,0.3278012 z"
         id="path1941"
         style="fill:#ffd556;fill-opacity:1" />
      <path
         d="m 33.102011,5.3592071 q -0.278536,0 -0.509702,-0.066318 Q 32.363037,5.2265707 32.192505,5.08825 32.023867,4.9499293 31.931022,4.7396059 q -0.09285,-0.2103233 -0.09285,-0.4926492 0,-0.2974843 0.09853,-0.513492 0.100425,-0.2160078 0.278536,-0.3581181 0.172428,-0.1345311 0.397909,-0.1970597 0.225482,-0.062528 0.468017,-0.062528 0.217903,0 0.401699,0.04737 0.183796,0.04737 0.342959,0.1231623 v 0.581705 h -0.09663 q -0.03979,-0.034107 -0.09663,-0.079582 -0.05495,-0.045475 -0.136426,-0.089056 -0.07769,-0.041686 -0.170532,-0.068213 -0.09285,-0.028422 -0.216008,-0.028422 -0.272852,0 -0.420646,0.1743221 -0.1459,0.1724272 -0.1459,0.4699115 0,0.3069584 0.149689,0.466122 0.151585,0.1591636 0.428226,0.1591636 0.128847,0 0.231166,-0.028422 0.104214,-0.030317 0.172427,-0.070108 0.06442,-0.037896 0.113689,-0.079582 0.04926,-0.041686 0.09095,-0.081477 h 0.09663 v 0.5817051 q -0.161058,0.075792 -0.337275,0.1193726 -0.174322,0.045475 -0.38654,0.045475 z"
         id="path1943"
         style="fill:#ffd556;fill-opacity:1" />
      <path
         d="m 36.452025,4.2393775 q 0,0.5248609 -0.306958,0.8280296 -0.305064,0.301274 -0.858347,0.301274 -0.553282,0 -0.860241,-0.301274 -0.305063,-0.3031687 -0.305063,-0.8280296 0,-0.5286505 0.306958,-0.8299244 0.308853,-0.301274 0.858346,-0.301274 0.557073,0 0.860242,0.3031688 0.305063,0.3031687 0.305063,0.8280296 z m -0.839398,0.5172817 q 0.06632,-0.081477 0.09853,-0.1951649 0.03411,-0.1155831 0.03411,-0.3183272 0,-0.1875856 -0.03411,-0.3145376 -0.03411,-0.1269519 -0.09474,-0.202744 -0.06063,-0.077687 -0.145899,-0.1098987 -0.08527,-0.032212 -0.183797,-0.032212 -0.09853,0 -0.176216,0.026527 -0.07579,0.026527 -0.1459,0.106109 -0.06253,0.073897 -0.100425,0.2027441 -0.036,0.1288467 -0.036,0.3240116 0,0.174322 0.03221,0.3031688 0.03221,0.1269519 0.09474,0.2046389 0.06063,0.073897 0.144005,0.1080038 0.08527,0.034107 0.19327,0.034107 0.09284,0 0.176217,-0.030317 0.08527,-0.032212 0.144005,-0.106109 z"
         id="path1945"
         style="fill:#ffd556;fill-opacity:1" />
      <path
         d="m 38.483257,3.8244153 h -0.06063 q -0.04358,-0.015158 -0.140216,-0.022738 -0.09663,-0.00758 -0.161058,-0.00758 -0.1459,0 -0.257694,0.018948 -0.111793,0.018948 -0.24064,0.064423 v 1.4248931 h -0.68213 V 3.1744973 h 0.68213 v 0.3126428 q 0.225482,-0.1932701 0.392225,-0.2557987 0.166742,-0.064423 0.306958,-0.064423 0.036,0 0.08148,0.00189 0.04548,0.00189 0.07958,0.00568 z"
         id="path1947"
         style="fill:#ffd556;fill-opacity:1" />
      <path
         d="M 40.938922,5.3023629 H 40.256793 V 5.0806708 q -0.176217,0.1440051 -0.329696,0.2122181 -0.153479,0.068213 -0.354329,0.068213 -0.388435,0 -0.621496,-0.2993792 -0.233061,-0.2993791 -0.233061,-0.8071868 0,-0.270957 0.07769,-0.4793855 0.07958,-0.2103233 0.216008,-0.3600129 0.128847,-0.1421104 0.312643,-0.2197974 0.183796,-0.079582 0.367592,-0.079582 0.191375,0 0.312643,0.041686 0.123162,0.039791 0.252009,0.1023194 V 2.3540469 h 0.682129 z M 40.256793,4.7149735 V 3.6709361 q -0.072,-0.030317 -0.151585,-0.043581 -0.07958,-0.013264 -0.1459,-0.013264 -0.269062,0 -0.403593,0.1686376 -0.134531,0.1667428 -0.134531,0.4642271 0,0.3126428 0.108004,0.4547531 0.108004,0.1402156 0.346749,0.1402156 0.09284,0 0.19706,-0.034107 0.104214,-0.036001 0.183796,-0.092845 z"
         id="path1949"
         style="fill:#ffd556;fill-opacity:1" />
      <path
         d="m 43.678811,4.3644346 h -1.561319 q 0.01516,0.2501142 0.189481,0.3827506 0.176217,0.1326363 0.517282,0.1326363 0.216007,0 0.418751,-0.077687 0.202744,-0.077687 0.320222,-0.1667428 h 0.07579 v 0.5475985 q -0.231167,0.092846 -0.435806,0.1345312 -0.204638,0.041686 -0.452858,0.041686 -0.640444,0 -0.981509,-0.2880103 -0.341065,-0.2880104 -0.341065,-0.8204505 0,-0.5267557 0.322117,-0.833714 0.324012,-0.3088532 0.886769,-0.3088532 0.519176,0 0.780659,0.2633779 0.261483,0.261483 0.261483,0.7541322 z M 43.000471,3.9646308 Q 42.994787,3.7505179 42.894362,3.642514 42.793938,3.5345102 42.58172,3.5345102 q -0.19706,0 -0.324012,0.1023194 -0.126952,0.1023195 -0.14211,0.3278012 z"
         id="path1951"
         style="fill:#ffd556;fill-opacity:1" />
      <path
         d="m 45.702461,3.8244153 h -0.06063 q -0.04358,-0.015158 -0.140216,-0.022738 -0.09663,-0.00758 -0.161058,-0.00758 -0.1459,0 -0.257694,0.018948 -0.111793,0.018948 -0.24064,0.064423 V 5.3023629 H 44.16009 V 3.1744973 h 0.68213 v 0.3126428 q 0.225482,-0.1932701 0.392225,-0.2557987 0.166742,-0.064423 0.306958,-0.064423 0.036,0 0.08148,0.00189 0.04547,0.00189 0.07958,0.00568 z"
         id="path1953"
         style="fill:#ffd556;fill-opacity:1" />
      <path
         d="m 48.728466,5.3573123 q -0.314538,0 -0.581705,-0.092846 -0.265273,-0.092845 -0.456648,-0.2766415 -0.191375,-0.183796 -0.297485,-0.4585427 -0.104214,-0.2747467 -0.104214,-0.6347595 0,-0.3353805 0.100425,-0.6082323 0.100424,-0.2728519 0.2918,-0.4680168 0.183796,-0.1875856 0.454753,-0.2899051 0.272852,-0.1023194 0.594969,-0.1023194 0.178111,0 0.320222,0.020843 0.144005,0.018948 0.265272,0.05116 0.126952,0.036001 0.229272,0.081477 0.104214,0.043581 0.181901,0.081477 v 0.6840245 h -0.08337 q -0.05305,-0.045475 -0.134531,-0.1080038 -0.07958,-0.062529 -0.181901,-0.1231624 -0.104214,-0.060634 -0.225482,-0.1023194 -0.121267,-0.041686 -0.259588,-0.041686 -0.153479,0 -0.2918,0.049265 -0.138321,0.04737 -0.255799,0.1591636 -0.111793,0.1080039 -0.181901,0.2861155 -0.06821,0.1781116 -0.06821,0.4320155 0,0.2652726 0.0739,0.4433843 0.07579,0.1781116 0.18948,0.280431 0.115583,0.1042143 0.257694,0.1496896 0.14211,0.043581 0.280431,0.043581 0.132636,0 0.261483,-0.039791 0.130741,-0.039791 0.24064,-0.1080038 0.09284,-0.054949 0.172427,-0.1174779 0.07958,-0.062529 0.130742,-0.1080039 h 0.07579 v 0.6745505 q -0.106109,0.04737 -0.202744,0.089056 -0.09663,0.041686 -0.202744,0.072003 -0.138321,0.039791 -0.259589,0.060634 -0.121267,0.020843 -0.333485,0.020843 z"
         id="path1955"
         style="fill:#ffd556;fill-opacity:1" />
      <path
         d="m 51.536567,5.3573123 q -0.314537,0 -0.581705,-0.092846 Q 50.68959,5.1716214 50.498214,4.9878253 50.306839,4.8040293 50.20073,4.5292826 50.096516,4.2545359 50.096516,3.8945231 q 0,-0.3353805 0.100425,-0.6082323 0.100424,-0.2728519 0.291799,-0.4680168 0.183796,-0.1875856 0.454754,-0.2899051 0.272851,-0.1023194 0.594968,-0.1023194 0.178112,0 0.320222,0.020843 0.144005,0.018948 0.265273,0.05116 0.126952,0.036001 0.229271,0.081477 0.104214,0.043581 0.181901,0.081477 v 0.6840245 h -0.08337 q -0.05305,-0.045475 -0.134531,-0.1080038 -0.07958,-0.062529 -0.181901,-0.1231624 -0.104215,-0.060634 -0.225482,-0.1023194 -0.121268,-0.041686 -0.259588,-0.041686 -0.15348,0 -0.2918,0.049265 -0.138321,0.04737 -0.255799,0.1591636 -0.111793,0.1080039 -0.181901,0.2861155 -0.06821,0.1781116 -0.06821,0.4320155 0,0.2652726 0.0739,0.4433843 0.07579,0.1781116 0.189481,0.280431 0.115583,0.1042143 0.257693,0.1496896 0.142111,0.043581 0.280431,0.043581 0.132637,0 0.261483,-0.039791 0.130742,-0.039791 0.240641,-0.1080038 0.09285,-0.054949 0.172427,-0.1174779 0.07958,-0.062529 0.130741,-0.1080039 h 0.07579 v 0.6745505 q -0.106109,0.04737 -0.202744,0.089056 -0.09663,0.041686 -0.202744,0.072003 -0.13832,0.039791 -0.259588,0.060634 -0.121267,0.020843 -0.333486,0.020843 z"
         id="path1957"
         style="fill:#ffd556;fill-opacity:1" />
    </g>
  </g>
</svg>
