<?xml version="1.0" encoding="UTF-8" standalone="no"?>
<svg
   width="40.540001mm"
   height="128.5mm"
   viewBox="0 0 40.540002 128.5"
   version="1.1"
   id="svg8"
   inkscape:version="1.2.1 (9c6d41e4, 2022-07-14)"
   sodipodi:docname="NoteMeter.svg"
   xmlns:inkscape="http://www.inkscape.org/namespaces/inkscape"
   xmlns:sodipodi="http://sodipodi.sourceforge.net/DTD/sodipodi-0.dtd"
   xmlns="http://www.w3.org/2000/svg"
   xmlns:svg="http://www.w3.org/2000/svg"
   xmlns:rdf="http://www.w3.org/1999/02/22-rdf-syntax-ns#"
   xmlns:cc="http://creativecommons.org/ns#"
   xmlns:dc="http://purl.org/dc/elements/1.1/">
  <defs
     id="defs2">
    <inkscape:path-effect
       effect="fillet_chamfer"
       id="path-effect419"
       is_visible="true"
       lpeversion="1"
       nodesatellites_param="F,0,0,1,0,3,0,1 @ F,0,0,1,0,3,0,1 @ F,0,0,1,0,3,0,1 @ F,0,0,1,0,3,0,1"
       unit="mm"
       method="auto"
       mode="F"
       radius="3"
       chamfer_steps="1"
       flexible="false"
       use_knot_distance="true"
       apply_no_radius="true"
       apply_with_radius="true"
       only_selected="false"
       hide_knots="false" />
    <inkscape:path-effect
       effect="fillet_chamfer"
       id="path-effect942"
       is_visible="true"
       lpeversion="1"
       nodesatellites_param="F,0,0,1,0,3,0,1 @ F,0,0,1,0,3,0,1 @ F,0,0,1,0,3,0,1 @ F,0,0,1,0,3,0,1"
       unit="mm"
       method="auto"
       mode="F"
       radius="3"
       chamfer_steps="1"
       flexible="false"
       use_knot_distance="true"
       apply_no_radius="true"
       apply_with_radius="true"
       only_selected="false"
       hide_knots="false" />
    <inkscape:path-effect
       effect="fillet_chamfer"
       id="path-effect10104"
       is_visible="true"
       lpeversion="1"
       nodesatellites_param="F,0,0,1,0,2,0,1 @ F,0,0,1,0,2,0,1 @ F,0,0,1,0,2,0,1 @ F,0,0,1,0,2,0,1"
       unit="mm"
       method="auto"
       mode="F"
       radius="2"
       chamfer_steps="1"
       flexible="false"
       use_knot_distance="true"
       apply_no_radius="true"
       apply_with_radius="true"
       only_selected="false"
       hide_knots="false" />
    <rect
       x="130.26277"
       y="65.586853"
       width="64.675926"
       height="17.30764"
       id="rect1854" />
    <rect
       x="22.773212"
       y="117.50977"
       width="10.931142"
       height="11.84207"
       id="rect895" />
    <inkscape:path-effect
       effect="fillet_chamfer"
       id="path-effect942-8"
       is_visible="true"
       lpeversion="1"
       nodesatellites_param="F,0,0,1,0,3,0,1 @ F,0,0,1,0,3,0,1 @ F,0,0,1,0,3,0,1 @ F,0,0,1,0,3,0,1"
       unit="mm"
       method="auto"
       mode="F"
       radius="3"
       chamfer_steps="1"
       flexible="false"
       use_knot_distance="true"
       apply_no_radius="true"
       apply_with_radius="true"
       only_selected="false"
       hide_knots="false" />
  </defs>
  <sodipodi:namedview
     id="base"
     pagecolor="#ffffff"
     bordercolor="#666666"
     borderopacity="1.0"
     inkscape:pageopacity="0.0"
     inkscape:pageshadow="2"
     inkscape:zoom="2.195562"
     inkscape:cx="22.773213"
     inkscape:cy="161.00661"
     inkscape:document-units="mm"
     inkscape:current-layer="layer1"
     inkscape:document-rotation="0"
     showgrid="true"
     inkscape:showpageshadow="false"
     inkscape:window-width="1309"
     inkscape:window-height="847"
     inkscape:window-x="50"
     inkscape:window-y="299"
     inkscape:window-maximized="0"
     inkscape:pagecheckerboard="0"
     width="20.32mm"
     inkscape:deskcolor="#d1d1d1">
    <inkscape:grid
       type="xygrid"
       id="grid3456"
       originx="0"
       originy="0" />
  </sodipodi:namedview>
  <metadata
     id="metadata5">
    <rdf:RDF>
      <cc:Work
         rdf:about="">
        <dc:format>image/svg+xml</dc:format>
        <dc:type
           rdf:resource="http://purl.org/dc/dcmitype/StillImage" />
      </cc:Work>
    </rdf:RDF>
  </metadata>
  <g
     inkscape:label="panel"
     inkscape:groupmode="layer"
     id="layer1"
     style="display:inline">
    <path
       id="rect11"
       style="fill:#333333;fill-rule:evenodd;stroke-width:3.26433"
       inkscape:label="background"
       d="M 1.4327244e-8,5.0353368e-8 H 81.314549 V 128.5 H 1.4327244e-8 Z" />
    <g
       aria-label="Chinenual"
       id="text624"
       style="font-size:3.88056px;-inkscape-font-specification:'sans-serif, Normal';fill:#ffd556;stroke-width:0.264583"
       transform="translate(-20.064423,-0.482033)">
      <path
         d="m 33.308488,126.088 q -0.104214,0.0455 -0.189481,0.0853 -0.08337,0.0398 -0.219797,0.0834 -0.115583,0.036 -0.252009,0.0606 -0.134531,0.0265 -0.297484,0.0265 -0.306959,0 -0.558968,-0.0853 -0.250114,-0.0872 -0.435805,-0.27095 -0.181901,-0.18001 -0.28422,-0.45665 -0.10232,-0.27854 -0.10232,-0.64613 0,-0.34864 0.09853,-0.62339 0.09853,-0.27475 0.284221,-0.46423 0.180006,-0.18379 0.43391,-0.28043 0.255799,-0.0966 0.566547,-0.0966 0.227376,0 0.452858,0.055 0.227376,0.0549 0.504018,0.19327 v 0.44528 h -0.02842 q -0.233061,-0.19517 -0.462332,-0.28423 -0.229272,-0.0891 -0.490755,-0.0891 -0.214113,0 -0.38654,0.0701 -0.170532,0.0682 -0.305064,0.21411 -0.130741,0.14211 -0.204638,0.36001 -0.072,0.21601 -0.072,0.50023 0,0.29749 0.07958,0.5116 0.08148,0.21411 0.208428,0.34864 0.132637,0.14022 0.308853,0.20843 0.178112,0.0663 0.375172,0.0663 0.270957,0 0.507807,-0.0928 0.236851,-0.0928 0.443385,-0.27853 h 0.02653 z"
         id="path730" />
      <path
         d="m 35.580359,126.29264 h -0.356224 v -1.2051 q 0,-0.1459 -0.01705,-0.27285 -0.01705,-0.12884 -0.06253,-0.20085 -0.04737,-0.0796 -0.136426,-0.11747 -0.08906,-0.0398 -0.231166,-0.0398 -0.1459,0 -0.305064,0.072 -0.159164,0.072 -0.305064,0.18379 v 1.58027 h -0.356223 v -2.94832 h 0.356223 v 1.06678 q 0.166743,-0.13832 0.344855,-0.21601 0.178111,-0.0777 0.365697,-0.0777 0.34296,0 0.522966,0.20654 0.180007,0.20653 0.180007,0.59497 z"
         id="path732" />
      <path
         d="M 36.649028,123.82182 H 36.24733 v -0.36949 h 0.401698 z m -0.02274,2.47082 h -0.356223 v -2.1165 h 0.356223 z"
         id="path734" />
      <path
         d="m 39.100906,126.29264 h -0.356223 v -1.2051 q 0,-0.1459 -0.01705,-0.27285 -0.01705,-0.12884 -0.06253,-0.20085 -0.04737,-0.0796 -0.136426,-0.11747 -0.08906,-0.0398 -0.231166,-0.0398 -0.1459,0 -0.305064,0.072 -0.159163,0.072 -0.305063,0.18379 v 1.58027 H 37.33116 v -2.1165 h 0.356224 v 0.23496 q 0.166742,-0.13832 0.344854,-0.21601 0.178112,-0.0777 0.365697,-0.0777 0.34296,0 0.522966,0.20654 0.180007,0.20653 0.180007,0.59497 z"
         id="path736" />
      <path
         d="m 41.558467,125.27134 h -1.559424 q 0,0.19517 0.05874,0.34107 0.05874,0.144 0.161058,0.23685 0.09853,0.0909 0.233061,0.13642 0.136426,0.0455 0.299379,0.0455 0.216008,0 0.433911,-0.0853 0.219797,-0.0872 0.312642,-0.17053 h 0.01895 v 0.38843 q -0.180006,0.0758 -0.367592,0.12696 -0.187585,0.0512 -0.394119,0.0512 -0.526756,0 -0.822345,-0.28423 -0.29559,-0.28611 -0.29559,-0.81097 0,-0.51918 0.282326,-0.82424 0.284221,-0.30507 0.746553,-0.30507 0.428226,0 0.659392,0.25012 0.233061,0.25011 0.233061,0.71055 z m -0.346749,-0.27285 q -0.0019,-0.28043 -0.14211,-0.43391 -0.138321,-0.15348 -0.422542,-0.15348 -0.286115,0 -0.456648,0.16864 -0.168637,0.16863 -0.191375,0.41875 z"
         id="path738" />
      <path
         d="m 43.868234,126.29264 h -0.356223 v -1.2051 q 0,-0.1459 -0.01705,-0.27285 -0.01705,-0.12884 -0.06253,-0.20085 -0.04737,-0.0796 -0.136426,-0.11747 -0.08906,-0.0398 -0.231166,-0.0398 -0.1459,0 -0.305064,0.072 -0.159163,0.072 -0.305063,0.18379 v 1.58027 h -0.356223 v -2.1165 h 0.356223 v 0.23496 q 0.166743,-0.13832 0.344854,-0.21601 0.178112,-0.0777 0.365698,-0.0777 0.342959,0 0.522966,0.20654 0.180006,0.20653 0.180006,0.59497 z"
         id="path740" />
      <path
         d="m 46.308742,126.29264 h -0.356223 v -0.23496 q -0.180007,0.14212 -0.344855,0.21791 -0.164848,0.0758 -0.363802,0.0758 -0.333486,0 -0.519176,-0.20274 -0.185691,-0.20464 -0.185691,-0.59876 v -1.37374 h 0.356223 v 1.2051 q 0,0.16106 0.01516,0.27664 0.01516,0.11369 0.06442,0.19517 0.05116,0.0834 0.132636,0.12126 0.08148,0.0379 0.236851,0.0379 0.13832,0 0.301274,-0.072 0.164848,-0.072 0.306958,-0.1838 v -1.58027 h 0.356223 z"
         id="path742" />
      <path
         d="m 48.654511,126.29264 h -0.354328 v -0.22548 q -0.04737,0.0322 -0.128847,0.0909 -0.07958,0.0568 -0.155374,0.091 -0.08906,0.0436 -0.204639,0.072 -0.115583,0.0303 -0.270957,0.0303 -0.286116,0 -0.48507,-0.18948 -0.198955,-0.18948 -0.198955,-0.48318 0,-0.24064 0.10232,-0.38843 0.104214,-0.14969 0.295589,-0.23496 0.19327,-0.0853 0.464228,-0.11558 0.270957,-0.0303 0.581705,-0.0455 v -0.0549 q 0,-0.12127 -0.04358,-0.20085 -0.04169,-0.0796 -0.121267,-0.12506 -0.07579,-0.0436 -0.181902,-0.0587 -0.106109,-0.0152 -0.221692,-0.0152 -0.140215,0 -0.312643,0.0379 -0.172427,0.036 -0.356223,0.10611 h -0.01895 v -0.36191 q 0.104214,-0.0284 0.301274,-0.0625 0.19706,-0.0341 0.388435,-0.0341 0.223587,0 0.388435,0.0379 0.166743,0.036 0.28801,0.12506 0.119373,0.0872 0.181901,0.22548 0.06253,0.13832 0.06253,0.34296 z m -0.354328,-0.52107 v -0.58928 q -0.162954,0.009 -0.384646,0.0284 -0.219797,0.0189 -0.348644,0.0549 -0.153479,0.0436 -0.248219,0.13642 -0.09474,0.091 -0.09474,0.25201 0,0.1819 0.109898,0.27475 0.109899,0.091 0.335381,0.091 0.187585,0 0.342959,-0.072 0.155374,-0.0739 0.288011,-0.17622 z"
         id="path744" />
      <path
         d="M 49.700443,126.29264 H 49.34422 v -2.94832 h 0.356223 z"
         id="path746" />
    </g>
    <g
       transform="scale(0.26458333)"
       id="text893"
       style="font-size:10.6667px;-inkscape-font-specification:'sans-serif, Normal';white-space:pre;shape-inside:url(#rect895);fill:#ffd556" />
    <g
       transform="scale(0.26458333)"
       id="text1852"
       style="font-size:8.00001px;-inkscape-font-specification:'sans-serif, Normal';white-space:pre;shape-inside:url(#rect1854);fill:#af83f8" />
    <g
       aria-label="RUN"
       id="text9484"
       style="font-weight:bold;font-size:2.82222px;-inkscape-font-specification:'sans-serif, Bold';display:none;fill:#ffd456;stroke-width:0.22;paint-order:markers stroke fill"
       transform="translate(1.2050825,-9.8816763)">
      <path
         d="m 5.9701682,35.813537 q 0,-0.07717 -0.031695,-0.132292 -0.031695,-0.05512 -0.108865,-0.08682 -0.053743,-0.02205 -0.1254014,-0.02618 -0.071658,-0.0055 -0.1667425,-0.0055 H 5.3459174 v 0.552593 h 0.1626084 q 0.1267794,0 0.2122177,-0.0124 0.085438,-0.0124 0.1433158,-0.0565 0.055122,-0.04272 0.079926,-0.09371 0.026183,-0.05236 0.026183,-0.139181 z m 0.8254443,1.423512 H 6.149313 L 5.58983,36.484641 H 5.3459174 v 0.752408 H 4.8195072 v -2.051897 h 0.8874559 q 0.1819009,0 0.3128144,0.02067 0.1309136,0.02067 0.2452907,0.08957 0.1157551,0.0689 0.1832789,0.179145 0.068902,0.108865 0.068902,0.274229 0,0.227376 -0.1061089,0.370692 -0.1047308,0.143316 -0.3004121,0.2384 z"
         id="path9518" />
      <path
         d="m 8.8240832,36.494287 q 0,0.380338 -0.2315102,0.58291 -0.2315102,0.202571 -0.6821284,0.202571 -0.4506181,0 -0.6821284,-0.202571 Q 6.998184,36.874625 6.998184,36.495665 v -1.310513 h 0.5319224 v 1.280196 q 0,0.213596 0.089572,0.318327 0.089572,0.104731 0.2907658,0.104731 0.1984374,0 0.2893878,-0.100597 0.092329,-0.100597 0.092329,-0.322461 v -1.280196 h 0.5319223 z"
         id="path9520" />
      <path
         d="M 11.184661,37.237049 H 10.674787 L 9.8038677,35.828695 v 1.408354 H 9.3187986 v -2.051897 h 0.6325191 l 0.7482743,1.175465 v -1.175465 h 0.485069 z"
         id="path9522" />
    </g>
    <text
       xml:space="preserve"
       style="font-weight:bold;font-size:2.82223px;font-family:sans-serif;-inkscape-font-specification:'sans-serif, Bold';fill:#222222;fill-opacity:1;stroke-width:0.22;paint-order:markers stroke fill"
       x="20.124878"
       y="30.850111"
       id="text2032"><tspan
         sodipodi:role="line"
         id="tspan2030"
         style="stroke-width:0.22"
         x="20.124878"
         y="30.850111" /></text>
    <g
       aria-label="NoteMeter"
       id="text1759-6"
       style="font-weight:bold;font-size:3.88056px;-inkscape-font-specification:'sans-serif, Bold';display:inline;fill:#ffd556;stroke-width:0.22;paint-order:markers stroke fill"
       transform="translate(0.52916667,1.0583333)">
      <path
         d="M 11.636323,5.5719151 H 10.935246 L 9.737729,3.6354248 V 5.5719151 H 9.0707577 V 2.750551 H 9.9404731 L 10.969352,4.3668194 V 2.750551 h 0.666971 z"
         id="path811" />
      <path
         d="m 14.493689,4.5089297 q 0,0.5248609 -0.306959,0.8280297 -0.305063,0.3012739 -0.858346,0.3012739 -0.553283,0 -0.860241,-0.3012739 -0.305064,-0.3031688 -0.305064,-0.8280297 0,-0.5286505 0.306958,-0.8299244 0.308854,-0.3012739 0.858347,-0.3012739 0.557072,0 0.860241,0.3031687 0.305064,0.3031688 0.305064,0.8280296 z M 13.65429,5.0262114 q 0.06632,-0.081477 0.09853,-0.1951649 0.03411,-0.1155831 0.03411,-0.3183271 0,-0.1875857 -0.03411,-0.3145376 Q 13.71871,4.0712299 13.65808,3.9954377 13.59745,3.9177507 13.51218,3.885539 13.42691,3.853327 13.328384,3.853327 q -0.09853,0 -0.176217,0.026527 -0.07579,0.026527 -0.1459,0.1061091 -0.06253,0.073897 -0.100425,0.2027441 -0.036,0.1288467 -0.036,0.3240116 0,0.174322 0.03221,0.3031687 0.03221,0.1269519 0.09474,0.2046389 0.06063,0.073897 0.144005,0.1080039 0.08527,0.034106 0.19327,0.034106 0.09285,0 0.176217,-0.030317 0.08527,-0.032212 0.144005,-0.1061091 z"
         id="path813" />
      <path
         d="m 16.343018,5.5529671 q -0.109898,0.028422 -0.233061,0.043581 -0.123162,0.017053 -0.301274,0.017053 -0.397908,0 -0.593073,-0.1610584 Q 15.02234,5.2914841 15.02234,4.9011543 V 3.9063819 H 14.741908 V 3.4440495 H 15.02234 V 2.8358172 h 0.682129 v 0.6082323 h 0.638549 v 0.4623324 h -0.638549 v 0.7541322 q 0,0.1117935 0.0019,0.1951649 0.0019,0.083371 0.03032,0.1496896 0.02653,0.066318 0.09284,0.106109 0.06821,0.037896 0.19706,0.037896 0.05305,0 0.138321,-0.022738 0.08716,-0.022738 0.121267,-0.041686 h 0.05684 z"
         id="path815" />
      <path
         d="m 18.846055,4.6339868 h -1.561319 q 0.01516,0.2501143 0.189481,0.3827506 0.176217,0.1326363 0.517281,0.1326363 0.216008,0 0.418752,-0.077687 0.202744,-0.077687 0.320222,-0.1667428 h 0.07579 v 0.5475986 q -0.231166,0.092845 -0.435805,0.1345311 -0.204638,0.041686 -0.452858,0.041686 -0.640444,0 -0.981509,-0.2880103 -0.341065,-0.2880103 -0.341065,-0.8204504 0,-0.5267557 0.322117,-0.8337141 0.324012,-0.3088531 0.886769,-0.3088531 0.519176,0 0.780659,0.2633778 0.261483,0.2614831 0.261483,0.7541323 z m -0.67834,-0.3998037 q -0.0057,-0.214113 -0.106109,-0.3221168 -0.100424,-0.1080039 -0.312643,-0.1080039 -0.197059,0 -0.324011,0.1023195 -0.126952,0.1023194 -0.14211,0.3278012 z"
         id="path817" />
      <path
         d="M 22.323021,5.5719151 H 21.599206 V 3.6827949 L 21.07624,4.9087335 H 20.574117 L 20.051151,3.6827949 v 1.8891202 h -0.68592 V 2.750551 h 0.845083 l 0.63476,1.4154191 0.632865,-1.4154191 h 0.845082 z"
         id="path819" />
      <path
         d="m 25.100806,4.6339868 h -1.561319 q 0.01516,0.2501143 0.18948,0.3827506 0.176217,0.1326363 0.517282,0.1326363 0.216007,0 0.418752,-0.077687 0.202744,-0.077687 0.320222,-0.1667428 h 0.07579 v 0.5475986 q -0.231166,0.092845 -0.435805,0.1345311 -0.204639,0.041686 -0.452859,0.041686 -0.640444,0 -0.981508,-0.2880103 -0.341065,-0.2880103 -0.341065,-0.8204504 0,-0.5267557 0.322116,-0.8337141 0.324012,-0.3088531 0.886769,-0.3088531 0.519177,0 0.78066,0.2633778 0.261483,0.2614831 0.261483,0.7541323 z m -0.67834,-0.3998037 q -0.0057,-0.214113 -0.106109,-0.3221168 -0.100425,-0.1080039 -0.312643,-0.1080039 -0.19706,0 -0.324012,0.1023195 -0.126952,0.1023194 -0.14211,0.3278012 z"
         id="path821" />
      <path
         d="m 26.942556,5.5529671 q -0.109898,0.028422 -0.233061,0.043581 -0.123162,0.017053 -0.301274,0.017053 -0.397909,0 -0.593074,-0.1610584 -0.19327,-0.1610584 -0.19327,-0.5513882 V 3.9063819 H 25.341446 V 3.4440495 h 0.280431 V 2.8358172 h 0.68213 v 0.6082323 h 0.638549 v 0.4623324 h -0.638549 v 0.7541322 q 0,0.1117935 0.0019,0.1951649 0.0019,0.083371 0.03032,0.1496896 0.02653,0.066318 0.09285,0.106109 0.06821,0.037896 0.19706,0.037896 0.05305,0 0.138321,-0.022738 0.08716,-0.022738 0.121267,-0.041686 h 0.05684 z"
         id="path823" />
      <path
         d="m 29.445593,4.6339868 h -1.561319 q 0.01516,0.2501143 0.189481,0.3827506 0.176216,0.1326363 0.517281,0.1326363 0.216008,0 0.418752,-0.077687 0.202744,-0.077687 0.320222,-0.1667428 h 0.07579 v 0.5475986 q -0.231166,0.092845 -0.435805,0.1345311 -0.204639,0.041686 -0.452858,0.041686 -0.640444,0 -0.981509,-0.2880103 -0.341065,-0.2880103 -0.341065,-0.8204504 0,-0.5267557 0.322117,-0.8337141 0.324012,-0.3088531 0.886769,-0.3088531 0.519176,0 0.780659,0.2633778 0.261483,0.2614831 0.261483,0.7541323 z m -0.67834,-0.3998037 q -0.0057,-0.214113 -0.106109,-0.3221168 -0.100425,-0.1080039 -0.312643,-0.1080039 -0.197059,0 -0.324011,0.1023195 -0.126952,0.1023194 -0.142111,0.3278012 z"
         id="path825" />
      <path
         d="m 31.469243,4.0939675 h -0.06063 q -0.04358,-0.015158 -0.140215,-0.022738 -0.09663,-0.00758 -0.161059,-0.00758 -0.145899,0 -0.257693,0.018948 -0.111793,0.018948 -0.24064,0.064423 v 1.424893 h -0.68213 v -2.127864 h 0.68213 v 0.3126428 q 0.225482,-0.1932701 0.392224,-0.2557986 0.166743,-0.064423 0.306959,-0.064423 0.036,0 0.08148,0.00189 0.04548,0.00189 0.07958,0.00568 z"
         id="path827" />
    </g>
    <text
       xml:space="preserve"
       style="font-style:normal;font-variant:normal;font-weight:bold;font-stretch:normal;font-size:3.88056px;font-family:sans-serif;-inkscape-font-specification:'sans-serif, Bold';font-variant-ligatures:normal;font-variant-caps:normal;font-variant-numeric:normal;font-variant-east-asian:normal;display:inline;fill:#ffd556;stroke-width:0.22;paint-order:markers stroke fill"
       x="7.9876952"
       y="16.779182"
       id="text809"><tspan
         sodipodi:role="line"
         id="tspan807"
         x="7.9876952"
         y="16.779182">NoteMeter</tspan></text>
  </g>
  <g
     id="layer2"
     inkscape:label="components"
     style="display:none"
     transform="translate(-10.16)"
     inkscape:groupmode="layer"
     sodipodi:insensitive="true">
    <circle
       style="fill:#0000ff;fill-opacity:1;stroke-width:0.0642894"
       id="path930"
       cx="20.32"
       cy="65.048264"
       r="2.54"
       inkscape:label="output example" />
    <circle
       style="fill:#00ff00;fill-opacity:1;stroke-width:0.0642894"
       id="circle28"
       cx="20.32"
       cy="46.498661"
       r="2.54"
       inkscape:label="input example" />
    <circle
       style="fill:#ff0000;fill-opacity:1;stroke-width:0.0642894"
       id="circle932"
       cx="20.32"
       cy="27.949057"
       r="2.54"
       inkscape:label="param example" />
    <circle
       style="fill:#ff00ff;fill-opacity:1;stroke-width:0.0642894"
       id="circle985"
       cx="20.32"
       cy="86.21492"
       r="2.54"
       inkscape:label="light example" />
  </g>
</svg>
