<?xml version="1.0" encoding="UTF-8" standalone="no"?>
<svg
   width="30.48mm"
   height="128.5mm"
   viewBox="0 0 30.48 128.5"
   version="1.1"
   id="svg8"
   inkscape:version="1.2.2 (b0a84865, 2022-12-01)"
   sodipodi:docname="SplitSort.svg"
   xmlns:inkscape="http://www.inkscape.org/namespaces/inkscape"
   xmlns:sodipodi="http://sodipodi.sourceforge.net/DTD/sodipodi-0.dtd"
   xmlns="http://www.w3.org/2000/svg"
   xmlns:svg="http://www.w3.org/2000/svg"
   xmlns:rdf="http://www.w3.org/1999/02/22-rdf-syntax-ns#"
   xmlns:cc="http://creativecommons.org/ns#"
   xmlns:dc="http://purl.org/dc/elements/1.1/">
  <defs
     id="defs2">
    <inkscape:path-effect
       effect="fillet_chamfer"
       id="path-effect419"
       is_visible="true"
       lpeversion="1"
       nodesatellites_param="F,0,0,1,0,3,0,1 @ F,0,0,1,0,3,0,1 @ F,0,0,1,0,3,0,1 @ F,0,0,1,0,3,0,1"
       unit="mm"
       method="auto"
       mode="F"
       radius="3"
       chamfer_steps="1"
       flexible="false"
       use_knot_distance="true"
       apply_no_radius="true"
       apply_with_radius="true"
       only_selected="false"
       hide_knots="false" />
    <inkscape:path-effect
       effect="fillet_chamfer"
       id="path-effect942"
       is_visible="true"
       lpeversion="1"
       nodesatellites_param="F,0,0,1,0,3,0,1 @ F,0,0,1,0,3,0,1 @ F,0,0,1,0,3,0,1 @ F,0,0,1,0,3,0,1"
       unit="mm"
       method="auto"
       mode="F"
       radius="3"
       chamfer_steps="1"
       flexible="false"
       use_knot_distance="true"
       apply_no_radius="true"
       apply_with_radius="true"
       only_selected="false"
       hide_knots="false" />
    <inkscape:path-effect
       effect="fillet_chamfer"
       id="path-effect10104"
       is_visible="true"
       lpeversion="1"
       nodesatellites_param="F,0,0,1,0,2,0,1 @ F,0,0,1,0,2,0,1 @ F,0,0,1,0,2,0,1 @ F,0,0,1,0,2,0,1"
       unit="mm"
       method="auto"
       mode="F"
       radius="2"
       chamfer_steps="1"
       flexible="false"
       use_knot_distance="true"
       apply_no_radius="true"
       apply_with_radius="true"
       only_selected="false"
       hide_knots="false" />
    <rect
       x="130.26277"
       y="65.586853"
       width="64.675926"
       height="17.30764"
       id="rect1854" />
    <rect
       x="22.773212"
       y="117.50977"
       width="10.931142"
       height="11.84207"
       id="rect895" />
    <inkscape:path-effect
       effect="fillet_chamfer"
       id="path-effect942-8"
       is_visible="true"
       lpeversion="1"
       nodesatellites_param="F,0,0,1,0,3,0,1 @ F,0,0,1,0,3,0,1 @ F,0,0,1,0,3,0,1 @ F,0,0,1,0,3,0,1"
       unit="mm"
       method="auto"
       mode="F"
       radius="3"
       chamfer_steps="1"
       flexible="false"
       use_knot_distance="true"
       apply_no_radius="true"
       apply_with_radius="true"
       only_selected="false"
       hide_knots="false" />
  </defs>
  <sodipodi:namedview
     id="base"
     pagecolor="#ffffff"
     bordercolor="#666666"
     borderopacity="1.0"
     inkscape:pageopacity="0.0"
     inkscape:pageshadow="2"
     inkscape:zoom="2.195562"
     inkscape:cx="24.139605"
     inkscape:cy="48.051478"
     inkscape:document-units="mm"
     inkscape:current-layer="layer1"
     inkscape:document-rotation="0"
     showgrid="true"
     inkscape:showpageshadow="false"
     inkscape:window-width="1309"
     inkscape:window-height="847"
     inkscape:window-x="50"
     inkscape:window-y="243"
     inkscape:window-maximized="0"
     inkscape:pagecheckerboard="0"
     width="20.32mm"
     inkscape:deskcolor="#d1d1d1">
    <inkscape:grid
       type="xygrid"
       id="grid3456"
       originx="0"
       originy="0" />
  </sodipodi:namedview>
  <metadata
     id="metadata5">
    <rdf:RDF>
      <cc:Work
         rdf:about="">
        <dc:format>image/svg+xml</dc:format>
        <dc:type
           rdf:resource="http://purl.org/dc/dcmitype/StillImage" />
      </cc:Work>
    </rdf:RDF>
  </metadata>
  <g
     inkscape:label="panel"
     inkscape:groupmode="layer"
     id="layer1"
     style="display:inline">
    <path
       id="rect11"
       style="fill:#333333;fill-rule:evenodd;stroke-width:3.26433"
       inkscape:label="background"
       d="M 1.4327244e-8,5.0353368e-8 H 81.314549 V 128.5 H 1.4327244e-8 Z" />
    <g
       aria-label="Chinenual"
       id="text624"
       style="font-size:3.88056px;-inkscape-font-specification:'sans-serif, Normal';fill:#ffd556;stroke-width:0.264583"
       transform="translate(-24.562103,-3.4947392)">
      <path
         d="m 33.308488,126.088 q -0.104214,0.0455 -0.189481,0.0853 -0.08337,0.0398 -0.219797,0.0834 -0.115583,0.036 -0.252009,0.0606 -0.134531,0.0265 -0.297484,0.0265 -0.306959,0 -0.558968,-0.0853 -0.250114,-0.0872 -0.435805,-0.27095 -0.181901,-0.18001 -0.28422,-0.45665 -0.10232,-0.27854 -0.10232,-0.64613 0,-0.34864 0.09853,-0.62339 0.09853,-0.27475 0.284221,-0.46423 0.180006,-0.18379 0.43391,-0.28043 0.255799,-0.0966 0.566547,-0.0966 0.227376,0 0.452858,0.055 0.227376,0.0549 0.504018,0.19327 v 0.44528 h -0.02842 q -0.233061,-0.19517 -0.462332,-0.28423 -0.229272,-0.0891 -0.490755,-0.0891 -0.214113,0 -0.38654,0.0701 -0.170532,0.0682 -0.305064,0.21411 -0.130741,0.14211 -0.204638,0.36001 -0.072,0.21601 -0.072,0.50023 0,0.29749 0.07958,0.5116 0.08148,0.21411 0.208428,0.34864 0.132637,0.14022 0.308853,0.20843 0.178112,0.0663 0.375172,0.0663 0.270957,0 0.507807,-0.0928 0.236851,-0.0928 0.443385,-0.27853 h 0.02653 z"
         id="path730" />
      <path
         d="m 35.580359,126.29264 h -0.356224 v -1.2051 q 0,-0.1459 -0.01705,-0.27285 -0.01705,-0.12884 -0.06253,-0.20085 -0.04737,-0.0796 -0.136426,-0.11747 -0.08906,-0.0398 -0.231166,-0.0398 -0.1459,0 -0.305064,0.072 -0.159164,0.072 -0.305064,0.18379 v 1.58027 h -0.356223 v -2.94832 h 0.356223 v 1.06678 q 0.166743,-0.13832 0.344855,-0.21601 0.178111,-0.0777 0.365697,-0.0777 0.34296,0 0.522966,0.20654 0.180007,0.20653 0.180007,0.59497 z"
         id="path732" />
      <path
         d="M 36.649028,123.82182 H 36.24733 v -0.36949 h 0.401698 z m -0.02274,2.47082 h -0.356223 v -2.1165 h 0.356223 z"
         id="path734" />
      <path
         d="m 39.100906,126.29264 h -0.356223 v -1.2051 q 0,-0.1459 -0.01705,-0.27285 -0.01705,-0.12884 -0.06253,-0.20085 -0.04737,-0.0796 -0.136426,-0.11747 -0.08906,-0.0398 -0.231166,-0.0398 -0.1459,0 -0.305064,0.072 -0.159163,0.072 -0.305063,0.18379 v 1.58027 H 37.33116 v -2.1165 h 0.356224 v 0.23496 q 0.166742,-0.13832 0.344854,-0.21601 0.178112,-0.0777 0.365697,-0.0777 0.34296,0 0.522966,0.20654 0.180007,0.20653 0.180007,0.59497 z"
         id="path736" />
      <path
         d="m 41.558467,125.27134 h -1.559424 q 0,0.19517 0.05874,0.34107 0.05874,0.144 0.161058,0.23685 0.09853,0.0909 0.233061,0.13642 0.136426,0.0455 0.299379,0.0455 0.216008,0 0.433911,-0.0853 0.219797,-0.0872 0.312642,-0.17053 h 0.01895 v 0.38843 q -0.180006,0.0758 -0.367592,0.12696 -0.187585,0.0512 -0.394119,0.0512 -0.526756,0 -0.822345,-0.28423 -0.29559,-0.28611 -0.29559,-0.81097 0,-0.51918 0.282326,-0.82424 0.284221,-0.30507 0.746553,-0.30507 0.428226,0 0.659392,0.25012 0.233061,0.25011 0.233061,0.71055 z m -0.346749,-0.27285 q -0.0019,-0.28043 -0.14211,-0.43391 -0.138321,-0.15348 -0.422542,-0.15348 -0.286115,0 -0.456648,0.16864 -0.168637,0.16863 -0.191375,0.41875 z"
         id="path738" />
      <path
         d="m 43.868234,126.29264 h -0.356223 v -1.2051 q 0,-0.1459 -0.01705,-0.27285 -0.01705,-0.12884 -0.06253,-0.20085 -0.04737,-0.0796 -0.136426,-0.11747 -0.08906,-0.0398 -0.231166,-0.0398 -0.1459,0 -0.305064,0.072 -0.159163,0.072 -0.305063,0.18379 v 1.58027 h -0.356223 v -2.1165 h 0.356223 v 0.23496 q 0.166743,-0.13832 0.344854,-0.21601 0.178112,-0.0777 0.365698,-0.0777 0.342959,0 0.522966,0.20654 0.180006,0.20653 0.180006,0.59497 z"
         id="path740" />
      <path
         d="m 46.308742,126.29264 h -0.356223 v -0.23496 q -0.180007,0.14212 -0.344855,0.21791 -0.164848,0.0758 -0.363802,0.0758 -0.333486,0 -0.519176,-0.20274 -0.185691,-0.20464 -0.185691,-0.59876 v -1.37374 h 0.356223 v 1.2051 q 0,0.16106 0.01516,0.27664 0.01516,0.11369 0.06442,0.19517 0.05116,0.0834 0.132636,0.12126 0.08148,0.0379 0.236851,0.0379 0.13832,0 0.301274,-0.072 0.164848,-0.072 0.306958,-0.1838 v -1.58027 h 0.356223 z"
         id="path742" />
      <path
         d="m 48.654511,126.29264 h -0.354328 v -0.22548 q -0.04737,0.0322 -0.128847,0.0909 -0.07958,0.0568 -0.155374,0.091 -0.08906,0.0436 -0.204639,0.072 -0.115583,0.0303 -0.270957,0.0303 -0.286116,0 -0.48507,-0.18948 -0.198955,-0.18948 -0.198955,-0.48318 0,-0.24064 0.10232,-0.38843 0.104214,-0.14969 0.295589,-0.23496 0.19327,-0.0853 0.464228,-0.11558 0.270957,-0.0303 0.581705,-0.0455 v -0.0549 q 0,-0.12127 -0.04358,-0.20085 -0.04169,-0.0796 -0.121267,-0.12506 -0.07579,-0.0436 -0.181902,-0.0587 -0.106109,-0.0152 -0.221692,-0.0152 -0.140215,0 -0.312643,0.0379 -0.172427,0.036 -0.356223,0.10611 h -0.01895 v -0.36191 q 0.104214,-0.0284 0.301274,-0.0625 0.19706,-0.0341 0.388435,-0.0341 0.223587,0 0.388435,0.0379 0.166743,0.036 0.28801,0.12506 0.119373,0.0872 0.181901,0.22548 0.06253,0.13832 0.06253,0.34296 z m -0.354328,-0.52107 v -0.58928 q -0.162954,0.009 -0.384646,0.0284 -0.219797,0.0189 -0.348644,0.0549 -0.153479,0.0436 -0.248219,0.13642 -0.09474,0.091 -0.09474,0.25201 0,0.1819 0.109898,0.27475 0.109899,0.091 0.335381,0.091 0.187585,0 0.342959,-0.072 0.155374,-0.0739 0.288011,-0.17622 z"
         id="path744" />
      <path
         d="M 49.700443,126.29264 H 49.34422 v -2.94832 h 0.356223 z"
         id="path746" />
    </g>
    <g
       transform="scale(0.26458333)"
       id="text893"
       style="font-size:10.6667px;-inkscape-font-specification:'sans-serif, Normal';white-space:pre;shape-inside:url(#rect895);fill:#ffd556" />
    <g
       transform="scale(0.26458333)"
       id="text1852"
       style="font-size:8.00001px;-inkscape-font-specification:'sans-serif, Normal';white-space:pre;shape-inside:url(#rect1854);fill:#af83f8" />
    <g
       aria-label="RUN"
       id="text9484"
       style="font-weight:bold;font-size:2.82222px;-inkscape-font-specification:'sans-serif, Bold';display:none;fill:#ffd456;stroke-width:0.22;paint-order:markers stroke fill"
       transform="translate(1.2050825,-9.8816763)">
      <path
         d="m 5.9701682,35.813537 q 0,-0.07717 -0.031695,-0.132292 -0.031695,-0.05512 -0.108865,-0.08682 -0.053743,-0.02205 -0.1254014,-0.02618 -0.071658,-0.0055 -0.1667425,-0.0055 H 5.3459174 v 0.552593 h 0.1626084 q 0.1267794,0 0.2122177,-0.0124 0.085438,-0.0124 0.1433158,-0.0565 0.055122,-0.04272 0.079926,-0.09371 0.026183,-0.05236 0.026183,-0.139181 z m 0.8254443,1.423512 H 6.149313 L 5.58983,36.484641 H 5.3459174 v 0.752408 H 4.8195072 v -2.051897 h 0.8874559 q 0.1819009,0 0.3128144,0.02067 0.1309136,0.02067 0.2452907,0.08957 0.1157551,0.0689 0.1832789,0.179145 0.068902,0.108865 0.068902,0.274229 0,0.227376 -0.1061089,0.370692 -0.1047308,0.143316 -0.3004121,0.2384 z"
         id="path9518" />
      <path
         d="m 8.8240832,36.494287 q 0,0.380338 -0.2315102,0.58291 -0.2315102,0.202571 -0.6821284,0.202571 -0.4506181,0 -0.6821284,-0.202571 Q 6.998184,36.874625 6.998184,36.495665 v -1.310513 h 0.5319224 v 1.280196 q 0,0.213596 0.089572,0.318327 0.089572,0.104731 0.2907658,0.104731 0.1984374,0 0.2893878,-0.100597 0.092329,-0.100597 0.092329,-0.322461 v -1.280196 h 0.5319223 z"
         id="path9520" />
      <path
         d="M 11.184661,37.237049 H 10.674787 L 9.8038677,35.828695 v 1.408354 H 9.3187986 v -2.051897 h 0.6325191 l 0.7482743,1.175465 v -1.175465 h 0.485069 z"
         id="path9522" />
    </g>
    <path
       style="fill:#222222;fill-opacity:1;stroke-width:0.22;paint-order:markers stroke fill"
       id="path938"
       width="25.909275"
       height="81.463577"
       x="2.347487"
       y="24.57057"
       inkscape:path-effect="#path-effect942"
       d="m 5.347487,24.57057 h 19.909275 a 3,3 45 0 1 3,3 v 75.46358 a 3,3 135 0 1 -3,3 H 5.347487 a 3,3 45 0 1 -3,-3 V 27.57057 a 3,3 135 0 1 3,-3 z"
       sodipodi:type="rect" />
    <path
       style="display:inline;fill:#222222;fill-opacity:1;stroke-width:0.22;paint-order:markers stroke fill"
       id="path938-4"
       width="11.448285"
       height="10.845741"
       x="14.228243"
       y="108.44431"
       inkscape:path-effect="#path-effect942-8"
       d="m 17.228243,108.44431 h 5.448285 a 3,3 45 0 1 3,3 v 4.84574 a 3,3 135 0 1 -3,3 h -5.448285 a 3,3 45 0 1 -3,-3 v -4.84574 a 3,3 135 0 1 3,-3 z"
       sodipodi:type="rect" />
    <text
       xml:space="preserve"
       style="font-weight:bold;font-size:2.82223px;font-family:sans-serif;-inkscape-font-specification:'sans-serif, Bold';fill:#222222;fill-opacity:1;stroke-width:0.22;paint-order:markers stroke fill"
       x="20.124878"
       y="30.850111"
       id="text2032"><tspan
         sodipodi:role="line"
         id="tspan2030"
         style="stroke-width:0.22"
         x="20.124878"
         y="30.850111" /></text>
    <text
       xml:space="preserve"
       style="font-style:normal;font-variant:normal;font-weight:bold;font-stretch:normal;font-size:3.88056px;font-family:sans-serif;-inkscape-font-specification:'sans-serif, Bold';font-variant-ligatures:normal;font-variant-caps:normal;font-variant-numeric:normal;font-variant-east-asian:normal;display:inline;fill:#ffd556;stroke-width:0.22;paint-order:markers stroke fill"
       x="34.937328"
       y="7.98208"
       id="text1759-6"><tspan
         sodipodi:role="line"
         id="tspan1996"
         x="34.937328"
         y="7.98208">SplitSort</tspan></text>
    <text
       xml:space="preserve"
       style="font-style:normal;font-variant:normal;font-weight:bold;font-stretch:normal;font-size:2.11666667px;font-family:sans-serif;-inkscape-font-specification:'sans-serif, Bold';font-variant-ligatures:normal;font-variant-caps:normal;font-variant-numeric:normal;font-variant-east-asian:normal;display:inline;fill:#ffd556;stroke-width:0.22;paint-order:markers stroke fill"
       x="34.17952"
       y="14.701261"
       id="text1759-6-1"><tspan
         sodipodi:role="line"
         id="tspan1996-7"
         x="34.17952"
         y="14.701261"
         style="font-style:normal;font-variant:normal;font-weight:bold;font-stretch:normal;font-size:2.11666667px;font-family:sans-serif;-inkscape-font-specification:'sans-serif, Bold';font-variant-ligatures:normal;font-variant-caps:normal;font-variant-numeric:normal;font-variant-east-asian:normal">IN</tspan></text>
    <g
       aria-label="IN"
       id="text1759-6-1-53"
       style="font-weight:bold;font-size:2.11667px;-inkscape-font-specification:'sans-serif, Bold';display:inline;fill:#ffd556;stroke-width:0.22;paint-order:markers stroke fill"
       transform="translate(2.6458334)">
      <path
         d="M 6.4581435,12.579271 H 5.5569052 V 12.306419 H 5.8090866 V 11.313197 H 5.5569052 v -0.272852 h 0.9012383 v 0.272852 H 6.2059622 v 0.993222 h 0.2521813 z"
         id="path818" />
      <path
         d="M 8.1810384,12.579271 H 7.7986323 L 7.1454412,11.523003 v 1.056268 H 6.7816385 v -1.538926 h 0.4743904 l 0.5612069,0.881601 v -0.881601 h 0.3638026 z"
         id="path820" />
    </g>
    <text
       xml:space="preserve"
       style="font-style:normal;font-variant:normal;font-weight:bold;font-stretch:normal;font-size:2.11666667px;font-family:sans-serif;-inkscape-font-specification:'sans-serif, Bold';font-variant-ligatures:normal;font-variant-caps:normal;font-variant-numeric:normal;font-variant-east-asian:normal;display:inline;fill:#ffd556;stroke-width:0.22;paint-order:markers stroke fill"
       x="40.448521"
       y="18.620153"
       id="text1759-6-1-5"><tspan
         sodipodi:role="line"
         id="tspan1996-7-2"
         x="40.448521"
         y="18.620153"
         style="font-style:normal;font-variant:normal;font-weight:bold;font-stretch:normal;font-size:2.11666667px;font-family:sans-serif;-inkscape-font-specification:'sans-serif, Bold';font-variant-ligatures:normal;font-variant-caps:normal;font-variant-numeric:normal;font-variant-east-asian:normal">OUT</tspan></text>
    <g
       aria-label="OUT"
       id="text1759-6-1-5-2"
       style="font-weight:bold;font-size:2.11667px;-inkscape-font-specification:'sans-serif, Bold';display:inline;fill:#ffd556;stroke-width:0.22;paint-order:markers stroke fill"
       transform="translate(0.52916667,2.6458334)">
      <path
         d="m 13.761908,20.968953 q 0,0.367937 -0.21084,0.584978 -0.21084,0.216008 -0.582911,0.216008 -0.371037,0 -0.581877,-0.216008 -0.21084,-0.217041 -0.21084,-0.584978 0,-0.371037 0.21084,-0.586011 0.21084,-0.216008 0.581877,-0.216008 0.370004,0 0.581878,0.216008 0.211873,0.214974 0.211873,0.586011 z m -0.526066,0.389641 q 0.05788,-0.07028 0.08578,-0.165365 0.02791,-0.09612 0.02791,-0.225309 0,-0.138493 -0.03204,-0.235645 -0.03204,-0.09715 -0.08372,-0.157097 -0.05271,-0.06201 -0.121956,-0.08992 -0.06821,-0.02791 -0.142627,-0.02791 -0.07545,0 -0.142627,0.02687 -0.06615,0.02687 -0.121957,0.08888 -0.05168,0.05788 -0.08475,0.160197 -0.03204,0.101286 -0.03204,0.235645 0,0.13746 0.03101,0.234612 0.03204,0.09612 0.08372,0.157096 0.05168,0.06098 0.120923,0.08992 0.06925,0.02894 0.145728,0.02894 0.07648,0 0.145728,-0.02894 0.06925,-0.02997 0.120923,-0.09198 z"
         id="path832" />
      <path
         d="m 15.412456,21.180827 q 0,0.285254 -0.173633,0.437183 -0.173633,0.151929 -0.511597,0.151929 -0.337965,0 -0.511598,-0.151929 -0.172599,-0.151929 -0.172599,-0.436149 v -0.982888 h 0.398942 v 0.96015 q 0,0.160197 0.06718,0.238745 0.06718,0.07855 0.218075,0.07855 0.148828,0 0.217041,-0.07545 0.06925,-0.07545 0.06925,-0.241846 v -0.96015 h 0.398942 z"
         id="path834" />
      <path
         d="m 16.987556,20.49663 h -0.480591 v 1.24127 h -0.396876 v -1.24127 h -0.480591 v -0.297657 h 1.358058 z"
         id="path836" />
    </g>
    <text
       xml:space="preserve"
       style="font-style:normal;font-variant:normal;font-weight:bold;font-stretch:normal;font-size:2.11666667px;font-family:sans-serif;-inkscape-font-specification:'sans-serif, Bold';font-variant-ligatures:normal;font-variant-caps:normal;font-variant-numeric:normal;font-variant-east-asian:normal;display:inline;fill:#ffd556;stroke-width:0.22;paint-order:markers stroke fill"
       x="34.543617"
       y="24.525057"
       id="text1759-6-1-3"><tspan
         sodipodi:role="line"
         id="tspan1996-7-3"
         x="34.543617"
         y="24.525057"
         style="font-style:normal;font-variant:normal;font-weight:bold;font-stretch:normal;font-size:2.11666667px;font-family:sans-serif;-inkscape-font-specification:'sans-serif, Bold';font-variant-ligatures:normal;font-variant-caps:normal;font-variant-numeric:normal;font-variant-east-asian:normal">LINK</tspan></text>
    <g
       aria-label="LINK"
       id="text1759-6-1-3-1"
       style="font-weight:bold;font-size:2.11667px;-inkscape-font-specification:'sans-serif, Bold';display:inline;fill:#ffd556;stroke-width:0.22;paint-order:markers stroke fill"
       transform="translate(0,-1.5875)">
      <path
         d="m 13.18654,109.94994 h -1.110012 v -1.53892 h 0.396876 v 1.24127 h 0.713136 z"
         id="path809" />
      <path
         d="m 14.257277,109.94994 h -0.901238 v -0.27285 h 0.252181 v -0.99322 h -0.252181 v -0.27285 h 0.901238 v 0.27285 h -0.252181 v 0.99322 h 0.252181 z"
         id="path811" />
      <path
         d="m 15.980172,109.94994 h -0.382406 l -0.653191,-1.05626 v 1.05626 h -0.363803 v -1.53892 h 0.47439 l 0.561207,0.8816 v -0.8816 h 0.363803 z"
         id="path813" />
      <path
         d="m 17.809521,109.94994 h -0.486793 l -0.459921,-0.61598 -0.09302,0.11265 v 0.50333 h -0.396875 v -1.53892 h 0.396875 v 0.6966 l 0.549838,-0.6966 h 0.459921 l -0.601514,0.7121 z"
         id="path815" />
    </g>
    <text
       xml:space="preserve"
       style="font-style:normal;font-variant:normal;font-weight:bold;font-stretch:normal;font-size:2.11666667px;font-family:sans-serif;-inkscape-font-specification:'sans-serif, Bold';font-variant-ligatures:normal;font-variant-caps:normal;font-variant-numeric:normal;font-variant-east-asian:normal;display:inline;fill:#ffd556;stroke-width:0.22;paint-order:markers stroke fill"
       x="43.70388"
       y="30.188944"
       id="text1759-6-1-3-3"><tspan
         sodipodi:role="line"
         id="tspan1996-7-3-1"
         x="43.70388"
         y="30.188944"
         style="font-style:normal;font-variant:normal;font-weight:bold;font-stretch:normal;font-size:2.11666667px;font-family:sans-serif;-inkscape-font-specification:'sans-serif, Bold';font-variant-ligatures:normal;font-variant-caps:normal;font-variant-numeric:normal;font-variant-east-asian:normal">SORT</tspan></text>
    <g
       aria-label="SORT"
       id="text1759-6-1-3-3-6"
       style="font-weight:bold;font-size:2.11667px;-inkscape-font-specification:'sans-serif, Bold';display:inline;fill:#ffd556;stroke-width:0.22;paint-order:markers stroke fill"
       transform="translate(-1.5875)">
      <path
         d="m 20.124857,12.216088 q 0,0.227377 -0.19327,0.370004 -0.192237,0.141594 -0.522967,0.141594 -0.191203,0 -0.33383,-0.03307 -0.141594,-0.03411 -0.265617,-0.08578 v -0.36897 h 0.04341 q 0.12299,0.09818 0.274919,0.150895 0.152963,0.05271 0.293523,0.05271 0.03617,0 0.09508,-0.0062 0.05891,-0.0062 0.09612,-0.02067 0.04547,-0.0186 0.07441,-0.04651 0.02997,-0.02791 0.02997,-0.08268 0,-0.05064 -0.04341,-0.08682 -0.04237,-0.03721 -0.125057,-0.05684 -0.08682,-0.02067 -0.183969,-0.03824 -0.09612,-0.0186 -0.180867,-0.04651 -0.194304,-0.06305 -0.280087,-0.170533 -0.08475,-0.10852 -0.08475,-0.268718 0,-0.214974 0.192236,-0.350366 0.19327,-0.136426 0.496095,-0.136426 0.151929,0 0.299723,0.02997 0.148829,0.02894 0.257349,0.07338 v 0.354501 h -0.04237 q -0.09302,-0.07442 -0.22841,-0.124024 -0.134359,-0.05064 -0.27492,-0.05064 -0.04961,0 -0.09922,0.0072 -0.04858,0.0062 -0.09405,0.0248 -0.04031,0.0155 -0.06925,0.04754 -0.02894,0.03101 -0.02894,0.07131 0,0.06098 0.04651,0.09405 0.04651,0.03204 0.1757,0.05891 0.08475,0.01757 0.162264,0.03411 0.07855,0.01654 0.168466,0.04548 0.176733,0.05788 0.260449,0.15813 0.08475,0.09922 0.08475,0.258382 z"
         id="path823" />
      <path
         d="m 21.893227,11.930834 q 0,0.367937 -0.21084,0.584978 -0.21084,0.216008 -0.582911,0.216008 -0.371038,0 -0.581878,-0.216008 -0.21084,-0.217041 -0.21084,-0.584978 0,-0.371037 0.21084,-0.586012 0.21084,-0.216007 0.581878,-0.216007 0.370004,0 0.581877,0.216007 0.211874,0.214975 0.211874,0.586012 z m -0.526067,0.389641 q 0.05788,-0.07028 0.08578,-0.165365 0.02791,-0.09612 0.02791,-0.22531 0,-0.138493 -0.03204,-0.235644 -0.03204,-0.09715 -0.08372,-0.157097 -0.05271,-0.06201 -0.121957,-0.08992 -0.06821,-0.0279 -0.142627,-0.0279 -0.07545,0 -0.142627,0.02687 -0.06615,0.02687 -0.121957,0.08888 -0.05168,0.05788 -0.08475,0.160197 -0.03204,0.101286 -0.03204,0.235645 0,0.137459 0.03101,0.234611 0.03204,0.09612 0.08372,0.157097 0.05168,0.06098 0.120923,0.08992 0.06925,0.02894 0.145728,0.02894 0.07648,0 0.145728,-0.02894 0.06925,-0.02997 0.120923,-0.09198 z"
         id="path825" />
      <path
         d="m 23.059049,11.632144 q 0,-0.05788 -0.02377,-0.09922 -0.02377,-0.04134 -0.08165,-0.06511 -0.04031,-0.01654 -0.09405,-0.01964 -0.05374,-0.0041 -0.125057,-0.0041 H 22.59086 v 0.414446 h 0.121956 q 0.09509,0 0.159164,-0.0093 0.06408,-0.0093 0.107487,-0.04237 0.04134,-0.03204 0.05994,-0.07028 0.01964,-0.03927 0.01964,-0.104386 z m 0.619085,1.067636 H 23.193408 L 22.773795,12.135473 H 22.59086 v 0.564307 h -0.394809 v -1.538926 h 0.665594 q 0.136426,0 0.234611,0.0155 0.09819,0.0155 0.183968,0.06718 0.08682,0.05168 0.13746,0.134359 0.05168,0.08165 0.05168,0.205673 0,0.170532 -0.07958,0.278019 -0.07855,0.107488 -0.22531,0.178801 z"
         id="path827" />
      <path
         d="m 25.055829,11.458511 h -0.480591 v 1.241269 h -0.396876 v -1.241269 h -0.480591 v -0.297657 h 1.358058 z"
         id="path829" />
    </g>
    <g
       aria-label="SplitSort"
       id="text1759-6-2"
       style="font-weight:bold;font-size:3.88056px;-inkscape-font-specification:'sans-serif, Bold';display:inline;fill:#ffd556;stroke-width:0.22;paint-order:markers stroke fill">
      <path
         d="m 8.71972,6.8250134 q 0,0.416857 -0.3543285,0.6783401 -0.3524336,0.2595882 -0.9587711,0.2595882 -0.3505389,0 -0.6120219,-0.060634 Q 6.5350102,7.6397794 6.3076337,7.5450392 V 6.8685939 h 0.079582 q 0.2254817,0.1800065 0.504018,0.2766415 0.2804311,0.096635 0.5381245,0.096635 0.066318,0 0.1743221,-0.011369 0.1080038,-0.011369 0.1762168,-0.037896 0.083371,-0.034107 0.1364259,-0.085266 0.054949,-0.05116 0.054949,-0.1515844 0,-0.092845 -0.079582,-0.1591636 Q 7.8140034,6.7283784 7.662419,6.6923771 7.5032554,6.654481 7.3251438,6.6222693 7.1489269,6.5881628 6.993553,6.5370031 6.6373297,6.42142 6.4800609,6.2243603 6.3246869,6.0254058 6.3246869,5.7317111 q 0,-0.3941193 0.3524337,-0.6423388 0.3543285,-0.2501142 0.9095062,-0.2501142 0.2785363,0 0.5494934,0.054949 0.2728518,0.053055 0.4718063,0.1345311 v 0.649918 H 8.5302395 Q 8.3597071,5.5422307 8.1114877,5.45128 7.8651631,5.3584346 7.6074697,5.3584346 q -0.090951,0 -0.1819013,0.013264 -0.089056,0.011369 -0.1724272,0.045475 -0.073897,0.028422 -0.1269519,0.087161 -0.053055,0.056844 -0.053055,0.1307415 0,0.1117935 0.085266,0.1724272 0.085266,0.058739 0.3221168,0.1080039 0.1553739,0.032212 0.2974843,0.062528 0.1440051,0.030317 0.3088531,0.083371 Q 8.4108668,6.1675162 8.564346,6.3513122 8.71972,6.5332135 8.71972,6.8250134 Z"
         id="path511" />
      <path
         d="m 11.400869,6.6184797 q 0,0.2633778 -0.08148,0.4793856 -0.07958,0.2160077 -0.210323,0.3562232 -0.136426,0.1477948 -0.308853,0.223587 -0.172428,0.075792 -0.369487,0.075792 -0.181902,0 -0.308853,-0.039791 Q 9.9949236,7.6757807 9.8622873,7.6056729 V 8.4924415 H 9.1801576 V 5.5839164 h 0.6821297 v 0.2216921 q 0.1572687,-0.1250571 0.3202217,-0.2027441 0.164848,-0.077687 0.378961,-0.077687 0.397909,0 0.617707,0.2917999 0.221692,0.2917999 0.221692,0.8015024 z m -0.702973,0.013264 q 0,-0.3107479 -0.106109,-0.4509635 -0.106109,-0.1402155 -0.33538,-0.1402155 -0.09663,0 -0.198955,0.030317 -0.1023193,0.028422 -0.1951647,0.083371 v 1.0705646 q 0.068213,0.026527 0.1458997,0.034107 0.07769,0.00758 0.153479,0.00758 0.270957,0 0.403594,-0.1572688 0.132636,-0.1591636 0.132636,-0.4774908 z"
         id="path513" />
      <path
         d="m 12.575648,7.711782 h -0.68213 V 4.7634659 h 0.68213 z"
         id="path515" />
      <path
         d="m 13.902011,7.711782 h -0.68213 V 5.5839164 h 0.68213 z m 0.01895,-2.4310344 H 13.200933 V 4.7634659 h 0.720026 z"
         id="path517" />
      <path
         d="m 15.906714,7.6928339 q -0.109898,0.028422 -0.233061,0.043581 -0.123162,0.017053 -0.301274,0.017053 -0.397909,0 -0.593073,-0.1610584 Q 14.586035,7.4313509 14.586035,7.0410211 V 6.0462487 H 14.305604 V 5.5839164 h 0.280431 V 4.9756841 h 0.68213 v 0.6082323 h 0.638549 v 0.4623323 h -0.638549 v 0.7541322 q 0,0.1117935 0.0019,0.1951649 0.0019,0.083371 0.03032,0.1496896 0.02653,0.066318 0.09285,0.106109 0.06821,0.037896 0.19706,0.037896 0.05305,0 0.138321,-0.022738 0.08716,-0.022738 0.121267,-0.041686 h 0.05684 z"
         id="path519" />
      <path
         d="m 18.610601,6.8250134 q 0,0.416857 -0.354329,0.6783401 -0.352434,0.2595882 -0.958771,0.2595882 -0.350539,0 -0.612022,-0.060634 -0.259588,-0.062529 -0.486965,-0.1572688 V 6.8685939 h 0.07958 q 0.225482,0.1800065 0.504018,0.2766415 0.280431,0.096635 0.538125,0.096635 0.06632,0 0.174322,-0.011369 0.108004,-0.011369 0.176216,-0.037896 0.08337,-0.034107 0.136426,-0.085266 0.05495,-0.05116 0.05495,-0.1515844 0,-0.092845 -0.07958,-0.1591636 Q 17.704884,6.7283784 17.5533,6.6923771 17.394136,6.654481 17.216024,6.6222693 17.039808,6.5881628 16.884434,6.5370031 16.52821,6.42142 16.370941,6.2243603 16.215568,6.0254058 16.215568,5.7317111 q 0,-0.3941193 0.352433,-0.6423388 0.354329,-0.2501142 0.909506,-0.2501142 0.278537,0 0.549494,0.054949 0.272852,0.053055 0.471806,0.1345311 v 0.649918 H 18.42112 Q 18.250588,5.5422307 18.002368,5.45128 17.756044,5.3584346 17.49835,5.3584346 q -0.09095,0 -0.181901,0.013264 -0.08906,0.011369 -0.172427,0.045475 -0.0739,0.028422 -0.126952,0.087161 -0.05306,0.056844 -0.05306,0.1307415 0,0.1117935 0.08527,0.1724272 0.08527,0.058739 0.322116,0.1080039 0.155374,0.032212 0.297485,0.062528 0.144005,0.030317 0.308853,0.083371 0.324011,0.1061091 0.477491,0.2899051 0.155374,0.1819013 0.155374,0.4737012 z"
         id="path521" />
      <path
         d="m 21.246274,6.6487966 q 0,0.5248609 -0.306958,0.8280296 -0.305064,0.3012739 -0.858347,0.3012739 -0.553283,0 -0.860241,-0.3012739 -0.305064,-0.3031687 -0.305064,-0.8280296 0,-0.5286505 0.306959,-0.8299245 0.308853,-0.3012739 0.858346,-0.3012739 0.557073,0 0.860241,0.3031687 0.305064,0.3031688 0.305064,0.8280297 z m -0.839399,0.5172816 q 0.06632,-0.081477 0.09853,-0.1951648 0.03411,-0.1155831 0.03411,-0.3183272 0,-0.1875857 -0.03411,-0.3145376 -0.03411,-0.1269519 -0.09474,-0.2027441 -0.06063,-0.077687 -0.1459,-0.1098987 -0.08527,-0.032212 -0.183796,-0.032212 -0.09853,0 -0.176217,0.026527 -0.07579,0.026527 -0.1459,0.1061091 -0.06253,0.073897 -0.100424,0.2027441 -0.036,0.1288467 -0.036,0.3240116 0,0.174322 0.03221,0.3031687 0.03221,0.1269519 0.09474,0.2046389 0.06063,0.073897 0.144005,0.1080039 0.08527,0.034106 0.19327,0.034106 0.09285,0 0.176217,-0.030317 0.08527,-0.032212 0.144005,-0.1061091 z"
         id="path523" />
      <path
         d="m 23.277504,6.2338344 h -0.06063 q -0.04358,-0.015159 -0.140215,-0.022738 -0.09663,-0.00758 -0.161059,-0.00758 -0.1459,0 -0.257693,0.018948 -0.111794,0.018948 -0.24064,0.064423 V 7.711782 h -0.68213 V 5.5839164 h 0.68213 v 0.3126427 q 0.225482,-0.19327 0.392224,-0.2557986 0.166743,-0.064423 0.306959,-0.064423 0.036,0 0.08148,0.00189 0.04548,0.00189 0.07958,0.00568 z"
         id="path525" />
      <path
         d="m 25.024514,7.6928339 q -0.109899,0.028422 -0.233061,0.043581 -0.123162,0.017053 -0.301274,0.017053 -0.397909,0 -0.593074,-0.1610584 -0.19327,-0.1610584 -0.19327,-0.5513882 V 6.0462487 H 23.423404 V 5.5839164 h 0.280431 V 4.9756841 h 0.68213 v 0.6082323 h 0.638549 v 0.4623323 h -0.638549 v 0.7541322 q 0,0.1117935 0.0019,0.1951649 0.0019,0.083371 0.03032,0.1496896 0.02653,0.066318 0.09285,0.106109 0.06821,0.037896 0.19706,0.037896 0.05305,0 0.13832,-0.022738 0.08716,-0.022738 0.121268,-0.041686 h 0.05684 z"
         id="path527" />
    </g>
    <path
       style="display:inline;fill:#222222;fill-opacity:1;stroke-width:0.22;paint-order:markers stroke fill"
       id="path415"
       width="11.448285"
       height="10.845741"
       x="36.322544"
       y="106.27516"
       inkscape:path-effect="#path-effect419"
       d="m 39.322544,106.27516 h 5.448285 a 3,3 45 0 1 3,3 v 4.84574 a 3,3 135 0 1 -3,3 h -5.448285 a 3,3 45 0 1 -3,-3 v -4.84574 a 3,3 135 0 1 3,-3 z"
       sodipodi:type="rect" />
  </g>
  <g
     id="layer2"
     inkscape:label="components"
     style="display:none"
     transform="translate(-10.16)"
     inkscape:groupmode="layer"
     sodipodi:insensitive="true">
    <circle
       style="fill:#0000ff;fill-opacity:1;stroke-width:0.0642894"
       id="path930"
       cx="20.32"
       cy="65.048264"
       r="2.54"
       inkscape:label="output example" />
    <circle
       style="fill:#00ff00;fill-opacity:1;stroke-width:0.0642894"
       id="circle28"
       cx="20.32"
       cy="46.498661"
       r="2.54"
       inkscape:label="input example" />
    <circle
       style="fill:#ff0000;fill-opacity:1;stroke-width:0.0642894"
       id="circle932"
       cx="20.32"
       cy="27.949057"
       r="2.54"
       inkscape:label="param example" />
    <circle
       style="fill:#ff00ff;fill-opacity:1;stroke-width:0.0642894"
       id="circle985"
       cx="20.32"
       cy="86.21492"
       r="2.54"
       inkscape:label="light example" />
  </g>
</svg>
