<?xml version="1.0" encoding="UTF-8" standalone="no"?>
<svg
   width="15.24mm"
   height="128.5mm"
   viewBox="0 0 15.24 128.5"
   version="1.1"
   id="svg8"
   inkscape:version="1.2.1 (9c6d41e4, 2022-07-14)"
   sodipodi:docname="Tint.svg"
   xmlns:inkscape="http://www.inkscape.org/namespaces/inkscape"
   xmlns:sodipodi="http://sodipodi.sourceforge.net/DTD/sodipodi-0.dtd"
   xmlns="http://www.w3.org/2000/svg"
   xmlns:svg="http://www.w3.org/2000/svg"
   xmlns:rdf="http://www.w3.org/1999/02/22-rdf-syntax-ns#"
   xmlns:cc="http://creativecommons.org/ns#"
   xmlns:dc="http://purl.org/dc/elements/1.1/">
  <defs
     id="defs2">
    <inkscape:path-effect
       effect="fillet_chamfer"
       id="path-effect419"
       is_visible="true"
       lpeversion="1"
       nodesatellites_param="F,0,0,1,0,3,0,1 @ F,0,0,1,0,3,0,1 @ F,0,0,1,0,3,0,1 @ F,0,0,1,0,3,0,1"
       unit="mm"
       method="auto"
       mode="F"
       radius="3"
       chamfer_steps="1"
       flexible="false"
       use_knot_distance="true"
       apply_no_radius="true"
       apply_with_radius="true"
       only_selected="false"
       hide_knots="false" />
    <inkscape:path-effect
       effect="fillet_chamfer"
       id="path-effect942"
       is_visible="true"
       lpeversion="1"
       nodesatellites_param="F,0,0,1,0,3,0,1 @ F,0,0,1,0,3,0,1 @ F,0,0,1,0,3,0,1 @ F,0,0,1,0,3,0,1"
       unit="mm"
       method="auto"
       mode="F"
       radius="3"
       chamfer_steps="1"
       flexible="false"
       use_knot_distance="true"
       apply_no_radius="true"
       apply_with_radius="true"
       only_selected="false"
       hide_knots="false" />
    <inkscape:path-effect
       effect="fillet_chamfer"
       id="path-effect10104"
       is_visible="true"
       lpeversion="1"
       nodesatellites_param="F,0,0,1,0,2,0,1 @ F,0,0,1,0,2,0,1 @ F,0,0,1,0,2,0,1 @ F,0,0,1,0,2,0,1"
       unit="mm"
       method="auto"
       mode="F"
       radius="2"
       chamfer_steps="1"
       flexible="false"
       use_knot_distance="true"
       apply_no_radius="true"
       apply_with_radius="true"
       only_selected="false"
       hide_knots="false" />
    <rect
       x="130.26277"
       y="65.586853"
       width="64.675926"
       height="17.30764"
       id="rect1854" />
    <rect
       x="22.773212"
       y="117.50977"
       width="10.931142"
       height="11.84207"
       id="rect895" />
    <inkscape:path-effect
       effect="fillet_chamfer"
       id="path-effect942-8"
       is_visible="true"
       lpeversion="1"
       nodesatellites_param="F,0,0,1,0,3,0,1 @ F,0,0,1,0,3,0,1 @ F,0,0,1,0,3,0,1 @ F,0,0,1,0,3,0,1"
       unit="mm"
       method="auto"
       mode="F"
       radius="3"
       chamfer_steps="1"
       flexible="false"
       use_knot_distance="true"
       apply_no_radius="true"
       apply_with_radius="true"
       only_selected="false"
       hide_knots="false" />
  </defs>
  <sodipodi:namedview
     id="base"
     pagecolor="#ffffff"
     bordercolor="#666666"
     borderopacity="1.0"
     inkscape:pageopacity="0.0"
     inkscape:pageshadow="2"
     inkscape:zoom="2.195562"
     inkscape:cx="19.812695"
     inkscape:cy="258.47596"
     inkscape:document-units="mm"
     inkscape:current-layer="layer1"
     inkscape:document-rotation="0"
     showgrid="true"
     inkscape:showpageshadow="false"
     inkscape:window-width="1309"
     inkscape:window-height="847"
     inkscape:window-x="50"
     inkscape:window-y="299"
     inkscape:window-maximized="0"
     inkscape:pagecheckerboard="0"
     width="20.32mm"
     inkscape:deskcolor="#d1d1d1">
    <inkscape:grid
       type="xygrid"
       id="grid3456"
       originx="0"
       originy="0" />
  </sodipodi:namedview>
  <metadata
     id="metadata5">
    <rdf:RDF>
      <cc:Work
         rdf:about="">
        <dc:format>image/svg+xml</dc:format>
        <dc:type
           rdf:resource="http://purl.org/dc/dcmitype/StillImage" />
      </cc:Work>
    </rdf:RDF>
  </metadata>
  <g
     inkscape:label="panel"
     inkscape:groupmode="layer"
     id="layer1"
     style="display:inline">
    <path
       id="rect11"
       style="fill:#333333;fill-rule:evenodd;stroke-width:1.66195"
       inkscape:label="background"
       d="M -2.7716894,-0.24101638 H 18.168227 V 129.10254 H -2.7716894 Z" />
    <g
       transform="scale(0.26458333)"
       id="text893"
       style="font-size:10.6667px;-inkscape-font-specification:'sans-serif, Normal';white-space:pre;shape-inside:url(#rect895);fill:#ffd556" />
    <g
       transform="scale(0.26458333)"
       id="text1852"
       style="font-size:8.00001px;-inkscape-font-specification:'sans-serif, Normal';white-space:pre;shape-inside:url(#rect1854);fill:#af83f8" />
    <g
       aria-label="RUN"
       id="text9484"
       style="font-weight:bold;font-size:2.82222px;-inkscape-font-specification:'sans-serif, Bold';display:none;fill:#ffd456;stroke-width:0.22;paint-order:markers stroke fill"
       transform="translate(1.2050825,-9.8816763)">
      <path
         d="m 5.9701682,35.813537 q 0,-0.07717 -0.031695,-0.132292 -0.031695,-0.05512 -0.108865,-0.08682 -0.053743,-0.02205 -0.1254014,-0.02618 -0.071658,-0.0055 -0.1667425,-0.0055 H 5.3459174 v 0.552593 h 0.1626084 q 0.1267794,0 0.2122177,-0.0124 0.085438,-0.0124 0.1433158,-0.0565 0.055122,-0.04272 0.079926,-0.09371 0.026183,-0.05236 0.026183,-0.139181 z m 0.8254443,1.423512 H 6.149313 L 5.58983,36.484641 H 5.3459174 v 0.752408 H 4.8195072 v -2.051897 h 0.8874559 q 0.1819009,0 0.3128144,0.02067 0.1309136,0.02067 0.2452907,0.08957 0.1157551,0.0689 0.1832789,0.179145 0.068902,0.108865 0.068902,0.274229 0,0.227376 -0.1061089,0.370692 -0.1047308,0.143316 -0.3004121,0.2384 z"
         id="path9518" />
      <path
         d="m 8.8240832,36.494287 q 0,0.380338 -0.2315102,0.58291 -0.2315102,0.202571 -0.6821284,0.202571 -0.4506181,0 -0.6821284,-0.202571 Q 6.998184,36.874625 6.998184,36.495665 v -1.310513 h 0.5319224 v 1.280196 q 0,0.213596 0.089572,0.318327 0.089572,0.104731 0.2907658,0.104731 0.1984374,0 0.2893878,-0.100597 0.092329,-0.100597 0.092329,-0.322461 v -1.280196 h 0.5319223 z"
         id="path9520" />
      <path
         d="M 11.184661,37.237049 H 10.674787 L 9.8038677,35.828695 v 1.408354 H 9.3187986 v -2.051897 h 0.6325191 l 0.7482743,1.175465 v -1.175465 h 0.485069 z"
         id="path9522" />
    </g>
    <path
       style="fill:#222222;fill-opacity:1;stroke-width:0.22;paint-order:markers stroke fill"
       id="path938"
       width="11.448285"
       height="10.845741"
       x="1.8958573"
       y="89.503616"
       inkscape:path-effect="#path-effect942"
       d="m 4.8958573,89.503616 h 5.4482847 a 3,3 45 0 1 3,3 v 4.845742 a 3,3 135 0 1 -3,3.000002 H 4.8958573 a 3,3 45 0 1 -3,-3.000002 v -4.845742 a 3,3 135 0 1 3,-3 z"
       sodipodi:type="rect" />
    <path
       style="display:inline;fill:#222222;fill-opacity:1;stroke-width:0.22;paint-order:markers stroke fill"
       id="path938-4"
       width="11.448285"
       height="10.845741"
       x="1.8958573"
       y="104.46754"
       inkscape:path-effect="#path-effect942-8"
       d="m 4.8958573,104.46754 h 5.4482847 a 3,3 45 0 1 3,3 v 4.84574 a 3,3 135 0 1 -3,3 H 4.8958573 a 3,3 45 0 1 -3,-3 v -4.84574 a 3,3 135 0 1 3,-3 z"
       sodipodi:type="rect" />
    <text
       xml:space="preserve"
       style="font-weight:bold;font-size:2.82223px;font-family:sans-serif;-inkscape-font-specification:'sans-serif, Bold';fill:#222222;fill-opacity:1;stroke-width:0.22;paint-order:markers stroke fill"
       x="20.124878"
       y="30.850111"
       id="text2032"><tspan
         sodipodi:role="line"
         id="tspan2030"
         style="stroke-width:0.22"
         x="20.124878"
         y="30.850111" /></text>
    <text
       xml:space="preserve"
       style="font-style:normal;font-variant:normal;font-weight:bold;font-stretch:normal;font-size:3.88056px;font-family:sans-serif;-inkscape-font-specification:'sans-serif, Bold';font-variant-ligatures:normal;font-variant-caps:normal;font-variant-numeric:normal;font-variant-east-asian:normal;display:inline;fill:#ffd556;stroke-width:0.22;paint-order:markers stroke fill"
       x="10.52809"
       y="-23.001877"
       id="text610"
       transform="rotate(90)"><tspan
         sodipodi:role="line"
         id="tspan608"
         x="10.52809"
         y="-23.001877">Tintinnabulator</tspan></text>
    <g
       aria-label="Chinenual"
       id="text624"
       style="font-size:3.88056px;-inkscape-font-specification:'sans-serif, Normal';fill:#ffd556;stroke-width:0.264583"
       transform="translate(-28.565168,-6.8689722)">
      <path
         d="m 33.308488,126.088 q -0.104214,0.0455 -0.189481,0.0853 -0.08337,0.0398 -0.219797,0.0834 -0.115583,0.036 -0.252009,0.0606 -0.134531,0.0265 -0.297484,0.0265 -0.306959,0 -0.558968,-0.0853 -0.250114,-0.0872 -0.435805,-0.27095 -0.181901,-0.18001 -0.28422,-0.45665 -0.10232,-0.27854 -0.10232,-0.64613 0,-0.34864 0.09853,-0.62339 0.09853,-0.27475 0.284221,-0.46423 0.180006,-0.18379 0.43391,-0.28043 0.255799,-0.0966 0.566547,-0.0966 0.227376,0 0.452858,0.055 0.227376,0.0549 0.504018,0.19327 v 0.44528 h -0.02842 q -0.233061,-0.19517 -0.462332,-0.28423 -0.229272,-0.0891 -0.490755,-0.0891 -0.214113,0 -0.38654,0.0701 -0.170532,0.0682 -0.305064,0.21411 -0.130741,0.14211 -0.204638,0.36001 -0.072,0.21601 -0.072,0.50023 0,0.29749 0.07958,0.5116 0.08148,0.21411 0.208428,0.34864 0.132637,0.14022 0.308853,0.20843 0.178112,0.0663 0.375172,0.0663 0.270957,0 0.507807,-0.0928 0.236851,-0.0928 0.443385,-0.27853 h 0.02653 z"
         id="path730" />
      <path
         d="m 35.580359,126.29264 h -0.356224 v -1.2051 q 0,-0.1459 -0.01705,-0.27285 -0.01705,-0.12884 -0.06253,-0.20085 -0.04737,-0.0796 -0.136426,-0.11747 -0.08906,-0.0398 -0.231166,-0.0398 -0.1459,0 -0.305064,0.072 -0.159164,0.072 -0.305064,0.18379 v 1.58027 h -0.356223 v -2.94832 h 0.356223 v 1.06678 q 0.166743,-0.13832 0.344855,-0.21601 0.178111,-0.0777 0.365697,-0.0777 0.34296,0 0.522966,0.20654 0.180007,0.20653 0.180007,0.59497 z"
         id="path732" />
      <path
         d="M 36.649028,123.82182 H 36.24733 v -0.36949 h 0.401698 z m -0.02274,2.47082 h -0.356223 v -2.1165 h 0.356223 z"
         id="path734" />
      <path
         d="m 39.100906,126.29264 h -0.356223 v -1.2051 q 0,-0.1459 -0.01705,-0.27285 -0.01705,-0.12884 -0.06253,-0.20085 -0.04737,-0.0796 -0.136426,-0.11747 -0.08906,-0.0398 -0.231166,-0.0398 -0.1459,0 -0.305064,0.072 -0.159163,0.072 -0.305063,0.18379 v 1.58027 H 37.33116 v -2.1165 h 0.356224 v 0.23496 q 0.166742,-0.13832 0.344854,-0.21601 0.178112,-0.0777 0.365697,-0.0777 0.34296,0 0.522966,0.20654 0.180007,0.20653 0.180007,0.59497 z"
         id="path736" />
      <path
         d="m 41.558467,125.27134 h -1.559424 q 0,0.19517 0.05874,0.34107 0.05874,0.144 0.161058,0.23685 0.09853,0.0909 0.233061,0.13642 0.136426,0.0455 0.299379,0.0455 0.216008,0 0.433911,-0.0853 0.219797,-0.0872 0.312642,-0.17053 h 0.01895 v 0.38843 q -0.180006,0.0758 -0.367592,0.12696 -0.187585,0.0512 -0.394119,0.0512 -0.526756,0 -0.822345,-0.28423 -0.29559,-0.28611 -0.29559,-0.81097 0,-0.51918 0.282326,-0.82424 0.284221,-0.30507 0.746553,-0.30507 0.428226,0 0.659392,0.25012 0.233061,0.25011 0.233061,0.71055 z m -0.346749,-0.27285 q -0.0019,-0.28043 -0.14211,-0.43391 -0.138321,-0.15348 -0.422542,-0.15348 -0.286115,0 -0.456648,0.16864 -0.168637,0.16863 -0.191375,0.41875 z"
         id="path738" />
    </g>
    <g
       aria-label="Chinenual"
       id="g829"
       style="font-size:3.88056px;-inkscape-font-specification:'sans-serif, Normal';fill:#ffd556;stroke-width:0.264583"
       transform="translate(-38.201197,-3.6886246)">
      <path
         d="m 43.868234,126.29264 h -0.356223 v -1.2051 q 0,-0.1459 -0.01705,-0.27285 -0.01705,-0.12884 -0.06253,-0.20085 -0.04737,-0.0796 -0.136426,-0.11747 -0.08906,-0.0398 -0.231166,-0.0398 -0.1459,0 -0.305064,0.072 -0.159163,0.072 -0.305063,0.18379 v 1.58027 h -0.356223 v -2.1165 h 0.356223 v 0.23496 q 0.166743,-0.13832 0.344854,-0.21601 0.178112,-0.0777 0.365698,-0.0777 0.342959,0 0.522966,0.20654 0.180006,0.20653 0.180006,0.59497 z"
         id="path821" />
      <path
         d="m 46.308742,126.29264 h -0.356223 v -0.23496 q -0.180007,0.14212 -0.344855,0.21791 -0.164848,0.0758 -0.363802,0.0758 -0.333486,0 -0.519176,-0.20274 -0.185691,-0.20464 -0.185691,-0.59876 v -1.37374 h 0.356223 v 1.2051 q 0,0.16106 0.01516,0.27664 0.01516,0.11369 0.06442,0.19517 0.05116,0.0834 0.132636,0.12126 0.08148,0.0379 0.236851,0.0379 0.13832,0 0.301274,-0.072 0.164848,-0.072 0.306958,-0.1838 v -1.58027 h 0.356223 z"
         id="path823" />
      <path
         d="m 48.654511,126.29264 h -0.354328 v -0.22548 q -0.04737,0.0322 -0.128847,0.0909 -0.07958,0.0568 -0.155374,0.091 -0.08906,0.0436 -0.204639,0.072 -0.115583,0.0303 -0.270957,0.0303 -0.286116,0 -0.48507,-0.18948 -0.198955,-0.18948 -0.198955,-0.48318 0,-0.24064 0.10232,-0.38843 0.104214,-0.14969 0.295589,-0.23496 0.19327,-0.0853 0.464228,-0.11558 0.270957,-0.0303 0.581705,-0.0455 v -0.0549 q 0,-0.12127 -0.04358,-0.20085 -0.04169,-0.0796 -0.121267,-0.12506 -0.07579,-0.0436 -0.181902,-0.0587 -0.106109,-0.0152 -0.221692,-0.0152 -0.140215,0 -0.312643,0.0379 -0.172427,0.036 -0.356223,0.10611 h -0.01895 v -0.36191 q 0.104214,-0.0284 0.301274,-0.0625 0.19706,-0.0341 0.388435,-0.0341 0.223587,0 0.388435,0.0379 0.166743,0.036 0.28801,0.12506 0.119373,0.0872 0.181901,0.22548 0.06253,0.13832 0.06253,0.34296 z m -0.354328,-0.52107 v -0.58928 q -0.162954,0.009 -0.384646,0.0284 -0.219797,0.0189 -0.348644,0.0549 -0.153479,0.0436 -0.248219,0.13642 -0.09474,0.091 -0.09474,0.25201 0,0.1819 0.109898,0.27475 0.109899,0.091 0.335381,0.091 0.187585,0 0.342959,-0.072 0.155374,-0.0739 0.288011,-0.17622 z"
         id="path825" />
      <path
         d="M 49.700443,126.29264 H 49.34422 v -2.94832 h 0.356223 z"
         id="path827" />
    </g>
    <g
       aria-label="Tint"
       id="text833"
       style="font-weight:bold;font-size:3.88056px;-inkscape-font-specification:'sans-serif, Bold';display:inline;fill:#ffd556;stroke-width:0.22;paint-order:markers stroke fill">
      <path
         d="M 6.0521371,5.4654037 H 5.171053 V 7.7410641 H 4.443448 V 5.4654037 H 3.5623638 V 4.9196999 h 2.4897733 z"
         id="path839" />
      <path
         d="M 7.1340706,7.7410641 H 6.451941 V 5.6131985 H 7.1340706 Z M 7.1530187,5.3100297 H 6.4329929 V 4.792748 h 0.7200258 z"
         id="path841" />
      <path
         d="M 9.9156437,7.7410641 H 9.2297244 V 6.6856579 q 0,-0.1288467 -0.013264,-0.2557986 Q 9.2031971,6.3010125 9.1709855,6.2403788 9.1330894,6.170271 9.059192,6.1380593 8.9871894,6.1058477 8.8564479,6.1058477 q -0.092845,0 -0.1894805,0.030317 -0.09474,0.030317 -0.2065337,0.096635 V 7.7410641 H 7.778304 V 5.6131985 H 8.4604337 V 5.8481542 Q 8.642335,5.7060439 8.8090778,5.6302517 q 0.1686376,-0.075792 0.3732765,-0.075792 0.3448544,0 0.5381245,0.2008493 0.1951649,0.2008493 0.1951649,0.6006531 z"
         id="path843" />
      <path
         d="m 11.903294,7.722116 q -0.109899,0.028422 -0.233061,0.043581 -0.123162,0.017053 -0.301274,0.017053 -0.397909,0 -0.593074,-0.1610584 -0.19327,-0.1610584 -0.19327,-0.5513882 V 6.0755308 H 10.302184 V 5.6131985 h 0.280431 V 5.0049662 h 0.68213 v 0.6082323 h 0.638549 V 6.0755308 H 11.264745 V 6.829663 q 0,0.1117935 0.0019,0.1951649 0.0019,0.083371 0.03032,0.1496896 0.02653,0.066318 0.09285,0.106109 0.06821,0.037896 0.19706,0.037896 0.05305,0 0.13832,-0.022738 0.08716,-0.022738 0.121268,-0.041686 h 0.05684 z"
         id="path845" />
    </g>
    <text
       xml:space="preserve"
       style="font-style:normal;font-variant:normal;font-weight:bold;font-stretch:normal;font-size:3.88056px;font-family:sans-serif;-inkscape-font-specification:'sans-serif, Bold';font-variant-ligatures:normal;font-variant-caps:normal;font-variant-numeric:normal;font-variant-east-asian:normal;display:inline;fill:#ffd556;stroke-width:0.22;paint-order:markers stroke fill"
       x="19.839239"
       y="3.6437838"
       id="text837"><tspan
         sodipodi:role="line"
         id="tspan835"
         x="19.839239"
         y="3.6437838">Tint</tspan></text>
    <text
       xml:space="preserve"
       style="font-style:normal;font-variant:normal;font-weight:bold;font-stretch:normal;font-size:2.82222px;font-family:sans-serif;-inkscape-font-specification:'sans-serif, Bold';font-variant-ligatures:normal;font-variant-caps:normal;font-variant-numeric:normal;font-variant-east-asian:normal;display:inline;fill:#ffd556;stroke-width:0.22;paint-order:markers stroke fill"
       x="-6.7049365"
       y="101.93139"
       id="text898"><tspan
         sodipodi:role="line"
         id="tspan896"
         x="-6.7049365"
         y="101.93139">Mix</tspan></text>
    <g
       aria-label="Tint"
       id="text902"
       style="font-weight:bold;font-size:2.82222px;-inkscape-font-specification:'sans-serif, Bold';display:inline;fill:#ffd556;stroke-width:0.22;paint-order:markers stroke fill"
       transform="translate(0,-0.52916667)">
      <path
         d="M 6.3976811,87.502494 H 5.7568939 v 1.655022 H 5.2277276 V 87.502494 H 4.5869403 v -0.396875 h 1.8107408 z"
         id="path1025" />
      <path
         d="M 7.1845404,89.157516 H 6.688447 v -1.547535 h 0.4960934 z m 0.01378,-1.768021 H 6.6746667 v -0.376204 h 0.5236541 z"
         id="path1027" />
      <path
         d="M 9.207499,89.157516 H 8.7086496 V 88.38995 q 0,-0.09371 -0.00965,-0.186035 -0.00965,-0.09371 -0.033073,-0.137804 -0.027561,-0.05099 -0.081304,-0.07441 -0.052365,-0.02343 -0.14745,-0.02343 -0.067524,0 -0.1378037,0.02205 -0.068902,0.02205 -0.150206,0.07028 v 1.096917 H 7.6530731 v -1.547535 h 0.4960934 v 0.170876 q 0.1322915,-0.103352 0.2535588,-0.158474 0.1226453,-0.05512 0.2714733,-0.05512 0.2508028,0 0.3913626,0.146072 0.1419378,0.146071 0.1419378,0.436837 z"
         id="path1029" />
      <path
         d="m 10.65306,89.143736 q -0.07993,0.02067 -0.169499,0.03169 -0.08957,0.0124 -0.219108,0.0124 -0.2893875,0 -0.4313253,-0.117133 Q 9.6925679,88.953567 9.6925679,88.669691 V 87.946222 H 9.4886184 v -0.336241 h 0.2039495 v -0.44235 h 0.4960931 v 0.44235 h 0.464399 v 0.336241 h -0.464399 v 0.548459 q 0,0.0813 0.0014,0.141937 0.0014,0.06063 0.02205,0.108865 0.01929,0.04823 0.06752,0.07717 0.04961,0.02756 0.143316,0.02756 0.03858,0 0.100596,-0.01654 0.06339,-0.01654 0.0882,-0.03032 h 0.04134 z"
         id="path1031" />
    </g>
    <g
       aria-label="Gate"
       id="text912"
       style="font-weight:bold;font-size:2.82222px;-inkscape-font-specification:'sans-serif, Bold';display:inline;fill:#ffd556;stroke-width:0.22;paint-order:markers stroke fill"
       transform="translate(0,11.112501)">
      <path
         d="m 6.0166536,63.492635 q -0.1378037,0.05374 -0.3651798,0.107487 -0.2273761,0.05237 -0.4533742,0.05237 -0.5236541,0 -0.8199321,-0.283876 -0.296278,-0.285253 -0.296278,-0.786859 0,-0.478179 0.299034,-0.770323 0.2990341,-0.293521 0.8337125,-0.293521 0.2025715,0 0.3858504,0.03721 0.183279,0.03583 0.407899,0.144693 v 0.480935 h -0.059256 q -0.038585,-0.02894 -0.112999,-0.0813 -0.074414,-0.05374 -0.1433159,-0.09095 -0.079926,-0.0441 -0.187413,-0.07579 -0.1061089,-0.03169 -0.2259981,-0.03169 -0.1405598,0 -0.2549369,0.04134 -0.1143771,0.04134 -0.2053275,0.126779 -0.086816,0.08268 -0.1378038,0.21084 -0.049609,0.126779 -0.049609,0.293522 0,0.340375 0.1805229,0.520898 0.1805228,0.180523 0.5333004,0.180523 0.030317,0 0.066146,-0.0014 0.037207,-0.0014 0.067524,-0.0041 V 62.867006 H 5.0699421 v -0.387229 h 0.9467115 z"
         id="path1043" />
      <path
         d="m 7.4002029,63.206003 v -0.322461 q -0.1005967,0.0083 -0.2177298,0.02343 -0.1171332,0.01378 -0.1777668,0.03307 -0.074414,0.02343 -0.1143771,0.0689 -0.038585,0.0441 -0.038585,0.117133 0,0.04823 0.00827,0.07855 0.00827,0.03032 0.041341,0.05788 0.031695,0.02756 0.075792,0.04134 0.044097,0.0124 0.1378037,0.0124 0.074414,0 0.1502061,-0.03032 0.07717,-0.03032 0.1350476,-0.07993 z m 0,0.239778 q -0.039963,0.03032 -0.099219,0.07304 -0.059255,0.04272 -0.111621,0.06752 -0.073036,0.03307 -0.151584,0.04823 -0.078548,0.01654 -0.1722547,0.01654 -0.2204859,0 -0.3693139,-0.136426 -0.1488281,-0.136425 -0.1488281,-0.348643 0,-0.169499 0.075792,-0.276986 0.075792,-0.107486 0.2149738,-0.169498 0.1378037,-0.06201 0.3417532,-0.08819 0.2039495,-0.02618 0.4230574,-0.03859 v -0.0083 q 0,-0.128157 -0.1047308,-0.176388 -0.1047308,-0.04961 -0.3086803,-0.04961 -0.1226454,0 -0.2618271,0.0441 Q 6.5885386,62.4453 6.527905,62.46873 H 6.48243 v -0.373448 q 0.078548,-0.02067 0.2549369,-0.04823 0.1777667,-0.02894 0.3555335,-0.02894 0.4230574,0 0.6104705,0.130914 0.1887911,0.129535 0.1887911,0.407899 v 1.05282 H 7.4002029 Z"
         id="path1045" />
      <path
         d="m 9.3377233,63.595988 q -0.079926,0.02067 -0.1694986,0.03169 -0.089572,0.0124 -0.2191079,0.0124 -0.2893878,0 -0.4313256,-0.117133 -0.1405598,-0.117134 -0.1405598,-0.401009 v -0.72347 H 8.1732819 v -0.336241 h 0.2039495 v -0.44235 h 0.4960934 v 0.44235 h 0.4643985 v 0.336241 H 8.8733248 v 0.548459 q 0,0.0813 0.00138,0.141938 0.00138,0.06063 0.022049,0.108865 0.019293,0.04823 0.067524,0.07717 0.049609,0.02756 0.1433159,0.02756 0.038585,0 0.1005967,-0.01654 0.06339,-0.01654 0.088194,-0.03032 h 0.041341 z"
         id="path1047" />
      <path
         d="m 11.15811,62.92764 h -1.135502 q 0.01102,0.1819 0.137803,0.278363 0.128158,0.09646 0.376204,0.09646 0.157097,0 0.304547,-0.0565 0.14745,-0.0565 0.232888,-0.121267 h 0.05512 v 0.398253 q -0.16812,0.06752 -0.316948,0.09784 -0.148828,0.03032 -0.329351,0.03032 -0.465777,0 -0.7138233,-0.209462 -0.2480467,-0.209461 -0.2480467,-0.59669 0,-0.383094 0.2342663,-0.606336 0.2356444,-0.22462 0.6449217,-0.22462 0.377582,0 0.567751,0.191547 0.190169,0.190169 0.190169,0.548459 z m -0.493337,-0.290766 q -0.0041,-0.155719 -0.07717,-0.234267 -0.07304,-0.07855 -0.227376,-0.07855 -0.143316,0 -0.235645,0.07441 -0.09233,0.07441 -0.103353,0.238401 z"
         id="path1049" />
    </g>
    <g
       aria-label="Chord"
       id="text920"
       style="font-weight:bold;font-size:2.82222px;-inkscape-font-specification:'sans-serif, Bold';display:inline;fill:#ffd556;stroke-width:0.22;paint-order:markers stroke fill">
      <path
         d="m 4.172151,45.211968 q -0.2287542,0 -0.4230574,-0.06752 -0.1929252,-0.06752 -0.332107,-0.201193 -0.1391817,-0.13367 -0.2163518,-0.333485 -0.075792,-0.199816 -0.075792,-0.461643 0,-0.243912 0.073036,-0.44235 0.073036,-0.198437 0.2122177,-0.340375 0.1336696,-0.136426 0.3307289,-0.21084 0.1984374,-0.07441 0.4327037,-0.07441 0.1295355,0 0.2328883,0.01516 0.1047308,0.01378 0.1929252,0.03721 0.092329,0.02618 0.1667425,0.05925 0.075792,0.0317 0.1322916,0.05926 v 0.497471 h -0.060634 q -0.038585,-0.03307 -0.097841,-0.07855 -0.057878,-0.04548 -0.1322916,-0.08957 -0.075792,-0.0441 -0.1639864,-0.07441 -0.088194,-0.03032 -0.1887911,-0.03032 -0.111621,0 -0.2122177,0.03583 -0.1005967,0.03445 -0.186035,0.115755 -0.081304,0.07855 -0.1322916,0.208084 -0.049609,0.129535 -0.049609,0.314192 0,0.192925 0.053743,0.322461 0.055122,0.129535 0.1378037,0.203949 0.08406,0.07579 0.1874131,0.108865 0.1033528,0.03169 0.2039495,0.03169 0.096463,0 0.1901691,-0.02894 0.095085,-0.02894 0.1750107,-0.07855 0.067524,-0.03996 0.1254014,-0.08544 0.057878,-0.04547 0.095085,-0.07855 h 0.055121 v 0.490581 q -0.07717,0.03445 -0.14745,0.06477 -0.07028,0.03032 -0.14745,0.05237 -0.1005967,0.02894 -0.1887911,0.0441 -0.088194,0.01516 -0.2425345,0.01516 z"
         id="path1065" />
      <path
         d="M 6.8138482,45.172005 H 6.3149988 v -0.767567 q 0,-0.09371 -0.00965,-0.186035 -0.00965,-0.09371 -0.033073,-0.137804 -0.027561,-0.05099 -0.081304,-0.07441 -0.052366,-0.02343 -0.14745,-0.02343 -0.067524,0 -0.1378037,0.02205 -0.068902,0.02205 -0.1502061,0.07028 v 1.096918 H 5.2594223 v -2.144226 h 0.4960934 v 0.767567 q 0.1322916,-0.103353 0.2535588,-0.158475 0.1226454,-0.05512 0.2714734,-0.05512 0.2508027,0 0.3913625,0.146072 0.1419378,0.146072 0.1419378,0.436838 z"
         id="path1067" />
      <path
         d="m 8.8519652,44.398926 q 0,0.381716 -0.223242,0.602202 -0.221864,0.219108 -0.6242508,0.219108 -0.4023869,0 -0.6256289,-0.219108 -0.221864,-0.220486 -0.221864,-0.602202 0,-0.384473 0.223242,-0.60358 0.2246201,-0.219108 0.6242509,-0.219108 0.4051429,0 0.6256288,0.220486 0.221864,0.220486 0.221864,0.602202 z M 8.2414948,44.77513 q 0.048231,-0.05926 0.071658,-0.141938 0.024805,-0.08406 0.024805,-0.23151 0,-0.136426 -0.024805,-0.228754 -0.024805,-0.09233 -0.068902,-0.14745 -0.044097,-0.0565 -0.1061088,-0.07993 -0.062012,-0.02343 -0.1336696,-0.02343 -0.071658,0 -0.1281575,0.01929 -0.055121,0.01929 -0.1061089,0.07717 -0.045475,0.05374 -0.073036,0.14745 -0.026183,0.09371 -0.026183,0.235644 0,0.126779 0.023427,0.220486 0.023427,0.09233 0.068902,0.148828 0.044097,0.05374 0.1047308,0.07855 0.062012,0.02481 0.1405598,0.02481 0.067524,0 0.1281574,-0.02205 0.062012,-0.02343 0.1047309,-0.07717 z"
         id="path1069" />
      <path
         d="m 10.329221,44.097136 h -0.0441 q -0.03169,-0.01102 -0.101975,-0.01654 -0.07028,-0.0055 -0.117133,-0.0055 -0.1061087,0 -0.1874128,0.01378 -0.081304,0.01378 -0.1750108,0.04685 v 1.036284 H 9.2074991 v -1.547536 h 0.4960933 v 0.227376 q 0.1639865,-0.14056 0.2852537,-0.186035 0.1212669,-0.04685 0.2232419,-0.04685 0.02618,0 0.05926,0.0014 0.03307,0.0014 0.05788,0.0041 z"
         id="path1071" />
      <path
         d="m 12.115157,45.172005 h -0.496093 v -0.161231 q -0.128158,0.104731 -0.239779,0.154341 -0.111621,0.04961 -0.257693,0.04961 -0.282497,0 -0.451996,-0.21773 -0.169498,-0.21773 -0.169498,-0.587044 0,-0.197059 0.0565,-0.348643 0.05788,-0.152962 0.157096,-0.261827 0.09371,-0.103353 0.227377,-0.159853 0.133669,-0.05788 0.267339,-0.05788 0.139182,0 0.227376,0.03032 0.08957,0.02894 0.183279,0.07441 v -0.658702 h 0.496093 z m -0.496093,-0.427192 v -0.759298 q -0.05237,-0.02205 -0.110243,-0.03169 -0.05788,-0.0096 -0.106109,-0.0096 -0.195681,0 -0.293522,0.122645 -0.09784,0.121267 -0.09784,0.337619 0,0.227376 0.07855,0.330729 0.07855,0.101975 0.25218,0.101975 0.06752,0 0.143316,-0.02481 0.07579,-0.02618 0.13367,-0.06752 z"
         id="path1073" />
    </g>
    <g
       aria-label="Octave"
       id="text924"
       style="font-weight:bold;font-size:2.82222px;-inkscape-font-specification:'sans-serif, Bold';display:inline;fill:#ffd556;stroke-width:0.22;paint-order:markers stroke fill"
       transform="translate(0,-0.52916667)">
      <path
         d="m 4.3947037,29.685756 q 0,0.490581 -0.2811196,0.779969 -0.2811196,0.28801 -0.7772129,0.28801 -0.4947154,0 -0.775835,-0.28801 -0.2811195,-0.289388 -0.2811195,-0.779969 0,-0.494715 0.2811195,-0.781347 0.2811196,-0.28801 0.775835,-0.28801 0.4933373,0 0.7758349,0.28801 0.2824976,0.286632 0.2824976,0.781347 z m -0.7014209,0.51952 q 0.07717,-0.09371 0.1143771,-0.220486 0.037207,-0.128157 0.037207,-0.300412 0,-0.184657 -0.042719,-0.314192 -0.042719,-0.129536 -0.111621,-0.209462 -0.07028,-0.08268 -0.1626084,-0.119889 -0.09095,-0.03721 -0.1901691,-0.03721 -0.1005967,0 -0.1901691,0.03583 -0.088194,0.03583 -0.1626084,0.118511 -0.068902,0.07717 -0.1129991,0.213596 -0.042719,0.135047 -0.042719,0.314192 0,0.183279 0.041341,0.312814 0.042719,0.128158 0.111621,0.209462 0.068902,0.0813 0.1612303,0.119889 0.092328,0.03859 0.1943033,0.03859 0.1019747,0 0.1943032,-0.03859 0.092328,-0.03996 0.1612304,-0.122645 z"
         id="path1076" />
      <path
         d="m 5.5770596,30.752357 q -0.2025714,0 -0.3706919,-0.04823 -0.1667425,-0.04823 -0.2907659,-0.148828 -0.1226453,-0.100597 -0.1901691,-0.253559 -0.067524,-0.152962 -0.067524,-0.35829 0,-0.216352 0.071658,-0.373448 0.073036,-0.157096 0.2025715,-0.260449 0.1254013,-0.09784 0.2893878,-0.143316 0.1639864,-0.04547 0.3403751,-0.04547 0.1584743,0 0.2921439,0.03445 0.1336696,0.03445 0.2494247,0.08957 v 0.423058 h -0.07028 q -0.028939,-0.02481 -0.07028,-0.05788 -0.039963,-0.03307 -0.099219,-0.06477 -0.0565,-0.03032 -0.1240234,-0.04961 -0.067524,-0.02067 -0.1570962,-0.02067 -0.1984374,0 -0.3059243,0.12678 -0.1061088,0.125401 -0.1061088,0.341753 0,0.223242 0.1088649,0.338997 0.110243,0.115755 0.3114364,0.115755 0.093706,0 0.1681206,-0.02067 0.075792,-0.02205 0.1254013,-0.05099 0.046853,-0.02756 0.082682,-0.05788 0.035829,-0.03032 0.066146,-0.05926 h 0.07028 v 0.423058 q -0.1171331,0.05512 -0.2452906,0.08682 -0.1267794,0.03307 -0.2811196,0.03307 z"
         id="path1078" />
      <path
         d="m 7.4208734,30.697235 q -0.079926,0.02067 -0.1694985,0.03169 -0.089572,0.0124 -0.2191079,0.0124 -0.2893878,0 -0.4313257,-0.117134 -0.1405597,-0.117133 -0.1405597,-0.401008 v -0.72347 H 6.2564321 V 29.16348 h 0.2039495 v -0.44235 h 0.4960933 v 0.44235 h 0.4643985 v 0.336241 H 6.9564749 v 0.548459 q 0,0.0813 0.00138,0.141938 0.00138,0.06063 0.022049,0.108865 0.019293,0.04823 0.067524,0.07717 0.049609,0.02756 0.1433158,0.02756 0.038585,0 0.1005968,-0.01654 0.06339,-0.01654 0.088194,-0.03032 h 0.041341 z"
         id="path1080" />
      <path
         d="M 8.6542165,30.307251 V 29.98479 q -0.1005967,0.0083 -0.2177299,0.02343 -0.1171332,0.01378 -0.1777668,0.03307 -0.074414,0.02343 -0.1143771,0.0689 -0.038585,0.0441 -0.038585,0.117133 0,0.04823 0.00827,0.07855 0.00827,0.03032 0.041341,0.05788 0.031695,0.02756 0.075792,0.04134 0.044097,0.0124 0.1378037,0.0124 0.074414,0 0.150206,-0.03032 0.07717,-0.03032 0.1350477,-0.07993 z m 0,0.239778 q -0.039963,0.03032 -0.099219,0.07304 -0.059256,0.04272 -0.111621,0.06752 -0.073036,0.03307 -0.1515841,0.04823 -0.078548,0.01654 -0.1722547,0.01654 -0.2204859,0 -0.3693139,-0.136426 -0.148828,-0.136426 -0.148828,-0.348643 0,-0.169499 0.075792,-0.276986 0.075792,-0.107487 0.2149738,-0.169498 0.1378037,-0.06201 0.3417532,-0.08819 0.2039495,-0.02618 0.4230574,-0.03859 v -0.0083 q 0,-0.128157 -0.1047308,-0.176389 -0.1047308,-0.04961 -0.3086803,-0.04961 -0.1226453,0 -0.2618271,0.0441 -0.1391817,0.04272 -0.1998154,0.06615 h -0.045475 v -0.373448 q 0.078548,-0.02067 0.2549369,-0.04823 0.1777668,-0.02894 0.3555336,-0.02894 0.4230574,0 0.6104704,0.130913 0.1887911,0.129536 0.1887911,0.407899 v 1.052821 H 8.6542165 Z"
         id="path1082" />
      <path
         d="m 11.160866,29.16348 -0.59669,1.547536 H 10.001937 L 9.4093812,29.16348 h 0.5250322 l 0.3582896,1.063845 0.354156,-1.063845 z"
         id="path1084" />
      <path
         d="M 12.960583,30.028887 H 11.82508 q 0.01103,0.181901 0.137804,0.278364 0.128158,0.09646 0.376204,0.09646 0.157096,0 0.304546,-0.0565 0.14745,-0.0565 0.232889,-0.121267 h 0.05512 v 0.398252 q -0.16812,0.06752 -0.316948,0.09784 -0.148828,0.03032 -0.329351,0.03032 -0.465777,0 -0.713823,-0.209462 -0.248047,-0.209461 -0.248047,-0.59669 0,-0.383094 0.234266,-0.606336 0.235645,-0.22462 0.644922,-0.22462 0.377582,0 0.567751,0.191547 0.190169,0.190169 0.190169,0.548459 z m -0.493337,-0.290766 q -0.0041,-0.155718 -0.07717,-0.234266 -0.07304,-0.07855 -0.227377,-0.07855 -0.143315,0 -0.235644,0.07441 -0.09233,0.07441 -0.103353,0.2384 z"
         id="path1086" />
    </g>
    <g
       aria-label="Mode"
       id="text928"
       style="font-weight:bold;font-size:2.82222px;-inkscape-font-specification:'sans-serif, Bold';display:inline;fill:#ffd556;stroke-width:0.22;paint-order:markers stroke fill"
       transform="translate(0,-1.0583333)">
      <path
         d="M 5.7300219,16.370535 H 5.2036117 v -1.373903 l -0.3803383,0.89159 H 4.4580936 l -0.3803383,-0.89159 v 1.373903 H 3.5789059 v -2.051897 h 0.6146046 l 0.4616424,1.029393 0.4602644,-1.029393 h 0.6146046 z"
         id="path1089" />
      <path
         d="m 7.8081019,15.597456 q 0,0.381716 -0.223242,0.602202 -0.221864,0.219108 -0.6242508,0.219108 -0.4023869,0 -0.6256289,-0.219108 -0.221864,-0.220486 -0.221864,-0.602202 0,-0.384472 0.223242,-0.60358 0.2246201,-0.219108 0.6242509,-0.219108 0.4051429,0 0.6256288,0.220486 0.221864,0.220486 0.221864,0.602202 z M 7.1976315,15.97366 q 0.048231,-0.05926 0.071658,-0.141938 0.024805,-0.08406 0.024805,-0.23151 0,-0.136426 -0.024805,-0.228754 -0.024805,-0.09233 -0.068902,-0.14745 -0.044097,-0.0565 -0.1061088,-0.07993 -0.062012,-0.02343 -0.1336696,-0.02343 -0.071658,0 -0.1281575,0.01929 -0.055121,0.01929 -0.1061089,0.07717 -0.045475,0.05374 -0.073036,0.14745 -0.026183,0.09371 -0.026183,0.235644 0,0.12678 0.023427,0.220486 0.023427,0.09233 0.068902,0.148828 0.044097,0.05374 0.1047308,0.07855 0.062012,0.02481 0.1405598,0.02481 0.067524,0 0.1281574,-0.02205 0.062012,-0.02343 0.1047309,-0.07717 z"
         id="path1091" />
      <path
         d="M 9.6684521,16.370535 H 9.1723587 v -0.16123 q -0.1281574,0.10473 -0.2397784,0.15434 -0.1116211,0.04961 -0.257693,0.04961 -0.2824976,0 -0.4519962,-0.21773 -0.1694985,-0.21773 -0.1694985,-0.587044 0,-0.197059 0.056499,-0.348643 0.057878,-0.152962 0.1570962,-0.261827 0.093706,-0.103353 0.2273761,-0.159852 0.1336696,-0.05788 0.2673393,-0.05788 0.1391817,0 0.2273761,0.03032 0.089572,0.02894 0.1832789,0.07441 v -0.6587 H 9.6684521 Z M 9.1723587,15.943343 v -0.759298 q -0.052365,-0.02205 -0.1102429,-0.03169 -0.057878,-0.0096 -0.1061089,-0.0096 -0.1956813,0 -0.2935219,0.122645 -0.097841,0.121267 -0.097841,0.337619 0,0.227376 0.078548,0.330729 0.078548,0.101975 0.2521808,0.101975 0.067524,0 0.1433158,-0.02481 0.075792,-0.02618 0.1336696,-0.06752 z"
         id="path1093" />
      <path
         d="m 11.661094,15.688407 h -1.135503 q 0.01102,0.1819 0.137804,0.278363 0.128157,0.09646 0.376204,0.09646 0.157096,0 0.304546,-0.0565 0.14745,-0.0565 0.232888,-0.121267 h 0.05512 v 0.398253 q -0.168121,0.06752 -0.316949,0.09784 -0.148828,0.03032 -0.32935,0.03032 -0.465777,0 -0.713824,-0.209462 -0.248046,-0.209461 -0.248046,-0.59669 0,-0.383094 0.234266,-0.606336 0.235644,-0.22462 0.644921,-0.22462 0.377582,0 0.567752,0.191547 0.190169,0.190169 0.190169,0.548459 z m -0.493338,-0.290766 q -0.0041,-0.155719 -0.07717,-0.234267 -0.07304,-0.07855 -0.227376,-0.07855 -0.143316,0 -0.235644,0.07441 -0.09233,0.07441 -0.103353,0.238401 z"
         id="path1095" />
    </g>
    <g
       aria-label="Melody"
       id="text940"
       style="font-weight:bold;font-size:2.82222px;-inkscape-font-specification:'sans-serif, Bold';display:inline;fill:#ffd556;stroke-width:0.22;paint-order:markers stroke fill"
       transform="translate(0,4.7625002)">
      <path
         d="M 4.2920399,55.535717 H 3.7656297 v -1.373903 l -0.3803382,0.89159 H 3.0201116 l -0.3803382,-0.89159 v 1.373903 H 2.1409239 V 53.48382 h 0.6146046 l 0.4616424,1.029393 0.4602644,-1.029393 h 0.6146046 z"
         id="path1052" />
      <path
         d="M 6.3122424,54.853589 H 5.1767398 q 0.011024,0.181901 0.1378037,0.278363 0.1281574,0.09646 0.3762041,0.09646 0.1570963,0 0.3045462,-0.0565 0.14745,-0.0565 0.2328883,-0.121267 h 0.055122 v 0.398253 q -0.1681205,0.06752 -0.3169485,0.09784 -0.148828,0.03032 -0.3293509,0.03032 -0.4657766,0 -0.7138233,-0.209462 -0.2480466,-0.209461 -0.2480466,-0.59669 0,-0.383094 0.2342663,-0.606336 0.2356443,-0.22462 0.6449214,-0.22462 0.3775821,0 0.5677513,0.191547 0.1901691,0.190169 0.1901691,0.548459 z M 5.8189051,54.562823 q -0.00413,-0.155718 -0.07717,-0.234267 -0.073036,-0.07855 -0.2273761,-0.07855 -0.1433159,0 -0.2356444,0.07441 -0.092329,0.07441 -0.1033528,0.238401 z"
         id="path1054" />
      <path
         d="M 7.1583572,55.535717 H 6.6622638 v -2.144226 h 0.4960934 z"
         id="path1056" />
      <path
         d="m 9.2088763,54.762638 q 0,0.381716 -0.223242,0.602202 -0.221864,0.219108 -0.6242509,0.219108 -0.4023868,0 -0.6256288,-0.219108 -0.221864,-0.220486 -0.221864,-0.602202 0,-0.384472 0.223242,-0.60358 0.22462,-0.219108 0.6242508,-0.219108 0.4051429,0 0.6256289,0.220486 0.221864,0.220486 0.221864,0.602202 z m -0.6104705,0.376204 q 0.048231,-0.05926 0.071658,-0.141938 0.024805,-0.08406 0.024805,-0.23151 0,-0.136425 -0.024805,-0.228754 -0.024805,-0.09233 -0.068902,-0.14745 -0.044097,-0.0565 -0.1061089,-0.07993 -0.062012,-0.02343 -0.1336696,-0.02343 -0.071658,0 -0.1281574,0.01929 -0.055122,0.01929 -0.1061089,0.07717 -0.045475,0.05374 -0.073036,0.14745 -0.026183,0.09371 -0.026183,0.235644 0,0.12678 0.023427,0.220486 0.023427,0.09233 0.068902,0.148828 0.044097,0.05374 0.1047308,0.07855 0.062012,0.02481 0.1405598,0.02481 0.067524,0 0.1281575,-0.02205 0.062012,-0.02343 0.1047308,-0.07717 z"
         id="path1058" />
      <path
         d="m 11.069227,55.535717 h -0.496094 v -0.16123 q -0.128157,0.10473 -0.239778,0.15434 -0.111621,0.04961 -0.257693,0.04961 -0.2824977,0 -0.4519963,-0.21773 -0.1694985,-0.21773 -0.1694985,-0.587044 0,-0.197059 0.056499,-0.348643 0.057878,-0.152962 0.1570962,-0.261827 0.093706,-0.103353 0.2273761,-0.159852 0.1336705,-0.05788 0.2673395,-0.05788 0.139182,0 0.227376,0.03032 0.08957,0.02894 0.183279,0.07441 v -0.658702 h 0.496094 z m -0.496094,-0.427192 v -0.759298 q -0.05236,-0.02205 -0.110243,-0.03169 -0.05788,-0.0096 -0.106109,-0.0096 -0.195681,0 -0.293521,0.122645 -0.097841,0.121267 -0.097841,0.337619 0,0.227376 0.078548,0.330729 0.07855,0.101975 0.252181,0.101975 0.06752,0 0.143316,-0.02481 0.07579,-0.02618 0.133669,-0.06752 z"
         id="path1060" />
      <path
         d="m 12.236425,54.988636 0.352777,-1.000455 h 0.509874 l -0.859895,2.115287 h -0.537435 l 0.245291,-0.578775 -0.602203,-1.536512 h 0.520899 z"
         id="path1062" />
    </g>
    <g
       aria-label="Mix"
       id="text948"
       style="font-weight:bold;font-size:2.82222px;-inkscape-font-specification:'sans-serif, Bold';display:inline;fill:#ffd556;stroke-width:0.22;paint-order:markers stroke fill"
       transform="translate(2.8555908e-7,-0.77018319)">
      <path
         d="M 7.1562902,104.22105 H 6.62988 v -1.37391 l -0.3803382,0.89159 H 5.8843619 l -0.3803382,-0.89159 v 1.37391 H 5.0051742 v -2.0519 h 0.6146046 l 0.4616424,1.02939 0.4602645,-1.02939 h 0.6146045 z"
         id="path950" />
      <path
         d="M 8.148477,104.22105 H 7.6523836 v -1.54754 H 8.148477 Z m 0.01378,-1.76803 H 7.6386032 v -0.3762 h 0.5236541 z"
         id="path952" />
      <path
         d="M 10.234825,104.22105 H 9.6560497 l -0.3307289,-0.46302 -0.3389972,0.46302 H 8.4185723 l 0.6104705,-0.77308 -0.6008242,-0.77446 h 0.5787756 l 0.3252168,0.45475 0.3265948,-0.45475 h 0.5691292 l -0.6022021,0.76206 z"
         id="path954" />
    </g>
  </g>
  <g
     id="layer2"
     inkscape:label="components"
     style="display:none"
     transform="translate(-10.16)"
     inkscape:groupmode="layer"
     sodipodi:insensitive="true">
    <circle
       style="fill:#0000ff;fill-opacity:1;stroke-width:0.0642894"
       id="path930"
       cx="20.32"
       cy="65.048264"
       r="2.54"
       inkscape:label="output example" />
    <circle
       style="fill:#00ff00;fill-opacity:1;stroke-width:0.0642894"
       id="circle28"
       cx="20.32"
       cy="46.498661"
       r="2.54"
       inkscape:label="input example" />
    <circle
       style="fill:#ff0000;fill-opacity:1;stroke-width:0.0642894"
       id="circle932"
       cx="20.32"
       cy="27.949057"
       r="2.54"
       inkscape:label="param example" />
    <circle
       style="fill:#ff00ff;fill-opacity:1;stroke-width:0.0642894"
       id="circle985"
       cx="20.32"
       cy="86.21492"
       r="2.54"
       inkscape:label="light example" />
  </g>
</svg>
